<svg width="251" height="56" viewBox="0 0 251 56" fill="none" xmlns="http://www.w3.org/2000/svg">
<path d="M13.6839 43.0001C22.9908 43.0001 28.5092 37.243 28.5092 27.6975C28.5092 18.1819 22.9908 12.4546 13.8928 12.4546H3.3331V43.0001H13.6839ZM8.86648 38.2125V17.2423H13.5795C19.7841 17.2423 23.0206 20.7025 23.0206 27.6975C23.0206 34.7224 19.7841 38.2125 13.4155 38.2125H8.86648ZM43.521 43.4475C50.2326 43.4475 54.4982 38.7196 54.4982 31.635C54.4982 24.5356 50.2326 19.7927 43.521 19.7927C36.8093 19.7927 32.5437 24.5356 32.5437 31.635C32.5437 38.7196 36.8093 43.4475 43.521 43.4475ZM43.5508 39.1223C39.837 39.1223 38.0174 35.8112 38.0174 31.6201C38.0174 27.4291 39.837 24.0733 43.5508 24.0733C47.2049 24.0733 49.0245 27.4291 49.0245 31.6201C49.0245 35.8112 47.2049 39.1223 43.5508 39.1223ZM70.5204 20.091H66.0012V14.6024H60.6021V20.091H57.3507V24.2671H60.6021V37.0044C60.5723 41.3147 63.7044 43.4326 67.7612 43.3133C69.2974 43.2686 70.3564 42.9703 70.938 42.7764L70.0282 38.5555C69.7299 38.6301 69.1184 38.7643 68.4473 38.7643C67.09 38.7643 66.0012 38.287 66.0012 36.1095V24.2671H70.5204V20.091ZM85.6925 43.0001H98.0568C105.052 43.0001 108.482 39.4355 108.482 34.6777C108.482 30.0541 105.201 27.3396 101.95 27.1755V26.8772C104.933 26.1762 107.289 24.0882 107.289 20.3744C107.289 15.8254 104.008 12.4546 97.3857 12.4546H85.6925V43.0001ZM91.2259 38.3765V29.4277H97.326C100.741 29.4277 102.859 31.5157 102.859 34.2451C102.859 36.6762 101.189 38.3765 97.1768 38.3765H91.2259ZM91.2259 25.4454V17.0186H96.8189C100.07 17.0186 101.756 18.7338 101.756 21.0903C101.756 23.775 99.5781 25.4454 96.6996 25.4454H91.2259ZM113.057 43.0001H118.456V29.5321C118.456 26.6237 120.649 24.5654 123.617 24.5654C124.527 24.5654 125.66 24.7295 126.123 24.8787V19.912C125.631 19.8225 124.78 19.7629 124.184 19.7629C121.559 19.7629 119.366 21.2544 118.531 23.9092H118.292V20.091H113.057V43.0001ZM138.759 43.4475C145.471 43.4475 149.737 38.7196 149.737 31.635C149.737 24.5356 145.471 19.7927 138.759 19.7927C132.048 19.7927 127.782 24.5356 127.782 31.635C127.782 38.7196 132.048 43.4475 138.759 43.4475ZM138.789 39.1223C135.075 39.1223 133.256 35.8112 133.256 31.6201C133.256 27.4291 135.075 24.0733 138.789 24.0733C142.443 24.0733 144.263 27.4291 144.263 31.6201C144.263 35.8112 142.443 39.1223 138.789 39.1223ZM158.432 43.0001H164.07L168.365 27.5186H168.678L172.974 43.0001H178.597L185.085 20.091H179.566L175.599 36.1095H175.375L171.259 20.091H165.815L161.698 36.199H161.489L157.462 20.091H151.959L158.432 43.0001ZM206.961 26.1464C206.215 22.2686 203.113 19.7927 197.743 19.7927C192.225 19.7927 188.466 22.5072 188.481 26.743C188.466 30.0839 190.525 32.2913 194.925 33.2011L198.832 34.0214C200.935 34.4838 201.92 35.3339 201.92 36.6315C201.92 38.1975 200.219 39.3758 197.654 39.3758C195.178 39.3758 193.567 38.3019 193.105 36.2437L187.84 36.7508C188.511 40.9568 192.046 43.4475 197.669 43.4475C203.396 43.4475 207.438 40.4795 207.453 36.1393C207.438 32.873 205.335 30.8744 201.01 29.9348L197.102 29.0995C194.775 28.5775 193.851 27.7721 193.866 26.4447C193.851 24.8936 195.566 23.8197 197.818 23.8197C200.309 23.8197 201.621 25.1769 202.039 26.6833L206.961 26.1464ZM222.047 43.4475C227.387 43.4475 231.056 40.8375 232.01 36.8552L226.969 36.2885C226.238 38.2274 224.448 39.2416 222.122 39.2416C218.632 39.2416 216.32 36.9447 216.275 33.0221H232.234V31.3666C232.234 23.3275 227.401 19.7927 221.764 19.7927C215.201 19.7927 210.921 24.6102 210.921 31.6798C210.921 38.8687 215.142 43.4475 222.047 43.4475ZM216.29 29.3829C216.454 26.4596 218.617 23.9987 221.838 23.9987C224.941 23.9987 227.029 26.2657 227.058 29.3829H216.29ZM236.801 43.0001H242.201V29.5321C242.201 26.6237 244.393 24.5654 247.361 24.5654C248.271 24.5654 249.404 24.7295 249.867 24.8787V19.912C249.375 19.8225 248.525 19.7629 247.928 19.7629C245.303 19.7629 243.11 21.2544 242.275 23.9092H242.037V20.091H236.801V43.0001Z" fill="black"/>
</svg>
