<svg xmlns="http://www.w3.org/2000/svg" width="16" height="16" viewBox="0 0 16 16">
    <g clip-path="url(#clip0)">
        <path fill="context-fill" fill-opacity="context-fill-opacity" fill-rule="evenodd" clip-rule="evenodd"
            d="M7.18745 4.48596L7.7734 3.2288C7.86313 3.03628 8.13687 3.03628 8.22659 3.2288L8.81255 4.48596C9.05184 5.00503 9.41649 5.45658 9.87382 5.79981C10.3303 6.14243 10.8648 6.36629 11.4292 6.45125L12.963 6.69124C13.1718 6.72391 13.3723 7 13.5836 7H15.5854C15.7596 7 15.9236 6.89872 15.9626 6.72897C16.0228 6.4671 16.0101 6.19372 15.9259 5.93857C15.8417 5.68342 15.6891 5.45627 15.4848 5.28184C15.2806 5.1074 15.0324 4.99236 14.7674 4.94923L11.7314 4.4742C11.493 4.43908 11.2671 4.34489 11.0743 4.2002C10.8815 4.0555 10.7279 3.86488 10.6275 3.64567L9.32477 0.850733C9.20852 0.596891 9.02189 0.381784 8.78705 0.230976C8.55221 0.0801678 8.27904 0 8 0C7.72096 0 7.44779 0.0801678 7.21295 0.230976C6.97811 0.381784 6.79147 0.596891 6.67523 0.850733L5.37253 3.64567C5.27208 3.86488 5.11847 4.0555 4.92567 4.2002C4.73287 4.34489 4.50699 4.43908 4.26855 4.4742L1.23262 4.94923C0.967566 4.99236 0.719411 5.1074 0.515149 5.28184C0.310887 5.45627 0.158341 5.68342 0.0741072 5.93857C-0.0101271 6.19372 -0.0228224 6.4671 0.0374002 6.72897C0.0976229 6.99083 0.228458 7.23116 0.415672 7.4238L2.70091 9.78789C2.86005 9.9527 2.97878 10.1522 3.04775 10.3708C3.11672 10.5893 3.13404 10.8209 3.09834 11.0473L2.56843 14.3062C2.5246 14.5741 2.55638 14.8489 2.66019 15.0998C2.76401 15.3506 2.93573 15.5674 3.15603 15.7259C3.37633 15.8843 3.63646 15.9781 3.90713 15.9966C4.1778 16.0151 4.44826 15.9577 4.68807 15.8307L6.41252 14.8881C6.77472 14.6902 7 14.3103 7 13.8975V13.0718C7 12.7215 6.65865 12.4727 6.35194 12.642L5.16903 13.2885C4.98644 13.3883 4.76897 13.2344 4.80237 13.0291L5.07243 11.3683L5.07393 11.3588C5.15782 10.8268 5.11713 10.2825 4.95503 9.76888C4.79294 9.25523 4.51384 8.78614 4.13962 8.39861L2.89591 7.11198C2.75514 6.96636 2.83691 6.72255 3.03701 6.69124L4.57079 6.45125C5.1352 6.36629 5.66967 6.14243 6.12618 5.79981C6.58351 5.45658 6.94816 5.00503 7.18745 4.48596Z" />
        <path fill="context-fill" fill-opacity="context-fill-opacity" fill-rule="evenodd" clip-rule="evenodd"
            d="M12 8C12.5523 8 13 8.44772 13 9V11H15C15.5523 11 16 11.4477 16 12C16 12.5523 15.5523 13 15 13H13V15C13 15.5523 12.5523 16 12 16C11.4477 16 11 15.5523 11 15V13H9C8.44772 13 8 12.5523 8 12C8 11.4477 8.44772 11 9 11H11V9C11 8.44772 11.4477 8 12 8Z" />
    </g>
    <defs>
        <clipPath id="clip0">
            <rect width="16" height="16" fill="white" transform="matrix(-1 0 0 1 16 0)" />
        </clipPath>
    </defs>
</svg>