<svg xmlns="http://www.w3.org/2000/svg" width="16" height="16" viewBox="0 0 16 16">
<path fill="context-fill" fill-opacity="context-fill-opacity" d="M2 8C2 6.89543 2.89543 6 4 6H12C13.1046 6 14 6.89543 14 8V14C14 15.1046 13.1046 16 12 16H4C2.89543 16 2 15.1046 2 14V8Z"/>
<path fill="context-fill" fill-opacity="context-fill-opacity" d="M12 5V6C12 6 10.2091 6 8 6C5.79086 6 4 6 4 6V5C4 2.79086 5.79086 1 8 1C10.2091 1 12 2.79086 12 5ZM8 3C6.89543 3 6 3.89543 6 5V6C6 6 6.89543 6 8 6C9.10457 6 10 6 10 6V5C10 3.89543 9.10457 3 8 3Z" />
</svg>