<svg xmlns="http://www.w3.org/2000/svg" width="16" height="16" viewBox="0 0 16 16" >
<g clip-path="url(#clip0)">
<path fill="context-fill" fill-opacity="context-fill-opacity" d="M12 6V5C12 2.79086 10.2091 1 8 1C5.79086 1 4 2.79086 4 5V6C2.89543 6 2 6.89543 2 8V14C2 15.1046 2.89543 16 4 16H6.21753C6.07352 15.7256 5.99916 15.4202 6.00001 15.111C6.00089 14.7869 6.08439 14.4673 6.24397 14.1838L6.25183 14.1701L9.89989 7.92128L10.7635 8.42546L7.11544 14.6742C7.04022 14.8079 7.00042 14.9594 7 15.1137C6.99958 15.2681 7.03855 15.4198 7.11304 15.5539C7.18752 15.688 7.29492 15.7997 7.42456 15.878C7.55419 15.9562 7.70154 15.9983 7.85194 16H12C13.1046 16 14 15.1046 14 14V11.4462L12.2365 8.42546C12.1597 8.29558 12.0516 8.1882 11.9226 8.11367C11.7936 8.03915 11.648 8 11.5 8C11.352 8 11.2064 8.03915 11.0774 8.11367C10.9484 8.1882 10.8403 8.29558 10.7635 8.42546L9.90267 7.91655C10.0658 7.64062 10.2973 7.40945 10.5772 7.24777C10.8573 7.08599 11.1752 7 11.5 7C11.8248 7 12.1428 7.08599 12.4228 7.24777C12.7027 7.40945 12.9342 7.64062 13.0973 7.91655L13.1001 7.92128L14 9.46269V8C14 6.89543 13.1046 6 12 6ZM10 6H8H6V5C6 3.89543 6.89543 3 8 3C9.10457 3 10 3.89543 10 5V6Z" />
<path d="M10.7635 8.42546L7.11544 14.6742C7.04022 14.8079 7.00042 14.9594 7 15.1137C6.99958 15.2681 7.03855 15.4198 7.11304 15.5539C7.18752 15.688 7.29492 15.7997 7.42456 15.878C7.55419 15.9562 7.70154 15.9983 7.85194 16H15.1481C15.2985 15.9983 15.4458 15.9562 15.5754 15.878C15.7051 15.7997 15.8125 15.688 15.887 15.5539C15.9614 15.4198 16.0004 15.2681 16 15.1137C15.9996 14.9594 15.9598 14.8079 15.8846 14.6742L12.2365 8.42546C12.1597 8.29558 12.0516 8.1882 11.9226 8.11367C11.7936 8.03915 11.648 8 11.5 8C11.352 8 11.2064 8.03915 11.0774 8.11367C10.9484 8.1882 10.8403 8.29558 10.7635 8.42546V8.42546Z" fill="#FFD910"/>
<path d="M11 10.5C11 10.2239 11.2239 10 11.5 10V10C11.7761 10 12 10.2239 12 10.5V12.5C12 12.7761 11.7761 13 11.5 13V13C11.2239 13 11 12.7761 11 12.5V10.5Z" fill="#171717"/>
<path d="M11 14.5C11 14.2239 11.2239 14 11.5 14V14C11.7761 14 12 14.2239 12 14.5V14.5C12 14.7761 11.7761 15 11.5 15V15C11.2239 15 11 14.7761 11 14.5V14.5Z" fill="#171717"/>
</g>
<defs>
<clipPath id="clip0">
<rect width="16" height="16" fill="white"/>
</clipPath>
</defs>
</svg>