<svg width="16" height="16" viewBox="0 0 16 16" xmlns="http://www.w3.org/2000/svg">
<path fill="context-fill" fill-opacity="context-fill-opacity" d="M5.9967 5.32355C6.20619 5.56299 6.51401 5.71422 6.85714 5.71422H14.8571C15.4883 5.71422 16 5.20254 16 4.57136C16 3.94018 15.4883 3.4285 14.8571 3.4285H6.85714C6.51401 3.4285 6.20619 3.57973 5.9967 3.81917C5.82085 4.02016 5.71429 4.28331 5.71429 4.57136C5.71429 4.8594 5.82085 5.12256 5.9967 5.32355ZM4.37878 5.49125C4.50266 5.20979 4.57143 4.8986 4.57143 4.57136C4.57143 4.24411 4.50266 3.93293 4.37878 3.65147C4.02479 2.84719 3.22083 2.28564 2.28571 2.28564C1.02335 2.28564 0 3.30899 0 4.57136C0 5.83372 1.02335 6.85707 2.28571 6.85707C3.22083 6.85707 4.02479 6.29553 4.37878 5.49125ZM1.5 4.57136C1.5 5.0053 1.85178 5.35707 2.28571 5.35707C2.71965 5.35707 3.07143 5.0053 3.07143 4.57136C3.07143 4.13742 2.71965 3.78564 2.28571 3.78564C1.85178 3.78564 1.5 4.13742 1.5 4.57136ZM10.0033 10.6763C9.79381 10.4369 9.48599 10.2856 9.14286 10.2856H1.14286C0.511675 10.2856 0 10.7973 0 11.4285C0 12.0597 0.511675 12.5714 1.14286 12.5714H9.14286C9.486 12.5714 9.79381 12.4201 10.0033 12.1807C10.1792 11.9797 10.2857 11.7165 10.2857 11.4285C10.2857 11.1405 10.1792 10.8773 10.0033 10.6763ZM11.6212 10.5086C11.4973 10.7901 11.4286 11.1013 11.4286 11.4285C11.4286 11.7557 11.4973 12.0669 11.6212 12.3484C11.9752 13.1527 12.7792 13.7142 13.7143 13.7142C14.9767 13.7142 16 12.6909 16 11.4285C16 10.1661 14.9767 9.14279 13.7143 9.14279C12.7792 9.14279 11.9752 9.70434 11.6212 10.5086ZM14.5 11.4285C14.5 10.9946 14.1482 10.6428 13.7143 10.6428C13.2803 10.6428 12.9286 10.9946 12.9286 11.4285C12.9286 11.8624 13.2803 12.2142 13.7143 12.2142C14.1482 12.2142 14.5 11.8624 14.5 11.4285Z" />
</svg>
