<svg width="16" height="16" viewBox="0 0 16 16" xmlns="http://www.w3.org/2000/svg">
<path fill="context-fill" fill-opacity="context-fill-opacity" d="M7.64389 0.399027C7.75787 0.355603 7.8786 0.333506 7.99996 0.333496C8.12132 0.333506 8.24205 0.355603 8.35603 0.399027L13.6844 2.39717C14.0747 2.54354 14.3333 2.91666 14.3333 3.3335V8.00017C14.3333 10.4466 12.7182 12.3671 11.3251 13.5861C10.6076 14.2139 9.89475 14.7035 9.36329 15.0357C9.09652 15.2024 8.87278 15.3311 8.71344 15.4193C8.63371 15.4635 8.56991 15.4976 8.52469 15.5213C8.50207 15.5332 8.48409 15.5425 8.47107 15.5491L8.45528 15.5572L8.45369 15.558C8.17242 15.7012 7.83797 15.7039 7.55275 15.5613L7.54967 15.5597L7.54623 15.558L7.54464 15.5572L7.52885 15.5491C7.51583 15.5425 7.49784 15.5332 7.47523 15.5213C7.43001 15.4976 7.36621 15.4635 7.28648 15.4193C7.12714 15.3311 6.9034 15.2024 6.63663 15.0357C6.10517 14.7035 5.39234 14.2139 4.67479 13.5861C3.28171 12.3671 1.66663 10.4466 1.66663 8.00017V3.3335C1.66663 2.91666 1.9252 2.54354 2.3155 2.39717L7.64389 0.399027ZM7.99996 0.333496C7.8786 0.333506 7.75787 0.355603 7.64389 0.399027L7.64884 0.397173C7.76269 0.354477 7.88162 0.333487 7.99996 0.333496ZM8.99996 12.8747C9.31933 12.6475 9.66446 12.3816 10.0081 12.0809C11.2817 10.9665 12.3333 9.55373 12.3333 8.00017V4.0265L8.99996 2.7765V12.8747Z" />
</svg>