<svg width="16" height="16" viewBox="0 0 16 16" xmlns="http://www.w3.org/2000/svg">
<g clip-path="url(#clip0)">
<path fill="context-fill" fill-opacity="context-fill-opacity" fill-rule="evenodd" clip-rule="evenodd" d="M7.99998 0.333496C8.11832 0.333484 8.23726 0.354474 8.35112 0.397173L12.5381 1.96729L10.9846 3.52074L9 2.7765V5.50537L2.88684 11.6185C2.18457 10.6023 1.66663 9.38558 1.66663 8.00017V3.3335C1.66663 2.91666 1.9252 2.54354 2.3155 2.39717L7.64791 0.397522L7.64884 0.397173L7.66108 0.392673L7.99998 0.333496ZM5.31187 14.1112C5.80204 14.4924 6.26393 14.8027 6.63663 15.0357C6.9034 15.2024 7.12714 15.3311 7.28648 15.4193C7.36621 15.4635 7.43001 15.4976 7.47523 15.5213C7.49784 15.5332 7.51583 15.5425 7.52885 15.5491L7.54464 15.5572L7.5476 15.5587L7.55085 15.5603L7.55275 15.5613C7.6939 15.6319 7.84711 15.6669 7.99997 15.6669C8.15283 15.6669 8.30605 15.6319 8.44721 15.5613L8.4472 15.5613L8.45225 15.5587L8.45532 15.5572L8.47111 15.5491C8.48413 15.5425 8.50211 15.5332 8.52473 15.5213C8.56995 15.4976 8.63375 15.4635 8.71348 15.4193C8.87282 15.3311 9.09656 15.2024 9.36333 15.0357C9.89479 14.7035 10.6076 14.2139 11.3251 13.5861C12.7182 12.3671 14.3333 10.4466 14.3333 8.00017V5.08975L12.3333 7.08975V8.00017C12.3333 9.55373 11.2817 10.9665 10.0081 12.0809C9.6645 12.3816 9.31937 12.6475 9 12.8747V10.4231L5.31187 14.1112ZM7.55275 15.5613C7.55291 15.5614 7.55291 15.5613 7.62076 15.4256L8 14.6668L7.55276 15.5613L7.55275 15.5613Z" />
<path d="M0.272048 15.6475C-0.118476 15.257 -0.118476 14.6238 0.272048 14.2333L13.7983 0.707084C14.1888 0.31656 14.822 0.316559 15.2125 0.707083V0.707083C15.603 1.09761 15.603 1.73077 15.2125 2.1213L1.68626 15.6475C1.29574 16.0381 0.662572 16.0381 0.272048 15.6475V15.6475Z" fill="#FF4752"/>
</g>
<defs>
<clipPath id="clip0">
<rect width="16" height="16" fill="white"/>
</clipPath>
</defs>
</svg>
