<!-- This Source Code Form is subject to the terms of the Mozilla Public
   - License, v. 2.0. If a copy of the MPL was not distributed with this
   - file, You can obtain one at http://mozilla.org/MPL/2.0/. -->
<svg width="16" height="16" viewBox="0 0 16 16" xmlns="http://www.w3.org/2000/svg">
    <path fill="context-fill" fill-opacity="context-fill-opacity" fill-rule="evenodd" clip-rule="evenodd"
        d="M8 1C8.48325 1 8.875 1.39175 8.875 1.875V6.725C8.875 6.86501 8.875 6.93502 8.90225 6.9885C8.92622 7.03554 8.96446 7.07378 9.0115 7.09775C9.06498 7.125 9.13499 7.125 9.275 7.125H14.125C14.6082 7.125 15 7.51675 15 8C15 8.48325 14.6082 8.875 14.125 8.875H9.275C9.13499 8.875 9.06498 8.875 9.0115 8.90225C8.96446 8.92622 8.92622 8.96446 8.90225 9.0115C8.875 9.06498 8.875 9.13499 8.875 9.275V14.125C8.875 14.6082 8.48325 15 8 15C7.51675 15 7.125 14.6082 7.125 14.125V9.275C7.125 9.13499 7.125 9.06498 7.09775 9.0115C7.07378 8.96446 7.03554 8.92622 6.9885 8.90225C6.93502 8.875 6.86501 8.875 6.725 8.875H1.875C1.39175 8.875 1 8.48325 1 8C1 7.51675 1.39175 7.125 1.875 7.125H6.725C6.86501 7.125 6.93502 7.125 6.9885 7.09775C7.03554 7.07378 7.07378 7.03554 7.09775 6.9885C7.125 6.93502 7.125 6.86501 7.125 6.725V1.875C7.125 1.39175 7.51675 1 8 1Z" />
</svg>