<svg width="16" height="16" viewBox="0 0 16 16" xmlns="http://www.w3.org/2000/svg">
<path fill="context-fill" fill-opacity="context-fill-opacity" fill-rule="evenodd" clip-rule="evenodd" d="M6 4.81233C5.12377 5.57571 3.99797 6.00002 2.82843 6.00002C2.3709 6.00002 2 6.37092 2 6.82845V9.1716C2 9.62912 2.3709 10 2.82843 10C3.99797 10 5.12377 10.4243 6 11.1877V4.81233ZM4.82843 3.1716L6.29289 1.70713C6.92286 1.07716 8 1.52333 8 2.41424V13.5858C8 14.4767 6.92286 14.9229 6.29289 14.2929L4.82843 12.8284C4.29799 12.298 3.57857 12 2.82843 12C1.26633 12 0 10.7337 0 9.1716V6.82845C0 5.26635 1.26633 4.00002 2.82843 4.00002C3.57857 4.00002 4.29799 3.70203 4.82843 3.1716Z"/>
<path fill="context-fill" fill-opacity="context-fill-opacity" fill-rule="evenodd" clip-rule="evenodd" d="M10.2929 5.29289C10.6834 4.90237 11.3166 4.90237 11.7071 5.29289L13 6.58579L14.2929 5.29289C14.6834 4.90237 15.3166 4.90237 15.7071 5.29289C16.0976 5.68342 16.0976 6.31658 15.7071 6.70711L14.4142 8L15.7071 9.29289C16.0976 9.68342 16.0976 10.3166 15.7071 10.7071C15.3166 11.0976 14.6834 11.0976 14.2929 10.7071L13 9.41421L11.7071 10.7071C11.3166 11.0976 10.6834 11.0976 10.2929 10.7071C9.90237 10.3166 9.90237 9.68342 10.2929 9.29289L11.5858 8L10.2929 6.70711C9.90237 6.31658 9.90237 5.68342 10.2929 5.29289Z"/>
</svg>
