<svg width="16" height="16" viewBox="0 0 16 16" xmlns="http://www.w3.org/2000/svg">
<path fill="context-fill" fill-opacity="context-fill-opacity" fill-rule="evenodd" clip-rule="evenodd" d="M10.6095 3.07941C11.1179 2.86374 11.7049 3.10108 11.9206 3.60951C12.623 5.26534 13.0062 6.64781 12.9999 8.06069C12.9937 9.47404 12.598 10.8185 11.9184 12.3957C11.6998 12.9029 11.1115 13.1369 10.6043 12.9184C10.0971 12.6998 9.86309 12.1115 10.0816 11.6043C10.7137 10.1375 10.9954 9.07893 11 8.05182C11.0045 7.02424 10.7319 5.92875 10.0794 4.39052C9.86374 3.88208 10.1011 3.29508 10.6095 3.07941Z"/>
<path fill="context-fill" fill-opacity="context-fill-opacity" fill-rule="evenodd" clip-rule="evenodd" d="M13.681 2.05229C14.2044 1.87608 14.7715 2.15755 14.9478 2.68096C15.6433 4.747 16.0062 6.41964 15.9999 8.09761C15.9937 9.7771 15.6177 11.3878 14.9448 13.3277C14.7638 13.8495 14.1941 14.1258 13.6723 13.9448C13.1505 13.7638 12.8743 13.1941 13.0553 12.6723C13.6928 10.8344 13.9948 9.45918 14 8.09012C14.0051 6.71953 13.7128 5.28107 13.0523 3.31909C12.8761 2.79567 13.1575 2.22851 13.681 2.05229Z"/>
<path fill="context-fill" fill-opacity="context-fill-opacity" fill-rule="evenodd" clip-rule="evenodd" d="M6 4.81233C5.12377 5.57571 3.99797 6.00002 2.82843 6.00002C2.3709 6.00002 2 6.37092 2 6.82845V9.1716C2 9.62912 2.3709 10 2.82843 10C3.99797 10 5.12377 10.4243 6 11.1877V4.81233ZM4.82843 3.1716L6.29289 1.70713C6.92286 1.07716 8 1.52333 8 2.41424V13.5858C8 14.4767 6.92286 14.9229 6.29289 14.2929L4.82843 12.8284C4.29799 12.298 3.57857 12 2.82843 12C1.26633 12 0 10.7337 0 9.1716V6.82845C0 5.26635 1.26633 4.00002 2.82843 4.00002C3.57857 4.00002 4.29799 3.70203 4.82843 3.1716Z"/>
</svg>
