<svg width="16" height="16" viewBox="0 0 16 16" xmlns="http://www.w3.org/2000/svg">
    <path fill="context-fill" fill-opacity="context-fill-opacity" fill-rule="evenodd" clip-rule="evenodd"
        d="M10.6275 3.64567C10.7279 3.86488 10.8815 4.0555 11.0743 4.2002C11.2671 4.34489 11.493 4.43908 11.7314 4.4742L14.7674 4.94923C15.0324 4.99236 15.2806 5.1074 15.4849 5.28184C15.6891 5.45627 15.8417 5.68342 15.9259 5.93857C16.0101 6.19372 16.0228 6.4671 15.9626 6.72897C15.9024 6.99083 15.7715 7.23116 15.5843 7.4238L13.2991 9.78789C13.1399 9.9527 13.0212 10.1522 12.9522 10.3708C12.8833 10.5893 12.866 10.8209 12.9017 11.0473L13.4316 14.3062C13.4754 14.5741 13.4436 14.8489 13.3398 15.0998C13.236 15.3506 13.0643 15.5674 12.844 15.7259C12.6237 15.8843 12.3635 15.9781 12.0929 15.9966C11.8222 16.0151 11.5517 15.9577 11.3119 15.8307L8.72863 14.3946C8.51242 14.2746 8.26928 14.2117 8.02208 14.2117C7.77488 14.2117 7.53174 14.2746 7.31553 14.3946L4.68807 15.8307C4.44826 15.9577 4.1778 16.0151 3.90713 15.9966C3.63646 15.9781 3.37633 15.8843 3.15603 15.7259C2.93573 15.5674 2.76401 15.3506 2.66019 15.0998C2.55638 14.8489 2.5246 14.5741 2.56843 14.3062L3.09834 11.0473C3.13404 10.8209 3.11672 10.5893 3.04775 10.3708C2.97879 10.1522 2.86005 9.9527 2.70091 9.78789L0.415673 7.4238C0.228459 7.23116 0.0976236 6.99083 0.0374007 6.72897C-0.0228221 6.4671 -0.0101259 6.19372 0.0741082 5.93857C0.158342 5.68342 0.310888 5.45627 0.51515 5.28184C0.719411 5.1074 0.967566 4.99236 1.23262 4.94923L4.26856 4.4742C4.50699 4.43908 4.73287 4.34489 4.92567 4.2002C5.11847 4.0555 5.27208 3.86488 5.37253 3.64567L6.67523 0.850733C6.79147 0.596891 6.97811 0.381784 7.21295 0.230976C7.44779 0.0801678 7.72096 0 8 0C8.27904 0 8.55221 0.0801678 8.78705 0.230976C9.02189 0.381784 9.20853 0.596891 9.32477 0.850733L10.6275 3.64567Z" />
</svg>