<svg width="14" height="16" viewBox="0 0 14 16" xmlns="http://www.w3.org/2000/svg">
    <path
        d="M3 4C3 3.44772 3.44772 3 4 3H10C10.5523 3 11 3.44772 11 4V6C11 6.55228 10.5523 7 10 7H4C3.44772 7 3 6.55228 3 6V4Z"
        fill="context-fill" fill-opacity="context-fill-opacity" />
    <path d="M4 8C3.44772 8 3 8.44772 3 9C3 9.55228 3.44772 10 4 10C4.55228 10 5 9.55228 5 9C5 8.44772 4.55228 8 4 8Z"
        fill="context-fill" fill-opacity="context-fill-opacity" />
    <path
        d="M6 12C6 11.4477 6.44772 11 7 11C7.55228 11 8 11.4477 8 12C8 12.5523 7.55228 13 7 13C6.44772 13 6 12.5523 6 12Z"
        fill="context-fill" fill-opacity="context-fill-opacity" />
    <path
        d="M4 11C3.44772 11 3 11.4477 3 12C3 12.5523 3.44772 13 4 13C4.55228 13 5 12.5523 5 12C5 11.4477 4.55228 11 4 11Z"
        fill="context-fill" fill-opacity="context-fill-opacity" />
    <path
        d="M9 9C9 8.44772 9.44772 8 10 8C10.5523 8 11 8.44772 11 9V12C11 12.5523 10.5523 13 10 13C9.44772 13 9 12.5523 9 12V9Z"
        fill="context-fill" fill-opacity="context-fill-opacity" />
    <path d="M7 8C6.44772 8 6 8.44772 6 9C6 9.55228 6.44772 10 7 10C7.55228 10 8 9.55228 8 9C8 8.44772 7.55228 8 7 8Z"
        fill="context-fill" fill-opacity="context-fill-opacity" />
    <path fill-rule="evenodd" clip-rule="evenodd"
        d="M0 3C0 1.34315 1.34315 0 3 0H11C12.6569 0 14 1.34315 14 3V13C14 14.6569 12.6569 16 11 16H3C1.34315 16 0 14.6569 0 13V3ZM3 2H11C11.5523 2 12 2.44772 12 3V13C12 13.5523 11.5523 14 11 14H3C2.44772 14 2 13.5523 2 13V3C2 2.44772 2.44772 2 3 2Z"
        fill="context-fill" fill-opacity="context-fill-opacity" />
</svg>