<svg width="16" height="16" viewBox="0 0 16 16" xmlns="http://www.w3.org/2000/svg">
    <path
        fill="context-fill" fill-opacity="context-fill-opacity"
        d="M3 2H13C13.5523 2 14 2.44772 14 3C14 3.55228 14.4477 4 15 4C15.5523 4 16 3.55228 16 3C16 1.34315 14.6569 0 13 0H3C1.34315 0 0 1.34315 0 3V13C0 14.6569 1.34315 16 3 16H7C7.55228 16 8 15.5523 8 15C8 14.4477 7.55228 14 7 14H3C2.44772 14 2 13.5523 2 13V3C2 2.44772 2.44772 2 3 2Z" />
    <path
        fill="context-fill" fill-opacity="context-fill-opacity"
        d="M4 3C3.44772 3 3 3.44772 3 4C3 4.55228 3.44772 5 4 5H10C10.5523 5 11 4.55228 11 4C11 3.44772 10.5523 3 10 3H4Z" />
    <path
        fill="context-fill" fill-opacity="context-fill-opacity"
        d="M3 7C3 6.44772 3.44772 6 4 6H8C8.55228 6 9 6.44772 9 7C9 7.55228 8.55228 8 8 8H4C3.44772 8 3 7.55228 3 7Z" />
    <path
        fill="context-fill" fill-opacity="context-fill-opacity"
        d="M4 9C3.44772 9 3 9.44771 3 10C3 10.5523 3.44772 11 4 11H6C6.55228 11 7 10.5523 7 10C7 9.44771 6.55228 9 6 9H4Z" />
    <path 
        fill="context-fill" fill-opacity="context-fill-opacity" 
        fill-rule="evenodd" clip-rule="evenodd"
        d="M15.1609 11.081C15.0622 11.1834 15 11.3174 15 11.4596V15.7387C15 15.9536 14.7648 16.0763 14.6 15.9474L13.15 14.8127C13.0611 14.7431 12.9389 14.7431 12.85 14.8127L11.4 15.9474C11.2352 16.0763 11 15.9536 11 15.7387V11.4596C11 11.3174 10.9378 11.1834 10.8391 11.081C10.3195 10.5416 10 9.80812 10 9C10 7.34315 11.3431 6 13 6C14.6569 6 16 7.34315 16 9C16 9.80812 15.6805 10.5416 15.1609 11.081ZM13 10C13.5523 10 14 9.55228 14 9C14 8.44772 13.5523 8 13 8C12.4477 8 12 8.44772 12 9C12 9.55228 12.4477 10 13 10Z" />
</svg>