<!-- This Source Code Form is subject to the terms of the Mozilla Public
   - License, v. 2.0. If a copy of the MPL was not distributed with this
   - file, You can obtain one at http://mozilla.org/MPL/2.0/. -->
<svg width="16" height="16" viewBox="0 0 16 16" xmlns="http://www.w3.org/2000/svg">
    <path fill="context-fill" fill-opacity="context-fill-opacity" fill-rule="evenodd" clip-rule="evenodd"
        d="M1.29289 1.29289C1.68342 0.902369 2.31658 0.902369 2.70711 1.29289L7.71716 6.30294C7.81616 6.40195 7.86566 6.45145 7.92275 6.47C7.97296 6.48631 8.02704 6.48631 8.07725 6.47C8.13434 6.45145 8.18384 6.40195 8.28284 6.30294L13.2929 1.29289C13.6834 0.902369 14.3166 0.902369 14.7071 1.29289C15.0976 1.68342 15.0976 2.31658 14.7071 2.70711L9.69706 7.71716C9.59805 7.81616 9.54855 7.86566 9.53 7.92275C9.51369 7.97296 9.51369 8.02704 9.53 8.07725C9.54855 8.13434 9.59805 8.18384 9.69706 8.28284L14.7071 13.2929C15.0976 13.6834 15.0976 14.3166 14.7071 14.7071C14.3166 15.0976 13.6834 15.0976 13.2929 14.7071L8.28284 9.69706C8.18384 9.59805 8.13434 9.54855 8.07725 9.53C8.02704 9.51369 7.97296 9.51369 7.92275 9.53C7.86566 9.54855 7.81616 9.59805 7.71716 9.69706L2.70711 14.7071C2.31658 15.0976 1.68342 15.0976 1.29289 14.7071C0.902369 14.3166 0.902369 13.6834 1.29289 13.2929L6.30294 8.28284C6.40195 8.18384 6.45145 8.13434 6.47 8.07725C6.48631 8.02704 6.48631 7.97296 6.47 7.92275C6.45145 7.86566 6.40195 7.81616 6.30294 7.71716L1.29289 2.70711C0.902369 2.31658 0.902369 1.68342 1.29289 1.29289Z" />
</svg>