<svg width="16" height="16" viewBox="0 0 16 16" xmlns="http://www.w3.org/2000/svg">
    <path fill="context-fill" fill-opacity="context-fill-opacity" fill-rule="evenodd" clip-rule="evenodd"
        d="M8.40205 15.3195C8.48054 15.4619 8.4777 15.6349 8.3953 15.7745C8.31255 15.9144 8.16231 16 8 16C3.5848 16 0 12.4151 0 7.99982C0 3.58452 3.5848 0 8 0C12.4152 0 16 3.58452 16 7.99982C16 8.35785 15.9762 8.71019 15.9307 9.05543C15.8238 9.88123 15.1202 10.4993 14.2877 10.4993C13.008 10.5 11.2527 10.5 11.2527 10.5C11.2527 10.5 11.2527 10.5 11.2527 10.5C9.45761 10.5 8 11.9573 8 13.7527C8 14.3207 8.14597 14.8549 8.40205 15.3195ZM4.10051 8.80645C4.67945 8.47222 5.42105 8.67076 5.75527 9.25007C6.08949 9.82902 5.89095 10.5706 5.31201 10.9049C4.73272 11.2395 3.99113 11.0406 3.6569 10.4616C3.32268 9.8823 3.52122 9.14103 4.10051 8.80645ZM10.8474 4.91114C10.2685 5.24537 10.0696 5.987 10.4038 6.56595C10.7384 7.14525 11.48 7.3438 12.0589 7.00957C12.6379 6.67534 12.8368 5.93371 12.5022 5.35441C12.168 4.77546 11.4264 4.57655 10.8474 4.91114ZM3.94105 4.65576C4.52034 4.32153 5.26158 4.52008 5.59615 5.09939C5.93038 5.67834 5.73184 6.41996 5.15255 6.75419C4.57361 7.08877 3.83201 6.88987 3.49779 6.31092C3.16321 5.73161 3.36211 4.98999 3.94105 4.65576ZM7.33262 2.69763C6.75332 3.03185 6.55479 3.77348 6.88901 4.35279C7.22323 4.93174 7.96483 5.13064 8.54412 4.79606C9.12306 4.46183 9.32196 3.7202 8.98738 3.14125C8.65316 2.56194 7.91155 2.3634 7.33262 2.69763Z" />
</svg>