<svg width="16" height="16" viewBox="0 0 16 16" xmlns="http://www.w3.org/2000/svg">
    <path fill-rule="evenodd" clip-rule="evenodd"
        d="M3.76825 0.359841C3.41468 -0.0644363 2.78412 -0.12176 2.35984 0.231804C1.93556 0.585368 1.87824 1.21593 2.2318 1.64021L6.70319 7.00587L4.85062 9.27011C4.43503 9.09612 3.97874 9 3.5 9C1.567 9 0 10.567 0 12.5C0 14.433 1.567 16 3.5 16C5.433 16 7 14.433 7 12.5C7 11.7725 6.77804 11.0968 6.39815 10.5371L8.00003 8.57921L9.60187 10.537C9.22197 11.0968 9 11.7725 9 12.5C9 14.433 10.567 16 12.5 16C14.433 16 16 14.433 16 12.5C16 10.567 14.433 9 12.5 9C12.0213 9 11.565 9.09611 11.1494 9.27009L9.29687 7.00587L13.7682 1.64021C14.1218 1.21593 14.0645 0.585368 13.6402 0.231804C13.2159 -0.12176 12.5854 -0.0644363 12.2318 0.359841L8.00003 5.43798L3.76825 0.359841ZM5 12.5C5 13.3284 4.32843 14 3.5 14C2.67157 14 2 13.3284 2 12.5C2 11.6716 2.67157 11 3.5 11C4.32843 11 5 11.6716 5 12.5ZM14 12.5C14 13.3284 13.3284 14 12.5 14C11.6716 14 11 13.3284 11 12.5C11 11.6716 11.6716 11 12.5 11C13.3284 11 14 11.6716 14 12.5Z"
        fill="context-fill" fill-opacity="context-fill-opacity" />
</svg>