<svg width="16" height="16" viewBox="0 0 16 16" xmlns="http://www.w3.org/2000/svg">
    <path fill="context-fill" fill-opacity="context-fill-opacity" fill-rule="evenodd" clip-rule="evenodd"
        d="M8 16C12.4183 16 16 12.4183 16 8C16 3.58172 12.4183 0 8 0C3.58172 0 0 3.58172 0 8C0 12.4183 3.58172 16 8 16ZM10.5794 13.4188C12.3139 12.5917 13.5888 10.9564 13.917 9H11.9365C11.773 10.3568 11.313 11.8025 10.7876 12.9751C10.72 13.1258 10.6505 13.274 10.5794 13.4188ZM5.42065 2.58117C3.68615 3.40827 2.41118 5.04362 2.08296 7H4.06345C4.22698 5.64318 4.68696 4.19745 5.21245 3.02489C5.27998 2.87421 5.34949 2.726 5.42065 2.58117ZM6.08141 9C6.23583 10.0278 6.59568 11.1712 7.03755 12.1572C7.33088 12.8117 7.63893 13.3482 7.90714 13.7031C7.9401 13.7467 7.9711 13.7857 8 13.8205C8.0289 13.7857 8.0599 13.7467 8.09286 13.7031C8.36107 13.3482 8.66912 12.8117 8.96245 12.1572C9.40432 11.1712 9.76417 10.0278 9.91859 9H6.08141ZM4.06345 9C4.22698 10.3568 4.68696 11.8025 5.21245 12.9751C5.27998 13.1258 5.34949 13.274 5.42065 13.4188C3.68615 12.5917 2.41118 10.9564 2.08296 9H4.06345ZM9.91859 7H6.08141C6.23583 5.97222 6.59568 4.82879 7.03755 3.84281C7.33088 3.18828 7.63893 2.65178 7.90714 2.29691C7.9401 2.2533 7.9711 2.21426 8 2.17946C8.0289 2.21426 8.0599 2.2533 8.09286 2.29691C8.36107 2.65178 8.66912 3.18828 8.96245 3.84281C9.40431 4.82879 9.76417 5.97222 9.91859 7ZM11.9365 7C11.773 5.64318 11.313 4.19745 10.7876 3.02489C10.72 2.87421 10.6505 2.726 10.5794 2.58117C12.3139 3.40827 13.5888 5.04362 13.917 7H11.9365Z" />
</svg>