<svg width="16" height="16" viewBox="0 0 16 16" xmlns="http://www.w3.org/2000/svg">
    <path
        d="M8 0C7.44772 0 7 0.447716 7 1V8.58579L4.70711 6.29289C4.31658 5.90237 3.68342 5.90237 3.29289 6.29289C2.90237 6.68342 2.90237 7.31658 3.29289 7.70711L7.29289 11.7071C7.68342 12.0976 8.31658 12.0976 8.70711 11.7071L12.7071 7.70711C13.0976 7.31658 13.0976 6.68342 12.7071 6.29289C12.3166 5.90237 11.6834 5.90237 11.2929 6.29289L9 8.58579V1C9 0.447715 8.55228 0 8 0Z"
        fill="context-fill" fill-opacity="context-fill-opacity" fill-rule="evenodd" />
    <path
        d="M13 16C14.6569 16 16 14.6569 16 13V11C16 10.4477 15.5523 10 15 10C14.4477 10 14 10.4477 14 11V13C14 13.5523 13.5523 14 13 14H3C2.44772 14 2 13.5523 2 13V11C2 10.4477 1.55229 10 1 10C0.447715 10 0 10.4477 0 11V13C0 14.6569 1.34315 16 3 16H13Z"
        fill="context-fill" fill-opacity="context-fill-opacity" fill-rule="evenodd" />
</svg>