<svg width="16" height="16" viewBox="0 0 16 16" xmlns="http://www.w3.org/2000/svg">
    <path fill-rule="evenodd" clip-rule="evenodd"
        d="M6 2H13C13.5523 2 14 2.44772 14 3V4H5V3C5 2.44772 5.44771 2 6 2ZM5 6H14V10C14 10.5523 13.5523 11 13 11H6C5.44772 11 5 10.5523 5 10V6ZM3 3C3 1.34315 4.34315 0 6 0H13C14.6569 0 16 1.34315 16 3V10C16 11.6569 14.6569 13 13 13H6C4.34315 13 3 11.6569 3 10V3Z"
        fill="context-fill" fill-opacity="context-fill-opacity" />
    <path fill-rule="evenodd" clip-rule="evenodd"
        d="M0 5C0 4.44772 0.447715 4 1 4C1.55229 4 2 4.44772 2 5V6V7V9V11V13C2 13.5523 2.44772 14 3 14H5H9H10H11C11.5523 14 12 14.4477 12 15C12 15.5523 11.5523 16 11 16H10H5H3C1.34315 16 0 14.6569 0 13V11V6V5Z"
        fill="context-fill" fill-opacity="context-fill-opacity" />
</svg>