<svg width="16" height="16" viewBox="0 0 16 16" xmlns="http://www.w3.org/2000/svg">
<path fill="context-fill" fill-opacity="context-fill-opacity" d="M4 7C5.65685 7 7 5.65685 7 4V2C7 1.44772 6.55229 1 6 1C5.44771 1 5 1.44772 5 2V4C5 4.55228 4.55228 5 4 5H2C1.44772 5 1 5.44772 1 6C1 6.55228 1.44772 7 2 7H4Z"/>
<path fill="context-fill" fill-opacity="context-fill-opacity" d="M4 9C5.65685 9 7 10.3431 7 12V14C7 14.5523 6.55229 15 6 15C5.44771 15 5 14.5523 5 14V12C5 11.4477 4.55228 11 4 11H2C1.44772 11 1 10.5523 1 10C1 9.44771 1.44772 9 2 9H4Z"/>
<path fill="context-fill" fill-opacity="context-fill-opacity" d="M9 12C9 10.3431 10.3431 9 12 9H14C14.5523 9 15 9.44771 15 10C15 10.5523 14.5523 11 14 11H12C11.4477 11 11 11.4477 11 12V14C11 14.5523 10.5523 15 10 15C9.44772 15 9 14.5523 9 14V12Z"/>
<path fill="context-fill" fill-opacity="context-fill-opacity" d="M12 7C10.3431 7 9 5.65685 9 4V2C9 1.44772 9.44772 1 10 1C10.5523 1 11 1.44772 11 2V4C11 4.55228 11.4477 5 12 5H14C14.5523 5 15 5.44772 15 6C15 6.55228 14.5523 7 14 7H12Z"/>
</svg>