<svg width="16" height="16" viewBox="0 0 16 16" xmlns="http://www.w3.org/2000/svg">
    <path fill="context-fill" fill-opacity="context-fill-opacity" fill-rule="evenodd" clip-rule="evenodd"
        d="M11 2H3C2.44772 2 2 2.44772 2 3V13C2 13.5523 2.44772 14 3 14H4C4.55228 14 5 14.4477 5 15C5 15.5523 4.55228 16 4 16H3C1.34315 16 0 14.6569 0 13V3C0 1.34315 1.34315 0 3 0H11C12.6569 0 14 1.34315 14 3V3.5C14 4.05228 13.5523 4.5 13 4.5C12.4477 4.5 12 4.05228 12 3.5V3C12 2.44772 11.5523 2 11 2ZM10.05 12.1C11.1821 12.1 12.1 11.1822 12.1 10.05C12.1 8.91782 11.1821 8 10.05 8C8.91777 8 7.99995 8.91782 7.99995 10.05C7.99995 11.1822 8.91777 12.1 10.05 12.1ZM10.05 14.1C10.8057 14.1 11.513 13.893 12.1185 13.5327L14.2929 15.7071C14.6834 16.0976 15.3166 16.0976 15.7071 15.7071C16.0976 15.3166 16.0976 14.6834 15.7071 14.2929L13.5327 12.1184C13.893 11.513 14.1 10.8057 14.1 10.05C14.1 7.81325 12.2867 6 10.05 6C7.8132 6 5.99995 7.81325 5.99995 10.05C5.99995 12.2868 7.8132 14.1 10.05 14.1Z" />
</svg>