<svg width="16" height="16" viewBox="0 0 16 16" xmlns="http://www.w3.org/2000/svg">
<path fill="context-fill" fill-opacity="context-fill-opacity" d="M4 1C2.34315 1 1 2.34315 1 4V6C1 6.55228 1.44771 7 2 7C2.55229 7 3 6.55228 3 6V4C3 3.44772 3.44772 3 4 3H6C6.55228 3 7 2.55228 7 2C7 1.44772 6.55228 1 6 1H4Z"/>
<path fill="context-fill" fill-opacity="context-fill-opacity" d="M4 15C2.34315 15 1 13.6569 1 12V10C1 9.44772 1.44771 9 2 9C2.55229 9 3 9.44772 3 10V12C3 12.5523 3.44772 13 4 13H6C6.55228 13 7 13.4477 7 14C7 14.5523 6.55228 15 6 15H4Z"/>
<path fill="context-fill" fill-opacity="context-fill-opacity" d="M15 12C15 13.6569 13.6569 15 12 15H10C9.44772 15 9 14.5523 9 14C9 13.4477 9.44772 13 10 13H12C12.5523 13 13 12.5523 13 12V10C13 9.44772 13.4477 9 14 9C14.5523 9 15 9.44772 15 10V12Z"/>
<path fill="context-fill" fill-opacity="context-fill-opacity" d="M12 1C13.6569 1 15 2.34315 15 4V6C15 6.55228 14.5523 7 14 7C13.4477 7 13 6.55228 13 6V4C13 3.44772 12.5523 3 12 3H10C9.44772 3 9 2.55228 9 2C9 1.44772 9.44772 1 10 1H12Z"/>
</svg>