<svg width="16" height="16" viewBox="0 0 16 16" xmlns="http://www.w3.org/2000/svg">
    <path fill-rule="evenodd" clip-rule="evenodd"
        d="M7.17967 10.5487C7.43629 10.3391 7.66906 10.1321 7.86155 9.95365C7.9396 9.88128 8.0604 9.88128 8.13845 9.95365C8.33094 10.1321 8.56371 10.3391 8.82032 10.5487C9.17248 10.8365 9.61209 11.1645 10.0841 11.4303C10.5024 11.6658 11.1978 12 12 12C14.2091 12 16 10.2091 16 8C16 5.79086 14.2091 4 12 4C11.1978 4 10.5024 4.33419 10.0841 4.56973C9.61209 4.83546 9.17248 5.16352 8.82032 5.45126C8.56371 5.66094 8.33094 5.86787 8.13845 6.04635C8.0604 6.11872 7.9396 6.11872 7.86155 6.04635C7.66906 5.86787 7.43629 5.66094 7.17967 5.45126C6.82752 5.16352 6.38791 4.83546 5.91595 4.56973C5.4976 4.33419 4.8022 4 4 4C1.79086 4 0 5.79086 0 8C0 10.2091 1.79086 12 4 12C4.8022 12 5.4976 11.6658 5.91595 11.4303C6.38791 11.1645 6.82752 10.8365 7.17967 10.5487ZM6.1961 8.76193C6.48814 8.50745 6.72785 8.27482 6.86737 8.13528C6.94252 8.06012 6.94252 7.93988 6.86737 7.86472C6.72785 7.72518 6.48814 7.49255 6.1961 7.23807C5.98437 7.05358 5.74512 6.85761 5.49661 6.67731C4.98382 6.30529 4.43155 6 4 6C2.89543 6 2 6.89543 2 8C2 9.10457 2.89543 10 4 10C4.43155 10 4.98382 9.69471 5.49661 9.32269C5.74512 9.14239 5.98437 8.94642 6.1961 8.76193ZM9.8039 7.23807C9.51186 7.49255 9.27215 7.72518 9.13263 7.86472C9.05748 7.93988 9.05748 8.06012 9.13263 8.13528C9.27215 8.27482 9.51186 8.50746 9.8039 8.76193C10.0156 8.94642 10.2549 9.14239 10.5034 9.32269C11.0162 9.69471 11.5684 10 12 10C13.1046 10 14 9.10457 14 8C14 6.89543 13.1046 6 12 6C11.5684 6 11.0162 6.30529 10.5034 6.67731C10.2549 6.85761 10.0156 7.05358 9.8039 7.23807Z"
        fill="context-fill" fill-opacity="context-fill-opacity" />
</svg>