<svg width="16" height="16" viewBox="0 0 16 16" xmlns="http://www.w3.org/2000/svg">
<path fill="context-fill" fill-opacity="context-fill-opacity" d="M9 12C9 12.5523 8.55228 13 8 13C7.44771 13 7 12.5523 7 12C7 11.4477 7.44771 11 8 11C8.55228 11 9 11.4477 9 12Z"/>
<path fill="context-fill" fill-opacity="context-fill-opacity" d="M11 6C11 4.34315 9.65685 3 8 3H7C6.44772 3 6 3.44772 6 4C6 4.55228 6.44772 5 7 5H8C8.55228 5 9 5.44772 9 6C9 6.55228 8.55228 7 8 7C7.44772 7 7 7.44772 7 8V9C7 9.55228 7.44772 10 8 10C8.55228 10 9 9.55228 9 9C9 8.89769 9.06494 8.80737 9.15928 8.7678C10.2405 8.31439 11 7.24589 11 6Z"/>
<path fill="context-fill" fill-opacity="context-fill-opacity" fill-rule="evenodd" clip-rule="evenodd" d="M8 16C12.4183 16 16 12.4183 16 8C16 3.58172 12.4183 0 8 0C3.58172 0 0 3.58172 0 8C0 12.4183 3.58172 16 8 16ZM8 14C11.3137 14 14 11.3137 14 8C14 4.68629 11.3137 2 8 2C4.68629 2 2 4.68629 2 8C2 11.3137 4.68629 14 8 14Z"/>
</svg>