<svg width="16" height="16" viewBox="0 0 16 16" xmlns="http://www.w3.org/2000/svg">
    <path fill="context-fill" fill-opacity="context-fill-opacity"
        d="M6.69842 0.491222C7.4474 -0.16374 8.5526 -0.16374 9.30158 0.49122L15.6508 6.04343C15.8849 6.24814 16.0034 6.53929 16 6.83101V6.84195V13.9596C16 15.0865 15.1046 16 14 16C13.0681 16 12.6022 16 12.2346 15.8478C11.7446 15.6448 11.3552 15.2554 11.1523 14.7654C11 14.3978 11 13.9319 11 13V10C11 8.89543 10.1046 8 9 8H7C5.89543 8 5 8.89543 5 10L5.00001 13C5.00001 13.9319 5.00001 14.3978 4.84777 14.7654C4.64478 15.2554 4.25543 15.6448 3.76537 15.8478C3.39783 16 2.93189 16 2.00001 16C0.895442 16 1.19209e-05 15.0865 1.03116e-05 13.9596L0 7.28727C0 6.69162 0.255126 6.1257 0.698418 5.73806L6.69842 0.491222Z" />
</svg>