<svg width="16" height="16" viewBox="0 0 16 16" xmlns="http://www.w3.org/2000/svg">
    <path fill="context-fill" fill-opacity="context-fill-opacity" fill-rule="evenodd" clip-rule="evenodd"
        d="M3 2H13C13.5523 2 14 2.44772 14 3V7C14 7.55228 14.4477 8 15 8C15.5523 8 16 7.55228 16 7V3C16 1.34315 14.6569 0 13 0H3C1.34315 0 0 1.34315 0 3V13C0 14.6569 1.34315 16 3 16H7C7.55229 16 8 15.5523 8 15C8 14.4477 7.55229 14 7 14H3C2.44772 14 2 13.5523 2 13V3C2 2.44772 2.44772 2 3 2Z" />
    <path fill="context-fill" fill-opacity="context-fill-opacity"
        d="M9.01043 9.05688L9.85997 14.6153C9.92776 15.0588 10.5673 15.1727 10.8101 14.7844L11.7116 13.343C11.7794 13.2345 11.9473 13.2287 12.0238 13.3322L13.676 15.5663C14.0107 16.0188 14.6807 16.1361 15.1727 15.8283C15.6647 15.5205 15.7922 14.9042 15.4576 14.4517L13.7976 12.2072C13.7247 12.1085 13.7891 11.9736 13.9174 11.9563L15.4725 11.7461C16.0472 11.6685 16.1971 10.9698 15.6976 10.6971L10.5411 8.14329C9.81608 7.72593 8.89137 8.27786 9.01043 9.05688Z" />
</svg>