<svg width="16" height="16" viewBox="0 0 16 16" xmlns="http://www.w3.org/2000/svg">
    <path fill-rule="evenodd" clip-rule="evenodd"
        d="M0 3C0 1.34315 1.34315 0 3 0H9C10.6569 0 12 1.34315 12 3V9C12 10.6569 10.6569 12 9 12H3C1.34315 12 0 10.6569 0 9V3ZM2.07199 8.64507C1.80581 9.29699 2.31072 10 3.04513 10C3.47574 10 3.86219 9.74821 4.01826 9.36596L4.48408 8.2251C4.49745 8.19236 4.53055 8.17079 4.56743 8.17079H7.43257C7.46945 8.17079 7.50255 8.19236 7.51592 8.2251L7.98174 9.36596C8.13781 9.74821 8.52426 10 8.95488 10C9.68928 10 10.1942 9.29699 9.92801 8.64507L7.65511 3.07837C7.54917 2.81891 7.37763 2.58837 7.15571 2.4072C6.49067 1.86427 5.50933 1.86427 4.84429 2.4072C4.62237 2.58837 4.45083 2.81891 4.34489 3.07837L2.07199 8.64507ZM5.03513 6.79876H6.96487C7.04134 6.79876 7.09534 6.72741 7.07116 6.65832L6.10628 3.90133C6.07224 3.80405 5.92776 3.80405 5.89372 3.90133L4.92884 6.65832C4.90466 6.72741 4.95866 6.79876 5.03513 6.79876Z"
        fill="context-fill" fill-opacity="context-fill-opacity" />
    <path opacity="0.5"
        d="M12 4H13C14.6569 4 16 5.34315 16 7V13C16 14.6569 14.6569 16 13 16H7C5.34315 16 4 14.6569 4 13V12H8.47403C7.94835 12.3143 7.362 12.5784 6.71641 12.795C6.38435 12.9064 6.25942 13.3469 6.44147 13.6461C6.5689 13.8556 6.81128 13.9447 7.0423 13.8627C8.00723 13.5201 8.85675 13.0875 9.60271 12.5449C9.79738 12.4032 10.0638 12.4074 10.2553 12.5533C10.9974 13.1187 11.8753 13.5642 12.9143 13.8728C13.1281 13.9364 13.3411 13.8564 13.4607 13.6682C13.6633 13.3495 13.5228 12.8462 13.1636 12.7299C12.437 12.4947 11.7905 12.1832 11.2184 11.8051C11.0067 11.6653 10.9583 11.3915 11.0689 11.1725C11.3635 10.8918 11.6011 10.5519 11.7626 10.1717C12.0421 9.71214 12.2899 9.21229 12.5057 8.66765C12.5833 8.47186 12.7704 8.33939 12.981 8.33939H13.5C13.7761 8.33939 14 8.1125 14 7.83636C14 7.56022 13.7761 7.33333 13.5 7.33333H12V4Z"
        fill="context-fill" fill-opacity="context-fill-opacity" />
</svg>