<svg width="16" height="16" viewBox="0 0 16 16" xmlns="http://www.w3.org/2000/svg">
    <path fill="context-fill" fill-opacity="context-fill-opacity" fill-rule="evenodd" clip-rule="evenodd"
        d="M8 16C12.4183 16 16 12.4183 16 8C16 3.58172 12.4183 0 8 0C3.58172 0 0 3.58172 0 8C0 12.4183 3.58172 16 8 16ZM10.2098 4.88366L6.60298 6.42946C6.47897 6.48261 6.3817 6.58361 6.33326 6.70954L5.0451 10.0588C4.88957 10.4631 5.28689 10.8605 5.69126 10.7049L9.04049 9.41676C9.16641 9.36833 9.26742 9.27106 9.32057 9.14705L10.8664 5.5402C11.0442 5.12534 10.6247 4.70587 10.2098 4.88366Z" />
</svg>