<svg width="16" height="16" viewBox="0 0 16 16" xmlns="http://www.w3.org/2000/svg">
    <path fill="context-fill" fill-opacity="context-fill-opacity" fill-rule="evenodd" clip-rule="evenodd"
        d="M7.18134 9C7.05695 9 6.95242 9.09184 6.92719 9.21365C6.59765 10.8044 5.18845 12 3.5 12C1.567 12 0 10.433 0 8.5C0 6.567 1.567 5 3.5 5C4.83992 5 6.00399 5.75295 6.59216 6.85883C6.63747 6.94404 6.72469 7 6.8212 7H14C14.5523 7 15 7.44772 15 8V10C15 10.5523 14.5523 11 14 11C13.4477 11 13 10.5523 13 10V9.25C13 9.11193 12.8881 9 12.75 9H12.3628C12.2247 9 12.1128 9.11193 12.1128 9.25V10C12.1128 10.5523 11.6651 11 11.1128 11C10.5605 11 10.1128 10.5523 10.1128 10V9.25C10.1128 9.11193 10.0009 9 9.86278 9H7.18134ZM5 8.5C5 9.32843 4.32843 10 3.5 10C2.67157 10 2 9.32843 2 8.5C2 7.67157 2.67157 7 3.5 7C4.32843 7 5 7.67157 5 8.5Z" />
</svg>