<svg width="16" height="16" viewBox="0 0 16 16" xmlns="http://www.w3.org/2000/svg">
    <path fill="context-fill" fill-opacity="context-fill-opacity" fill-rule="evenodd" clip-rule="evenodd"
        d="M10 0C10.5523 0 11 0.447715 11 1C11 1.55228 11.4477 2 12 2H15C15.5523 2 16 2.44772 16 3C16 3.55228 15.5523 4 15 4H14.25C14.1119 4 14 4.11193 14 4.25V13C14 14.6569 12.6569 16 11 16H5C3.34315 16 2 14.6569 2 13V4.25C2 4.11193 1.88807 4 1.75 4H1C0.447715 4 0 3.55228 0 3C0 2.44772 0.447715 2 1 2H4C4.55229 2 5 1.55228 5 1C5 0.447715 5.44772 0 6 0H10ZM4 4.25C4 4.11193 4.11193 4 4.25 4H11.75C11.8881 4 12 4.11193 12 4.25V13C12 13.5523 11.5523 14 11 14H5C4.44772 14 4 13.5523 4 13V4.25Z" />
</svg>