<svg width="16" height="16" viewBox="0 0 16 16" xmlns="http://www.w3.org/2000/svg">
    <path fill="context-fill" fill-opacity="context-fill-opacity"
        d="M0 4C0 1.79086 1.79086 0 4 0H5C5.55228 0 6 0.447715 6 1C6 1.55228 5.55228 2 5 2H4C2.89543 2 2 2.89543 2 4V5C2 5.55228 1.55228 6 1 6C0.447715 6 0 5.55228 0 5V4Z" />
    <path fill="context-fill" fill-opacity="context-fill-opacity"
        d="M0 12C0 14.2091 1.79086 16 4 16H5C5.55228 16 6 15.5523 6 15C6 14.4477 5.55228 14 5 14H4C2.89543 14 2 13.1046 2 12V11C2 10.4477 1.55228 10 1 10C0.447715 10 0 10.4477 0 11V12Z" />
    <path fill="context-fill" fill-opacity="context-fill-opacity"
        d="M12 16C14.2091 16 16 14.2091 16 12V11C16 10.4477 15.5523 10 15 10C14.4477 10 14 10.4477 14 11V12C14 13.1046 13.1046 14 12 14H11C10.4477 14 10 14.4477 10 15C10 15.5523 10.4477 16 11 16H12Z" />
    <path fill="context-fill" fill-opacity="context-fill-opacity"
        d="M16 4C16 1.79086 14.2091 0 12 0H11C10.4477 0 10 0.447715 10 1C10 1.55228 10.4477 2 11 2H12C13.1046 2 14 2.89543 14 4V5C14 5.55228 14.4477 6 15 6C15.5523 6 16 5.55228 16 5V4Z" />
    <path fill="context-fill" fill-opacity="context-fill-opacity"
        d="M8 5C6.34315 5 5 6.34315 5 8C5 9.65685 6.34315 11 8 11C9.65685 11 11 9.65685 11 8C11 6.34315 9.65685 5 8 5Z" />
</svg>