<svg width="16" height="16" viewBox="0 0 16 16" xmlns="http://www.w3.org/2000/svg">
    <path fill="context-fill" fill-opacity="context-fill-opacity" fill-rule="evenodd" clip-rule="evenodd"
        d="M6.0001 2C6.0001 0.895431 6.89553 0 8.0001 0C9.10467 0 10.0001 0.895431 10.0001 2C10.0001 2.20474 10.1296 2.38565 10.3181 2.46557C10.7726 2.65829 11.2094 2.90932 11.5985 3.19906C11.67 3.25226 11.7665 3.25861 11.8429 3.2128C12.8891 2.58546 14.2457 2.925 14.8731 3.97118C15.5004 5.01736 15.1609 6.37402 14.1147 7.00135C14.0055 7.06683 13.9468 7.19131 13.9608 7.31787C13.9854 7.54167 14 7.77667 14 8C14 8.27075 13.9815 8.54492 13.9458 8.81078C13.92 9.00282 14.004 9.19556 14.1697 9.29601C15.1853 9.91171 15.5095 11.2341 14.8938 12.2498C14.2781 13.2654 12.9557 13.5896 11.9401 12.9739L11.6636 12.7947C11.6384 12.7783 11.6057 12.7796 11.5818 12.7978C11.1928 13.0914 10.7685 13.3392 10.3175 13.5329C10.1292 13.6138 10.0001 13.795 10.0001 14C10.0001 15.1046 9.10467 16 8.0001 16C6.89553 16 6.0001 15.1046 6.0001 14C6.0001 13.7954 5.87035 13.6148 5.68167 13.5357C5.32438 13.3859 4.98465 13.2025 4.66644 12.9895C4.51439 12.8877 4.31706 12.8764 4.16014 12.9705C3.11396 13.5979 1.75731 13.2583 1.12997 12.2121C0.502633 11.166 0.842173 9.8093 1.88835 9.18197C2.01168 9.10802 2.07556 8.9657 2.05601 8.82324C2.01908 8.5541 2 8.27928 2 8C2 7.75759 2.01438 7.51853 2.04232 7.28364C2.06288 7.11083 1.98556 6.93912 1.83674 6.8489C0.821129 6.2332 0.496931 4.91077 1.11263 3.89515C1.72832 2.87954 3.05076 2.55535 4.06637 3.17104C4.19114 3.24668 4.34923 3.23589 4.46709 3.14989C4.84147 2.87672 5.24867 2.64585 5.68166 2.46429C5.87034 2.38518 6.0001 2.20459 6.0001 2ZM10 8C10 9.10457 9.10457 10 8 10C6.89543 10 6 9.10457 6 8C6 6.89543 6.89543 6 8 6C9.10457 6 10 6.89543 10 8Z" />
</svg>