<svg width="16" height="16" viewBox="0 0 24 24" xmlns="http://www.w3.org/2000/svg">
    <g clip-path="url(#clip0)">
        <path fill="context-fill" fill-opacity="context-fill-opacity" fill-rule="evenodd" clip-rule="evenodd"
            d="M23.5547 12.4334C24.1438 13.0159 24.1491 13.9657 23.5666 14.5547L14.6666 23.5547C14.0868 24.141 13.1427 24.1494 12.5525 23.5737L8.45252 19.5737C7.85954 18.9952 7.84782 18.0455 8.42633 17.4525C9.00484 16.8595 9.95451 16.8478 10.5475 17.4263L13.581 20.3859L21.4334 12.4453C22.0159 11.8562 22.9657 11.8509 23.5547 12.4334Z" />
        <path fill="context-fill" fill-opacity="context-fill-opacity" fill-rule="evenodd" clip-rule="evenodd"
            d="M10.3193 0.785576C10.0529 0.293776 9.53499 -0.00896302 8.97575 0.000202387C8.41651 0.00936767 7.90882 0.328916 7.65869 0.829181L3.90869 8.32918L0.158688 15.8292C-0.211796 16.5701 0.0885405 17.4712 0.829508 17.8416C1.57048 18.2121 2.47149 17.9118 2.84197 17.1708L5.42738 12H12.9819L14.1814 14.2144C14.576 14.9429 15.4863 15.2135 16.2148 14.8189C16.9432 14.4244 17.2138 13.514 16.8193 12.7856L10.3193 0.785576ZM11.3569 9L9.05355 4.74765L6.92738 9H11.3569Z" />
    </g>
    <defs>
        <clipPath id="clip0">
            <rect width="24" height="24" fill="white" />
        </clipPath>
    </defs>
</svg>