<svg width="16" height="16" viewBox="0 0 16 16" xmlns="http://www.w3.org/2000/svg">
    <path fill-rule="evenodd" clip-rule="evenodd"
        d="M16 0.999998C16 0.447715 15.5523 0 15 0C14.4478 0 14 0.447715 14 0.999998V1.65068C14 1.98795 14 2.15658 13.9435 2.22567C13.8914 2.28929 13.8247 2.31965 13.7425 2.31717C13.6533 2.31448 13.5189 2.19753 13.2502 1.96365L13.2501 1.96356C11.8451 0.740546 10.0091 0 8.00005 0C3.91975 0 0.552917 3.05471 0.0617014 7.00199C-0.00650129 7.55004 0.44777 8 1.00006 8C1.55234 8 1.99132 7.54893 2.08231 7.00419C2.55666 4.16442 5.0256 2 8.00005 2C9.97246 2 11.7226 2.95174 12.8162 4.42104L12.8168 4.42182C12.9398 4.58713 13.0014 4.66991 12.9994 4.75583C12.9977 4.8267 12.9592 4.90337 12.9033 4.94701C12.8355 5 12.725 5 12.5039 5H10C9.44777 5 9.00005 5.44772 9.00005 6C9.00005 6.55229 9.44777 7 10 7H15C15.5523 7 16 6.55229 16 6V0.999998ZM0 15C0 15.5523 0.447715 16 1 16C1.55228 16 2 15.5523 2 15V14.3493C2 14.0121 2 13.8434 2.05657 13.7743C2.10866 13.7107 2.17535 13.6804 2.25753 13.6828C2.34673 13.6855 2.48099 13.8023 2.7494 14.0359L2.74993 14.0364C4.15493 15.2595 5.99098 16 8 16C12.0803 16 15.4471 12.9453 15.9384 8.99801C16.0066 8.44996 15.5523 8 15 8C14.4477 8 14.0087 8.45108 13.9177 8.99581C13.4434 11.8356 10.9745 14 8 14C6.02759 14 4.27747 13.0483 3.18383 11.579L3.18359 11.5787C3.06032 11.413 2.99868 11.3301 3.00069 11.2442C3.00235 11.1733 3.04086 11.0966 3.09672 11.053C3.16455 11 3.27509 11 3.49619 11H6C6.55228 11 7 10.5523 7 10C7 9.44772 6.55228 9 6 9H1C0.447715 9 0 9.44772 0 10V15Z"
        fill="context-fill" fill-opacity="context-fill-opacity" />
</svg>