<svg width="72" height="72" viewBox="0 0 72 72" fill="none" xmlns="http://www.w3.org/2000/svg">
<rect width="72" height="72" fill="#1A1A1A"/>
<path d="M36 48C36 41.3726 41.3726 36 48 36H72V72H36V48Z" fill="#262626"/>
<path fill-rule="evenodd" clip-rule="evenodd" d="M18 60C21.3137 60 24 57.3137 24 54C24 50.6863 21.3137 48 18 48C14.6863 48 12 50.6863 12 54C12 57.3137 14.6863 60 18 60ZM18 62C22.4183 62 26 58.4183 26 54C26 49.5817 22.4183 46 18 46C13.5817 46 10 49.5817 10 54C10 58.4183 13.5817 62 18 62Z" fill="white" fill-opacity="0.9"/>
<path fill-rule="evenodd" clip-rule="evenodd" d="M18.7071 10.2929C19.0976 10.6834 19.0976 11.3166 18.7071 11.7071L14.0971 16.3172C13.8829 16.5314 13.7758 16.6384 13.7685 16.7304C13.7623 16.8102 13.7946 16.8881 13.8554 16.9401C13.9255 17 14.077 17 14.3799 17H25C25.5523 17 26 17.4477 26 18C26 18.5523 25.5523 19 25 19H14.3799C14.077 19 13.9255 19 13.8554 19.0599C13.7946 19.1119 13.7623 19.1898 13.7685 19.2696C13.7758 19.3616 13.8829 19.4687 14.0971 19.6828L18.7071 24.2929C19.0976 24.6834 19.0976 25.3166 18.7071 25.7071C18.3166 26.0976 17.6834 26.0976 17.2929 25.7071L10.2929 18.7071C9.90237 18.3166 9.90237 17.6834 10.2929 17.2929L17.2929 10.2929C17.6834 9.90237 18.3166 9.90237 18.7071 10.2929Z" fill="white" fill-opacity="0.9"/>
<path d="M62.0002 11C62.0002 10.4477 61.5524 10 61.0002 10C60.4479 10 60.0002 10.4477 60.0002 11V11.6507C60.0002 11.9879 60.0002 12.1566 59.9436 12.2257C59.8915 12.2893 59.8248 12.3196 59.7426 12.3172C59.6534 12.3145 59.519 12.1975 59.2502 11.9636C57.8452 10.7405 56.0092 10 54.0001 10C49.5818 10 46.0001 13.5817 46.0001 18C46.0001 22.4183 49.5818 26 54.0001 26C55.6078 26 57.1048 25.5258 58.3587 24.7096C59.2217 24.1478 58.7184 23 57.6887 23C57.4469 23 57.2123 23.0745 57.0031 23.1956C56.1199 23.7072 55.0942 24 54.0001 24C50.6864 24 48.0001 21.3137 48.0001 18C48.0001 14.6863 50.6864 12 54.0001 12C55.9725 12 57.7227 12.9517 58.8163 14.421C58.9398 14.5869 59.0015 14.6698 58.9995 14.7558C58.9978 14.8267 58.9593 14.9034 58.9034 14.947C58.8356 15 58.7251 15 58.504 15H56.0002C55.4478 15 55.0001 15.4477 55.0001 16C55.0001 16.5523 55.4478 17 56.0002 17H61.0002C61.5524 17 62.0002 16.5523 62.0002 16V11Z" fill="white" fill-opacity="0.9"/>
</svg>
