<svg width="16" height="16" viewBox="0 0 16 16" fill="none" xmlns="http://www.w3.org/2000/svg">
    <rect width="16" height="16" rx="4" fill="white" />
    <path fill-rule="evenodd" clip-rule="evenodd"
        d="M14 4.63444C14 4.68 13.9863 4.72111 13.9599 4.75889C13.9325 4.79556 13.904 4.81444 13.8712 4.81444C13.6084 4.84111 13.3921 4.93 13.2253 5.08222C13.0575 5.23333 12.8855 5.52333 12.7071 5.95L9.98417 12.41C9.96623 12.47 9.91662 12.5 9.8343 12.5C9.76992 12.5 9.72032 12.47 9.68443 12.41L8.15726 9.04778L6.40106 12.41C6.36517 12.47 6.31557 12.5 6.25119 12.5C6.17309 12.5 6.12137 12.47 6.09604 12.41L3.42058 5.95C3.25383 5.54889 3.07757 5.26889 2.89182 5.11C2.70712 4.95111 2.44855 4.85222 2.11821 4.81444C2.08971 4.81444 2.06227 4.79889 2.03799 4.76667C2.01266 4.73556 2 4.69889 2 4.65778C2 4.55222 2.0285 4.5 2.08549 4.5C2.32401 4.5 2.57309 4.51111 2.83377 4.53333C3.07546 4.55667 3.30343 4.56778 3.51662 4.56778C3.73404 4.56778 3.9905 4.55667 4.28602 4.53333C4.59525 4.51111 4.86966 4.5 5.10818 4.5C5.16517 4.5 5.19367 4.55222 5.19367 4.65778C5.19367 4.76222 5.17573 4.81444 5.1409 4.81444C4.90237 4.83333 4.71451 4.89778 4.57731 5.00556C4.44011 5.11444 4.3715 5.25667 4.3715 5.43333C4.3715 5.52333 4.4 5.63556 4.45699 5.77L6.66807 11.0267L7.92296 8.53111L6.75356 5.95C6.54354 5.49 6.37045 5.19222 6.23536 5.05889C6.10026 4.92667 5.89551 4.84444 5.62111 4.81444C5.59578 4.81444 5.57256 4.79889 5.54934 4.76667C5.52612 4.73556 5.51451 4.69889 5.51451 4.65778C5.51451 4.55222 5.53879 4.5 5.58945 4.5C5.82797 4.5 6.04644 4.51111 6.24591 4.53333C6.43799 4.55667 6.64274 4.56778 6.86016 4.56778C7.07335 4.56778 7.29921 4.55667 7.53773 4.53333C7.78364 4.51111 8.02533 4.5 8.26385 4.5C8.32084 4.5 8.34934 4.55222 8.34934 4.65778C8.34934 4.76222 8.33245 4.81444 8.29657 4.81444C7.81952 4.84889 7.581 4.99111 7.581 5.24222C7.581 5.35444 7.63588 5.52889 7.7467 5.76444L8.52032 7.41778L9.28971 5.90556C9.39631 5.69222 9.45013 5.51222 9.45013 5.36556C9.45013 5.02111 9.21161 4.83778 8.73456 4.81444C8.69129 4.81444 8.67018 4.76222 8.67018 4.65778C8.67018 4.62 8.68074 4.58444 8.70185 4.55111C8.72401 4.51667 8.74512 4.5 8.76623 4.5C8.9372 4.5 9.14723 4.51111 9.39631 4.53333C9.63483 4.55667 9.83114 4.56778 9.98417 4.56778C10.0939 4.56778 10.2565 4.55778 10.4697 4.53889C10.7398 4.51333 10.9668 4.5 11.1483 4.5C11.1905 4.5 11.2116 4.54444 11.2116 4.63444C11.2116 4.75444 11.1726 4.81444 11.0945 4.81444C10.8169 4.84444 10.5931 4.92556 10.4243 5.05667C10.2554 5.18778 10.0443 5.48556 9.79208 5.95L8.76623 7.94667L10.1551 10.9256L12.2058 5.90556C12.2765 5.72222 12.3124 5.55333 12.3124 5.4C12.3124 5.03222 12.0739 4.83778 11.5968 4.81444C11.5536 4.81444 11.5325 4.76222 11.5325 4.65778C11.5325 4.55222 11.5641 4.5 11.6285 4.5C11.8026 4.5 12.0095 4.51111 12.248 4.53333C12.4686 4.55667 12.6544 4.56778 12.8032 4.56778C12.9604 4.56778 13.142 4.55667 13.3478 4.53333C13.562 4.51111 13.7541 4.5 13.9251 4.5C13.9747 4.5 14 4.54444 14 4.63444Z"
        fill="black" />
</svg>