<svg width="16" height="16" viewBox="0 0 16 16" fill="none" xmlns="http://www.w3.org/2000/svg">
<g clip-path="url(#clip0)">
<path d="M3.625 0.375H9.15887L14.625 5.75703L14.625 15.625H2.375V1.6V0.375H3.625Z" stroke="black" stroke-width="0.75"/>
<mask id="path-2-inside-1" fill="white">
<path d="M8.3125 0V6H14.5"/>
</mask>
<path d="M9.0625 0C9.0625 -0.414214 8.72671 -0.75 8.3125 -0.75C7.89829 -0.75 7.5625 -0.414214 7.5625 0H9.0625ZM8.3125 6H7.5625C7.5625 6.41421 7.89829 6.75 8.3125 6.75V6ZM14.5 6.75C14.9142 6.75 15.25 6.41421 15.25 6C15.25 5.58579 14.9142 5.25 14.5 5.25V6.75ZM7.5625 0V6H9.0625V0H7.5625ZM8.3125 6.75H14.5V5.25H8.3125V6.75Z" fill="black" mask="url(#path-2-inside-1)"/>
</g>
<defs>
<clipPath id="clip0">
<rect width="16" height="16" fill="white"/>
</clipPath>
</defs>
</svg>
