<svg width="16" height="16" viewBox="0 0 16 16" xmlns="http://www.w3.org/2000/svg">
<g clip-path="url(#clip0)">
<path fill="context-fill" fill-opacity="context-fill-opacity" d="M3.87456 3.55743C4.79446 2.70426 5.95937 2.19001 7.19429 2.08802C8.42949 1.98599 9.67567 2.30142 10.7446 2.99467C11.2104 3.29682 11.6803 3.65155 12.0797 3.97194L11.7733 4.04343C11.062 4.11224 10.8382 4.27245 10.698 4.49759C10.5578 4.72272 10.5127 4.99432 10.5728 5.25266C10.6329 5.51098 10.7931 5.73487 11.0182 5.87506C11.2433 6.01526 11.5149 6.06029 11.7733 6.00023L14.5921 5.44119C14.8504 5.38114 15.0743 5.2209 15.2145 4.99578C15.3546 4.77066 15.3997 4.49904 15.3396 4.24072L14.5386 0.801393C14.4786 0.543062 14.3183 0.319183 14.0932 0.178977C13.8681 0.0387697 13.5965 -0.0062421 13.3382 0.0538112C13.0798 0.113865 12.8559 0.274092 12.7157 0.499216C12.5755 0.724362 12.5305 0.995953 12.5906 1.25428L12.7575 1.96611C12.4646 1.74623 12.1509 1.52292 11.8329 1.31669C10.3999 0.387267 8.71431 -0.0443411 7.02966 0.0948027C5.3447 0.233972 3.75987 0.936033 2.51453 2.09102C1.26978 3.24546 0.434246 4.78698 0.125848 6.47894C-0.182473 8.17047 0.0515336 9.92592 0.791234 11.483C1.53104 13.0403 2.73967 14.3209 4.24123 15.127C5.74352 15.9335 7.45714 16.2208 9.12329 15.9384C10.7896 15.6561 12.31 14.8208 13.456 13.5636C13.4748 13.543 13.4928 13.5216 13.5098 13.4995L13.5106 13.4984L13.5125 13.4958L13.5199 13.4862L13.5471 13.4508C13.5704 13.4201 13.6039 13.3761 13.6453 13.3214C13.7278 13.2121 13.8419 13.0601 13.9683 12.8885C14.2151 12.5532 14.5286 12.1161 14.738 11.7799C15.03 11.3111 14.8866 10.6943 14.4178 10.4024C13.949 10.1105 13.3322 10.2539 13.0403 10.7227C12.8759 10.9866 12.6034 11.3689 12.3576 11.7029C12.2376 11.8659 12.1287 12.011 12.0499 12.1152C12.0105 12.1673 11.9788 12.209 11.957 12.2375L11.9501 12.2466C11.1047 13.1607 9.99642 13.762 8.78918 13.9666C7.56845 14.1734 6.30452 13.9647 5.18726 13.3649C4.06927 12.7647 3.15825 11.8046 2.59775 10.6248C2.03715 9.44472 1.86063 8.11478 2.09342 6.83758C2.32615 5.56083 2.95406 4.41113 3.87456 3.55743Z" />
<path fill="context-fill" fill-opacity="context-fill-opacity" d="M5.00002 5.71005C5.00002 4.94522 5.82368 4.46351 6.49029 4.83847L11.4506 7.62862C12.1302 8.01093 12.1302 8.98947 11.4506 9.37178L6.49029 12.1619C5.82368 12.5369 5.00002 12.0552 5.00002 11.2904V5.71005Z" />
<path fill="context-fill" fill-opacity="context-fill-opacity" fill-rule="evenodd" clip-rule="evenodd" d="M6.33336 6.28V10.7204L10.2804 8.5002L6.33336 6.28ZM6.49029 4.83847C5.82368 4.46351 5.00002 4.94522 5.00002 5.71005V11.2904C5.00002 12.0552 5.82368 12.5369 6.49029 12.1619L11.4506 9.37178C12.1302 8.98947 12.1302 8.01093 11.4506 7.62862L6.49029 4.83847Z" />
</g>
<defs>
<clipPath id="clip0">
<rect width="16" height="16" fill="white"/>
</clipPath>
</defs>
</svg>
