<svg width="16" height="16" viewBox="0 0 16 16" xmlns="http://www.w3.org/2000/svg">
<g clip-path="url(#clip0)">
<path fill="context-fill" fill-opacity="context-fill-opacity" d="M3.87456 3.55743C4.79446 2.70426 5.95937 2.19001 7.19429 2.08802C8.42949 1.98599 9.67567 2.30142 10.7446 2.99467C10.8591 3.06893 10.9738 3.14636 11.0877 3.22568L12.5216 1.79174C12.2988 1.62959 12.067 1.46851 11.8329 1.31669C10.3999 0.387267 8.71431 -0.0443411 7.02966 0.0948027C5.3447 0.233972 3.75987 0.936033 2.51453 2.09102C1.26978 3.24546 0.434246 4.78698 0.125848 6.47894C-0.182473 8.17047 0.0515336 9.92592 0.791234 11.483C1.00591 11.9349 1.26007 12.3635 1.5494 12.764L2.98795 11.3254C2.84382 11.102 2.71333 10.8681 2.59775 10.6248C2.03715 9.44472 1.86063 8.11478 2.09342 6.83758C2.32615 5.56083 2.95406 4.41113 3.87456 3.55743Z" />
<path fill="context-fill" fill-opacity="context-fill-opacity" d="M5.61684 13.5732L4.12612 15.0639C4.16429 15.0853 4.20267 15.1063 4.24123 15.127C5.74352 15.9335 7.45714 16.2208 9.12329 15.9384C10.7896 15.6561 12.31 14.8208 13.456 13.5636C13.4748 13.543 13.4928 13.5216 13.5098 13.4995L13.5106 13.4984L13.5125 13.4958L13.5199 13.4862L13.5471 13.4508C13.5704 13.4201 13.6039 13.3761 13.6453 13.3214C13.7278 13.2121 13.8419 13.0601 13.9683 12.8885C14.2151 12.5532 14.5286 12.1161 14.738 11.7799C15.03 11.3111 14.8866 10.6943 14.4178 10.4024C13.949 10.1105 13.3322 10.2539 13.0403 10.7227C12.8759 10.9866 12.6034 11.3689 12.3576 11.7029C12.2376 11.8659 12.1287 12.011 12.0499 12.1152C12.0105 12.1673 11.9788 12.209 11.957 12.2375L11.9501 12.2466C11.1047 13.1607 9.99642 13.762 8.78918 13.9666C7.72249 14.1473 6.62282 14.0107 5.61684 13.5732Z" />
<path fill="context-fill" fill-opacity="context-fill-opacity" d="M7.71961 11.4704L11.5193 7.67079C12.1294 8.07852 12.1065 9.00282 11.4506 9.37178L7.71961 11.4704Z" />
<path fill="context-fill" fill-opacity="context-fill-opacity" d="M8.40043 5.91293L5.00002 9.31333V5.71005C5.00002 4.94522 5.82368 4.46351 6.49029 4.83847L8.40043 5.91293Z" />
<path fill="context-fill" fill-opacity="context-fill-opacity" d="M13.5403 5.64979L14.5921 5.44119C14.8504 5.38114 15.0743 5.2209 15.2145 4.99578C15.3546 4.77066 15.3997 4.49904 15.3396 4.24072L15.2659 3.92413L13.5403 5.64979Z" />
<path fill="context-fill" fill-opacity="context-fill-opacity" d="M14.3173 0.3695C14.253 0.295949 14.1777 0.231575 14.0932 0.178977C13.8681 0.0387697 13.5965 -0.0062421 13.3382 0.0538112C13.0798 0.113865 12.8559 0.274092 12.7157 0.499216C12.5755 0.724362 12.5305 0.995953 12.5906 1.25428L12.6796 1.63379L13.4819 0.831482C13.7203 0.593074 14.0111 0.439081 14.3173 0.3695Z" />
<rect x="-0.268188" y="14.5815" width="21.1697" height="2" rx="1" transform="rotate(-45 -0.268188 14.5815)" fill="#EF3F56"/>
</g>
<defs>
<clipPath id="clip0">
<rect width="16" height="16" fill="white"/>
</clipPath>
</defs>
</svg>
