<svg width="16" height="16" viewBox="0 0 16 16" xmlns="http://www.w3.org/2000/svg">
<g clip-path="url(#clip0)">
<path fill="context-fill" fill-opacity="context-fill-opacity" d="M6.19004 13H9C10.1046 13 11 12.1046 11 11V9.875L15.6175 12.7609C15.784 12.865 16 12.7453 16 12.5489V3.45106C16 3.37659 15.9689 3.31315 15.9213 3.26876L6.19004 13Z" />
<path fill="context-fill" fill-opacity="context-fill-opacity" d="M10.5622 3.75112C10.1957 3.29325 9.63211 3 9 3H2C0.895431 3 0 3.89543 0 5V11C0 11.8969 0.590389 12.6559 1.40374 12.9096L10.5622 3.75112Z" />
<rect x="-0.268188" y="14.5815" width="21.1697" height="2" rx="1" transform="rotate(-45 -0.268188 14.5815)" fill="#EF3F56"/>
</g>
<defs>
<clipPath id="clip0">
<rect width="16" height="16" fill="white"/>
</clipPath>
</defs>
</svg>
