<svg width="16" height="16" viewBox="0 0 16 16" xmlns="http://www.w3.org/2000/svg">
<path fill="context-fill" fill-opacity="context-fill-opacity" fill-rule="evenodd" clip-rule="evenodd" d="M2.55556 1.75C2.11066 1.75 1.75 2.11066 1.75 2.55556V13.4444C1.75 13.7962 1.97547 14.0953 2.28977 14.2051L10.5808 5.91393C10.7215 5.77327 10.9122 5.69426 11.1112 5.69425C11.3101 5.69425 11.5008 5.77327 11.6415 5.91392L14.25 8.52244V2.55556C14.25 2.11066 13.8893 1.75 13.4444 1.75H2.55556ZM15.75 10.3247V2.55556C15.75 1.28223 14.7178 0.25 13.4444 0.25H2.55556C1.28223 0.25 0.25 1.28223 0.25 2.55556V13.4444C0.25 14.7178 1.28223 15.75 2.55556 15.75H13.4444C14.7178 15.75 15.75 14.7178 15.75 13.4444V10.3416C15.7501 10.336 15.7501 10.3303 15.75 10.3247ZM14.25 10.6438L11.1112 7.50492L4.36619 14.25H13.4444C13.8893 14.25 14.25 13.8893 14.25 13.4444V10.6438ZM5.5 4.75C5.08579 4.75 4.75 5.08579 4.75 5.5C4.75 5.91421 5.08579 6.25 5.5 6.25C5.91421 6.25 6.25 5.91421 6.25 5.5C6.25 5.08579 5.91421 4.75 5.5 4.75ZM3.25 5.5C3.25 4.25736 4.25736 3.25 5.5 3.25C6.74264 3.25 7.75 4.25736 7.75 5.5C7.75 6.74264 6.74264 7.75 5.5 7.75C4.25736 7.75 3.25 6.74264 3.25 5.5Z" />
</svg>
