<svg width="16" height="16" viewBox="0 0 16 16" xmlns="http://www.w3.org/2000/svg">
<g clip-path="url(#clip0)">
<path fill="context-fill" fill-opacity="context-fill-opacity" d="M1.75 2.55556C1.75 2.11066 2.11066 1.75 2.55556 1.75H12.5634L13.4819 0.831482C13.6993 0.614035 13.9604 0.466811 14.2369 0.38981C13.9898 0.299361 13.7229 0.25 13.4444 0.25H2.55556C1.28223 0.25 0.25 1.28223 0.25 2.55556V13.4444C0.25 13.7845 0.323601 14.1073 0.455741 14.3978C0.496029 14.0197 0.66111 13.6522 0.950984 13.3624L1.75 12.5634V2.55556Z" />
<path fill="context-fill" fill-opacity="context-fill-opacity" d="M12.4588 6.73125L11.3981 7.79191L14.25 10.6438V13.4444C14.25 13.8893 13.8893 14.25 13.4444 14.25H4.94004L3.44004 15.75H13.4444C14.7178 15.75 15.75 14.7178 15.75 13.4444V10.346C15.7501 10.3375 15.7501 10.329 15.75 10.3204V3.44004L14.25 4.94004V8.52246L12.4588 6.73125Z" />
<path fill="context-fill" fill-opacity="context-fill-opacity" fill-rule="evenodd" clip-rule="evenodd" d="M5.5 3.25C4.25736 3.25 3.25 4.25736 3.25 5.5C3.25 6.74264 4.25736 7.75 5.5 7.75C6.74264 7.75 7.75 6.74264 7.75 5.5C7.75 4.25736 6.74264 3.25 5.5 3.25ZM4.75 5.5C4.75 5.08579 5.08579 4.75 5.5 4.75C5.91421 4.75 6.25 5.08579 6.25 5.5C6.25 5.91421 5.91421 6.25 5.5 6.25C5.08579 6.25 4.75 5.91421 4.75 5.5Z" />
<rect x="-0.268188" y="14.5815" width="21.1697" height="2" rx="1" transform="rotate(-45 -0.268188 14.5815)" fill="#EF3F56"/>
</g>
<defs>
<clipPath id="clip0">
<rect width="16" height="16" fill="white"/>
</clipPath>
</defs>
</svg>
