<svg width="16" height="16" viewBox="0 0 16 16" xmlns="http://www.w3.org/2000/svg">
<g clip-path="url(#clip0)">
<path fill="context-fill" fill-opacity="context-fill-opacity" d="M7.99998 0.25C6.72802 0.25 5.51605 0.780984 4.6284 1.71318C3.74194 2.64413 3.24998 3.89927 3.24998 5.20076C3.24998 7.54662 2.7721 9.00074 2.3344 9.84347C2.11475 10.2664 1.90172 10.5422 1.75559 10.7042C1.68233 10.7854 1.62533 10.8386 1.59199 10.8678C1.5753 10.8824 1.5645 10.891 1.5605 10.8941C1.29938 11.0832 1.18747 11.4191 1.28468 11.7274C1.38311 12.0396 1.67264 12.2519 1.99998 12.2519H2.06143L3.56143 10.7519H3.54782C3.58708 10.6826 3.62638 10.6103 3.66556 10.5349C4.22785 9.45224 4.74998 7.75579 4.74998 5.20076C4.74998 4.27403 5.10087 3.39221 5.7147 2.74757C6.32735 2.10417 7.15021 1.75 7.99998 1.75C8.84975 1.75 9.67261 2.10417 10.2853 2.74757C10.4968 2.96974 10.6771 3.22008 10.8226 3.49072L11.9156 2.39776C11.7555 2.15489 11.5738 1.9256 11.3716 1.71318C10.4839 0.780984 9.27194 0.25 7.99998 0.25Z" />
<path fill="context-fill" fill-opacity="context-fill-opacity" d="M12.7944 6.39561L11.4476 7.74242C11.6503 8.95013 11.9846 9.8613 12.3344 10.5349C12.3736 10.6103 12.4129 10.6826 12.4521 10.7519H8.43812L6.93812 12.2519H14C14.3273 12.2519 14.6168 12.0396 14.7153 11.7274C14.8125 11.4191 14.7011 11.0836 14.44 10.8945C14.436 10.8914 14.4247 10.8824 14.408 10.8678C14.3746 10.8386 14.3176 10.7854 14.2444 10.7042C14.0982 10.5422 13.8852 10.2664 13.6656 9.84347C13.3076 9.15424 12.9227 8.05608 12.7944 6.39561Z" />
<path fill="context-fill" fill-opacity="context-fill-opacity" d="M7.50313 13.9401C7.30286 13.5775 6.84657 13.446 6.484 13.6462C6.12142 13.8465 5.98984 14.3028 6.19012 14.6654C6.36915 14.9895 6.62868 15.2631 6.94629 15.4552C7.26422 15.6475 7.6277 15.7504 7.99996 15.7504C8.37222 15.7504 8.73569 15.6475 9.05362 15.4552C9.37123 15.2631 9.63076 14.9895 9.8098 14.6654C10.0101 14.3028 9.8785 13.8465 9.51592 13.6462C9.15334 13.446 8.69706 13.5775 8.49678 13.9401C8.44141 14.0404 8.36447 14.119 8.27726 14.1718C8.19037 14.2243 8.09487 14.2504 7.99996 14.2504C7.90504 14.2504 7.80954 14.2243 7.72265 14.1718C7.63544 14.119 7.55851 14.0404 7.50313 13.9401Z" />
<rect x="-0.268188" y="14.5815" width="21.1697" height="2" rx="1" transform="rotate(-45 -0.268188 14.5815)" fill="#EF3F56"/>
</g>
<defs>
<clipPath id="clip0">
<rect width="16" height="16" fill="white"/>
</clipPath>
</defs>
</svg>
