<svg width="16" height="16" viewBox="0 0 16 16" xmlns="http://www.w3.org/2000/svg">
<path fill="context-fill" fill-opacity="context-fill-opacity" fill-rule="evenodd" clip-rule="evenodd" d="M4.62848 1.71318C5.51612 0.780984 6.7281 0.25 8.00005 0.25C9.27201 0.25 10.484 0.780984 11.3716 1.71318C12.2581 2.64413 12.7501 3.89927 12.7501 5.20076C12.7501 7.54662 13.2279 9.00074 13.6656 9.84347C13.8853 10.2664 14.0983 10.5422 14.2444 10.7042C14.3177 10.7854 14.3747 10.8386 14.408 10.8678C14.4247 10.8824 14.4355 10.891 14.4395 10.8941C14.4397 10.8943 14.4399 10.8944 14.44 10.8945C14.7012 11.0836 14.8126 11.4191 14.7153 11.7274C14.6169 12.0396 14.3274 12.2519 14.0001 12.2519H2.00005C1.67271 12.2519 1.38319 12.0396 1.28476 11.7274C1.18755 11.4191 1.29894 11.0836 1.56006 10.8945C1.56022 10.8944 1.56039 10.8943 1.56058 10.8941C1.56457 10.891 1.57538 10.8824 1.59206 10.8678C1.62541 10.8386 1.6824 10.7854 1.75566 10.7042C1.9018 10.5422 2.11483 10.2664 2.33447 9.84347C2.77218 9.00074 3.25005 7.54662 3.25005 5.20076C3.25005 3.89927 3.74202 2.64413 4.62848 1.71318ZM12.4522 10.7519C12.413 10.6826 12.3737 10.6103 12.3345 10.5349C11.7722 9.45224 11.2501 7.75579 11.2501 5.20076C11.2501 4.27403 10.8992 3.39221 10.2853 2.74757C9.67269 2.10417 8.84983 1.75 8.00005 1.75C7.15028 1.75 6.32742 2.10417 5.71478 2.74757C5.10094 3.39221 4.75005 4.27403 4.75005 5.20076C4.75005 7.75579 4.22793 9.45224 3.66563 10.5349C3.62646 10.6103 3.58715 10.6826 3.54789 10.7519H12.4522ZM6.48407 13.6462C6.84665 13.446 7.30293 13.5775 7.50321 13.9401C7.55858 14.0404 7.63552 14.119 7.72273 14.1718C7.80962 14.2243 7.90512 14.2504 8.00003 14.2504C8.09494 14.2504 8.19045 14.2243 8.27734 14.1718C8.36455 14.119 8.44148 14.0404 8.49686 13.9401C8.69713 13.5775 9.15341 13.446 9.51599 13.6462C9.87857 13.8465 10.0101 14.3028 9.80987 14.6654C9.63083 14.9895 9.37131 15.2631 9.0537 15.4552C8.73576 15.6475 8.37229 15.7504 8.00003 15.7504C7.62777 15.7504 7.2643 15.6475 6.94637 15.4552C6.62876 15.2631 6.36923 14.9895 6.19019 14.6654C5.98992 14.3028 6.12149 13.8465 6.48407 13.6462Z" />
</svg>
