<svg width="16" height="16" viewBox="0 0 16 16" xmlns="http://www.w3.org/2000/svg">
<g clip-path="url(#clip0)">
<rect x="-0.435059" y="14.9404" width="21.129" height="2" rx="1" transform="rotate(-45 -0.435059 14.9404)" fill="#FF4752"/>
<path fill="context-fill" fill-opacity="context-fill-opacity" fill-rule="evenodd" clip-rule="evenodd" d="M3.41967 15.9145C3.60334 15.9701 3.79818 16 4 16H12C13.1046 16 14 15.1046 14 14V8C14 7.27709 13.6165 6.64376 13.0418 6.2924L3.41967 15.9145ZM11.482 3.02987C10.7947 1.81781 9.49286 1 8 1C5.79086 1 4 2.79086 4 5V6C2.89543 6 2 6.89543 2 8V12.5118L8.51184 6H6V5C6 3.89543 6.89543 3 8 3C8.95351 3 9.75118 3.66727 9.95152 4.56032L11.482 3.02987Z" />
</g>
<defs>
<clipPath id="clip0">
<rect width="16" height="16" fill="white"/>
</clipPath>
</defs>
</svg>
