<svg width="16" height="16" viewBox="0 0 16 16" xmlns="http://www.w3.org/2000/svg">
<path fill="context-fill" fill-opacity="context-fill-opacity" fill-rule="evenodd" clip-rule="evenodd" d="M2.75 3.1C2.75008 3.10056 2.75042 3.10278 2.75127 3.10571C2.75293 3.11145 2.75749 3.12438 2.76936 3.14468C2.79427 3.18729 2.84704 3.25468 2.94965 3.33959C3.15946 3.51321 3.50817 3.7031 4.00512 3.87703C4.99211 4.22248 6.40448 4.45 8 4.45C9.59552 4.45 11.0079 4.22248 11.9949 3.87703C12.4918 3.7031 12.8405 3.51321 13.0503 3.33959C13.153 3.25468 13.2057 3.18729 13.2306 3.14468C13.2425 3.12438 13.2471 3.11145 13.2487 3.10571C13.2496 3.10278 13.2499 3.10112 13.2499 3.10057V3.09943C13.2499 3.09888 13.2496 3.09722 13.2487 3.09429C13.2471 3.08855 13.2425 3.07562 13.2306 3.05532C13.2057 3.01271 13.153 2.94532 13.0503 2.86041C12.8405 2.68679 12.4918 2.4969 11.9949 2.32297C11.0079 1.97752 9.59552 1.75 8 1.75C6.40448 1.75 4.99211 1.97752 4.00512 2.32297C3.50817 2.4969 3.15946 2.68679 2.94965 2.86041C2.84704 2.94532 2.79427 3.01271 2.76936 3.05532C2.75749 3.07562 2.75293 3.08855 2.75127 3.09429C2.75042 3.09722 2.75008 3.09944 2.75 3.1ZM13.25 4.97581C13.0136 5.09377 12.7581 5.19913 12.4904 5.29282C11.3058 5.70742 9.71819 5.95 8 5.95C6.28181 5.95 4.69418 5.70742 3.5096 5.29282C3.24193 5.19913 2.98642 5.09377 2.75 4.97581V7.99983L2.75014 8.00151C2.75027 8.0024 2.7506 8.00434 2.75151 8.0075C2.75329 8.01368 2.75795 8.02686 2.76976 8.04721C2.79452 8.08987 2.8468 8.15706 2.94845 8.24164C3.1564 8.41466 3.50275 8.60416 3.9981 8.7778C4.98198 9.12269 6.39403 9.34983 8 9.34983C9.60597 9.34983 11.018 9.12269 12.0019 8.7778C12.4972 8.60416 12.8436 8.41466 13.0516 8.24164C13.1532 8.15706 13.2055 8.08987 13.2302 8.04721C13.2421 8.02686 13.2467 8.01368 13.2485 8.0075C13.2494 8.00434 13.2497 8.0024 13.2499 8.00151L13.25 7.99983V4.97581ZM14.75 3.1C14.75 2.49736 14.3993 2.02968 14.0066 1.70476C13.6092 1.3759 13.0792 1.11327 12.4904 0.907182C11.3058 0.492576 9.71819 0.25 8 0.25C6.28181 0.25 4.69418 0.492576 3.5096 0.907182C2.92077 1.11327 2.39079 1.3759 1.99337 1.70476C1.60071 2.02968 1.25 2.49736 1.25 3.1V12.9C1.25 13.5007 1.59678 13.9685 1.98905 14.2949C2.38527 14.6245 2.91392 14.8874 3.5019 15.0935C4.68468 15.5081 6.27263 15.75 8 15.75C9.72737 15.75 11.3153 15.5081 12.4981 15.0935C13.0861 14.8874 13.6147 14.6245 14.0109 14.2949C14.4032 13.9685 14.75 13.5007 14.75 12.9V3.1ZM13.25 9.87929C13.0159 9.99611 12.763 10.1005 12.4981 10.1934C11.3153 10.608 9.72737 10.8498 8 10.8498C6.27263 10.8498 4.68468 10.608 3.5019 10.1934C3.23699 10.1005 2.98413 9.99611 2.75 9.87929V12.9L2.75014 12.9017C2.75027 12.9026 2.7506 12.9045 2.75151 12.9077C2.75329 12.9139 2.75795 12.927 2.76976 12.9474C2.79452 12.99 2.8468 13.0572 2.94845 13.1418C3.1564 13.3148 3.50275 13.5043 3.9981 13.678C4.98198 14.0229 6.39403 14.25 8 14.25C9.60597 14.25 11.018 14.0229 12.0019 13.678C12.4972 13.5043 12.8436 13.3148 13.0516 13.1418C13.1532 13.0572 13.2055 12.99 13.2302 12.9474C13.2421 12.927 13.2467 12.9139 13.2485 12.9077C13.2494 12.9045 13.2497 12.9026 13.2499 12.9017L13.25 12.9V9.87929Z" />
</svg>
