<svg width="16" height="16" viewBox="0 0 16 16" xmlns="http://www.w3.org/2000/svg">
<g clip-path="url(#clip0)">
<path fill="context-fill" fill-opacity="context-fill-opacity" fill-rule="evenodd" clip-rule="evenodd" d="M5.85383 1.02699C6.38585 0.524984 7.09858 0.25 7.83327 0.25C8.56796 0.25 9.28069 0.524983 9.81271 1.02699C10.3462 1.53038 10.6547 2.22276 10.6547 2.95457V8.16675C10.6547 8.89856 10.3462 9.59093 9.81271 10.0943C9.28069 10.5963 8.56796 10.8713 7.83327 10.8713C7.09858 10.8713 6.38585 10.5963 5.85383 10.0943C5.32034 9.59093 5.01185 8.89856 5.01185 8.16675V2.95457C5.01185 2.22276 5.32034 1.53038 5.85383 1.02699ZM7.83327 1.75C7.46921 1.75 7.12819 1.88687 6.88328 2.11797C6.63984 2.34768 6.51185 2.64961 6.51185 2.95457V8.16675C6.51185 8.4717 6.63984 8.77364 6.88328 9.00334C7.12819 9.23445 7.46921 9.37132 7.83327 9.37132C8.19733 9.37132 8.53835 9.23445 8.78327 9.00334C9.02671 8.77364 9.15469 8.4717 9.15469 8.16675V2.95457C9.15469 2.64961 9.02671 2.34768 8.78327 2.11797C8.53835 1.88687 8.19733 1.75 7.83327 1.75ZM3 6.11377C3.41421 6.11377 3.75 6.44956 3.75 6.86377V8.16681C3.75 9.16295 4.16897 10.1277 4.93037 10.8462C5.69324 11.566 6.73675 11.9775 7.83331 11.9775C8.92987 11.9775 9.97339 11.566 10.7363 10.8462C11.4977 10.1277 11.9166 9.16295 11.9166 8.16681V6.86377C11.9166 6.44956 12.2524 6.11377 12.6666 6.11377C13.0808 6.11377 13.4166 6.44956 13.4166 6.86377V8.16681C13.4166 9.5898 12.8171 10.945 11.7657 11.9372C10.8961 12.7577 9.77599 13.2756 8.5833 13.4294L8.58328 14.5835H10.5952C11.0094 14.5835 11.3452 14.9193 11.3452 15.3335C11.3452 15.7477 11.0094 16.0835 10.5952 16.0835H7.84757C7.84281 16.0836 7.83804 16.0836 7.83326 16.0836C7.82849 16.0836 7.82373 16.0836 7.81897 16.0835H5.07142C4.65721 16.0835 4.32142 15.7477 4.32142 15.3335C4.32142 14.9193 4.65721 14.5835 5.07142 14.5835H7.08328L7.0833 13.4294C5.89062 13.2756 4.77051 12.7577 3.90092 11.9372C2.84948 10.945 2.25 9.5898 2.25 8.16681V6.86377C2.25 6.44956 2.58579 6.11377 3 6.11377Z" />
</g>
<defs>
<clipPath id="clip0">
<rect width="16" height="16" fill="white"/>
</clipPath>
</defs>
</svg>
