<svg width="16" height="16" viewBox="0 0 16 16" xmlns="http://www.w3.org/2000/svg">
<g clip-path="url(#clip0)">
<path fill="context-fill" fill-opacity="context-fill-opacity" d="M7.83327 0.25C7.09858 0.25 6.38585 0.524984 5.85383 1.02699C5.32034 1.53038 5.01185 2.22276 5.01185 2.95457V8.16675C5.01185 8.49729 5.07479 8.81978 5.19296 9.12045L6.51185 7.80156V2.95457C6.51185 2.64961 6.63984 2.34768 6.88328 2.11797C7.12819 1.88687 7.46921 1.75 7.83327 1.75C8.19733 1.75 8.53835 1.88687 8.78327 2.11797C9.02671 2.34768 9.15469 2.64961 9.15469 2.95457V5.15872L10.6547 3.65872V2.95457C10.6547 2.22276 10.3462 1.53038 9.81271 1.02699C9.28069 0.524983 8.56796 0.25 7.83327 0.25Z" />
<path fill="context-fill" fill-opacity="context-fill-opacity" d="M11.9166 7.27347L12.9989 6.1912C13.2464 6.31372 13.4166 6.56887 13.4166 6.86377V8.16681C13.4166 9.5898 12.8171 10.945 11.7657 11.9372C10.8961 12.7577 9.77599 13.2756 8.5833 13.4294L8.58328 14.5835H10.5952C11.0094 14.5835 11.3452 14.9193 11.3452 15.3335C11.3452 15.7477 11.0094 16.0835 10.5952 16.0835H7.84757L7.83326 16.0836L7.81897 16.0835H5.07142C4.65721 16.0835 4.32142 15.7477 4.32142 15.3335C4.32142 14.9193 4.65721 14.5835 5.07142 14.5835H7.08328L7.0833 13.4294C6.7153 13.3819 6.35421 13.2998 6.00525 13.1848L7.2515 11.9386C7.44287 11.9643 7.63725 11.9775 7.83331 11.9775C8.92987 11.9775 9.97339 11.566 10.7363 10.8462C11.4977 10.1277 11.9166 9.16295 11.9166 8.16681V7.27347Z" />
<path fill="context-fill" fill-opacity="context-fill-opacity" d="M10.6238 8.5663L8.36773 10.8224C8.90682 10.7227 9.41122 10.4732 9.81271 10.0943C10.2479 9.68368 10.5334 9.14728 10.6238 8.5663Z" />
<path fill="context-fill" fill-opacity="context-fill-opacity" d="M4.27607 10.0373C3.9327 9.46877 3.75 8.82463 3.75 8.16681V6.86377C3.75 6.44956 3.41421 6.11377 3 6.11377C2.58579 6.11377 2.25 6.44956 2.25 6.86377V8.16681C2.25 9.2303 2.58484 10.256 3.19294 11.1205L4.27607 10.0373Z" />
<rect x="-0.268188" y="14.5815" width="21.1697" height="2" rx="1" transform="rotate(-45 -0.268188 14.5815)" fill="#EF3F56"/>
</g>
<defs>
<clipPath id="clip0">
<rect width="16" height="16" fill="white"/>
</clipPath>
</defs>
</svg>
