<svg width="16" height="16" viewBox="0 0 16 16" xmlns="http://www.w3.org/2000/svg">
<path fill="context-fill" fill-opacity="context-fill-opacity" fill-rule="evenodd" clip-rule="evenodd" d="M15.4848 0.427741C15.653 0.570243 15.75 0.779541 15.75 1.00001V11.1111C15.75 12.8141 14.3695 14.1943 12.6667 14.1943C10.9638 14.1943 9.58333 12.8138 9.58333 11.1109C9.58333 9.40805 10.9638 8.02759 12.6667 8.02759C13.2456 8.02759 13.7872 8.18715 14.25 8.46468V1.88535L6.41667 3.19091V12.6667C6.41667 14.3696 5.03621 15.75 3.33333 15.75C1.63045 15.75 0.25 14.3695 0.25 12.6667C0.25 10.9638 1.63046 9.58334 3.33333 9.58334C3.91223 9.58334 4.45386 9.74287 4.91667 10.0204V2.55556C4.91667 2.18893 5.18173 1.87604 5.54337 1.81577L14.8767 0.26021C15.0942 0.223966 15.3166 0.285238 15.4848 0.427741ZM4.91667 12.6667C4.91667 11.7922 4.20778 11.0833 3.33333 11.0833C2.45888 11.0833 1.75 11.7922 1.75 12.6667C1.75 13.5411 2.45888 14.25 3.33333 14.25C4.20778 14.25 4.91667 13.5411 4.91667 12.6667ZM14.25 11.1111C14.25 10.2366 13.541 9.52759 12.6667 9.52759C11.7922 9.52759 11.0833 10.2365 11.0833 11.1109C11.0833 11.9854 11.7922 12.6943 12.6667 12.6943C13.5412 12.6943 14.25 11.9855 14.25 11.1111Z" />
</svg>
