<svg width="16" height="16" viewBox="0 0 16 16" xmlns="http://www.w3.org/2000/svg">
<path fill="context-fill" fill-opacity="context-fill-opacity" fill-rule="evenodd" clip-rule="evenodd" d="M4.668 2.25L11.332 2.25C11.7292 2.25021 12.1198 2.35919 12.4592 2.56589C12.7983 2.77242 13.0739 3.06882 13.2536 3.42328C13.2538 3.4237 13.254 3.42412 13.2542 3.42454L15.6682 8.15935C15.722 8.26484 15.75 8.38158 15.75 8.5V12.625C15.75 13.193 15.5201 13.7349 15.1155 14.1324C14.7113 14.5293 14.1659 14.75 13.6 14.75H2.4C1.8341 14.75 1.28872 14.5293 0.884519 14.1324C0.479863 13.7349 0.25 13.193 0.25 12.625V8.5C0.25 8.38158 0.278041 8.26484 0.331827 8.15935L2.74578 3.42454C2.74597 3.42416 2.74616 3.42379 2.74635 3.42342C2.92598 3.06889 3.20167 2.77244 3.54081 2.56589C3.8802 2.35919 4.27077 2.25021 4.668 2.25ZM4.66821 3.75C4.54458 3.7501 4.42432 3.7841 4.32105 3.84699C4.21785 3.90985 4.13641 3.99857 4.08422 4.10172L4.08318 4.10378L2.22422 7.75H13.7758L11.9168 4.10378L11.9158 4.10172C11.8636 3.99857 11.7822 3.90985 11.6789 3.84699C11.5757 3.7841 11.4554 3.7501 11.3318 3.75H4.66821ZM14.25 9.25H1.75V12.625C1.75 12.7864 1.81514 12.9439 1.93558 13.0622C2.05648 13.1809 2.22329 13.25 2.4 13.25H13.6C13.7767 13.25 13.9435 13.1809 14.0644 13.0622C14.1849 12.9439 14.25 12.7864 14.25 12.625V9.25ZM3.05 11.25C3.05 10.8358 3.38579 10.5 3.8 10.5H3.807C4.22121 10.5 4.557 10.8358 4.557 11.25C4.557 11.6642 4.22121 12 3.807 12H3.8C3.38579 12 3.05 11.6642 3.05 11.25ZM5.85 11.25C5.85 10.8358 6.18579 10.5 6.6 10.5H6.607C7.02121 10.5 7.357 10.8358 7.357 11.25C7.357 11.6642 7.02121 12 6.607 12H6.6C6.18579 12 5.85 11.6642 5.85 11.25Z" />
</svg>
