<svg width="16" height="16" viewBox="0 0 16 16" xmlns="http://www.w3.org/2000/svg">
<g clip-path="url(#clip0)">
<path fill="context-fill" fill-opacity="context-fill-opacity" d="M4.4401 14.75H13.6C14.1659 14.75 14.7113 14.5293 15.1155 14.1324C15.5201 13.7349 15.75 13.193 15.75 12.625V8.5C15.75 8.38158 15.722 8.26484 15.6682 8.15935L14.1022 5.08786L12.9871 6.20302L13.7758 7.75H11.4401L9.9401 9.25H14.25V12.625C14.25 12.7864 14.1849 12.9439 14.0644 13.0622C13.9435 13.1809 13.7767 13.25 13.6 13.25H5.9401L4.4401 14.75Z" />
<path fill="context-fill" fill-opacity="context-fill-opacity" d="M3.81338 10.5L3.05012 11.2633C3.05004 11.2589 3.05 11.2544 3.05 11.25C3.05 10.8358 3.38579 10.5 3.8 10.5H3.807C3.80913 10.5 3.81126 10.5 3.81338 10.5Z" />
<path fill="context-fill" fill-opacity="context-fill-opacity" d="M5.06341 9.25H1.75V12.5634L0.951038 13.3624C0.813405 13.5 0.703905 13.6551 0.622538 13.8206C0.382184 13.4715 0.25 13.0557 0.25 12.625V8.5C0.25 8.38158 0.278041 8.26484 0.331827 8.15935L2.74578 3.42454L2.74635 3.42342C2.92598 3.06889 3.20167 2.77244 3.54081 2.56589C3.8802 2.35919 4.27038 2.25021 4.66761 2.25H11.332C11.5483 2.25011 11.763 2.28249 11.9681 2.34534L10.5634 3.75H4.66821C4.54458 3.7501 4.42432 3.7841 4.32105 3.84699C4.21785 3.90985 4.13641 3.99857 4.08422 4.10172L4.08318 4.10378L2.22422 7.75H6.56341L5.06341 9.25Z" />
<rect x="-0.268188" y="14.5815" width="21.1697" height="2" rx="1" transform="rotate(-45 -0.268188 14.5815)" fill="#EF3F56"/>
</g>
<defs>
<clipPath id="clip0">
<rect width="16" height="16" fill="white"/>
</clipPath>
</defs>
</svg>
