<svg width="16" height="16" viewBox="0 0 16 16" xmlns="http://www.w3.org/2000/svg">
<g clip-path="url(#clip0)">
<path fill="context-fill" fill-opacity="context-fill-opacity" d="M5.46652 13.7236C5.84468 14.3393 6.52434 14.75 7.29993 14.75H13.5999C14.7873 14.75 15.7499 13.7874 15.7499 12.6V8.29991C15.7499 7.11249 14.7873 6.14989 13.5999 6.14989H13.0402L11.5402 7.64989H13.5999C13.9589 7.64989 14.2499 7.9409 14.2499 8.29991V12.6C14.2499 12.959 13.9589 13.25 13.5999 13.25H7.29993C6.94095 13.25 6.64993 12.959 6.64993 12.6V12.5402L5.46652 13.7236Z" />
<path fill="context-fill" fill-opacity="context-fill-opacity" d="M10.85 3.46338L9.62939 4.68402C9.45901 4.54653 9.35003 4.33601 9.35003 4.10003V3.40002C9.35003 3.22762 9.28154 3.06228 9.15964 2.94038C9.03774 2.81848 8.87241 2.75 8.70002 2.75H2.40002C2.22764 2.75 2.06231 2.81848 1.94041 2.94038C1.81851 3.06228 1.75002 3.22762 1.75002 3.40002L1.75 7.5C1.75 7.6724 1.81848 7.83773 1.94038 7.95963C2.06228 8.08154 2.22761 8.15002 2.4 8.15002H3.1C3.51421 8.15002 3.85 8.4858 3.85 8.90002C3.85 9.31423 3.51421 9.65002 3.1 9.65002H2.4C1.82978 9.65002 1.28292 9.42349 0.879717 9.02029C0.476515 8.61708 0.25 8.07022 0.25 7.5L0.250024 3.40002C0.250026 2.8298 0.47654 2.28293 0.879741 1.87973C1.28294 1.47652 1.82981 1.25 2.40002 1.25H8.70002C9.27024 1.25 9.8171 1.47652 10.2203 1.87973C10.6235 2.28293 10.85 2.8298 10.85 3.40002V3.46338Z" />
<path fill="context-fill" fill-opacity="context-fill-opacity" d="M8.16352 6.14989L5.14993 9.16348V8.29991C5.14993 7.11249 6.11251 6.14989 7.29993 6.14989H8.16352Z" />
<rect x="-0.268188" y="14.5815" width="21.1697" height="2" rx="1" transform="rotate(-45 -0.268188 14.5815)" fill="#EF3F56"/>
</g>
<defs>
<clipPath id="clip0">
<rect width="16" height="16" fill="white"/>
</clipPath>
</defs>
</svg>
