<svg width="16" height="16" viewBox="0 0 16 16" xmlns="http://www.w3.org/2000/svg">
<path fill="context-fill" fill-opacity="context-fill-opacity" fill-rule="evenodd" clip-rule="evenodd" d="M2.40002 2.75C2.22764 2.75 2.06231 2.81848 1.94041 2.94038C1.81851 3.06228 1.75002 3.22762 1.75002 3.40002L1.75 7.5C1.75 7.6724 1.81848 7.83773 1.94038 7.95963C2.06228 8.08154 2.22761 8.15002 2.4 8.15002H3.1C3.51421 8.15002 3.85 8.4858 3.85 8.90002C3.85 9.31423 3.51421 9.65002 3.1 9.65002H2.4C1.82978 9.65002 1.28292 9.42349 0.879717 9.02029C0.476515 8.61708 0.25 8.07022 0.25 7.5L0.250024 3.40002C0.250024 3.40002 0.250024 3.40002 0.250024 3.40002C0.250026 2.8298 0.47654 2.28293 0.879741 1.87973C1.28294 1.47652 1.82981 1.25 2.40002 1.25H8.70002C9.27024 1.25 9.8171 1.47652 10.2203 1.87973C10.6235 2.28293 10.85 2.8298 10.85 3.40002V4.10003C10.85 4.51424 10.5142 4.85003 10.1 4.85003C9.68581 4.85003 9.35003 4.51424 9.35003 4.10003V3.40002C9.35003 3.22762 9.28154 3.06228 9.15964 2.94038C9.03774 2.81848 8.87241 2.75 8.70002 2.75H2.40002ZM7.29993 7.64989C6.94095 7.64989 6.64993 7.9409 6.64993 8.29991V12.6C6.64993 12.959 6.94095 13.25 7.29993 13.25H13.5999C13.9589 13.25 14.2499 12.959 14.2499 12.6V8.29991C14.2499 7.9409 13.9589 7.64989 13.5999 7.64989H7.29993ZM5.14993 8.29991C5.14993 7.11249 6.11251 6.14989 7.29993 6.14989H13.5999C14.7873 6.14989 15.7499 7.11249 15.7499 8.29991V12.6C15.7499 13.7874 14.7873 14.75 13.5999 14.75H7.29993C6.11251 14.75 5.14993 13.7874 5.14993 12.6V8.29991Z" />
</svg>
