<svg width="16" height="16" viewBox="0 0 16 16" xmlns="http://www.w3.org/2000/svg">
<g clip-path="url(#clip0)">
<path fill="context-fill" fill-opacity="context-fill-opacity" d="M8.41403 10.7761L8.78444 11.4706C8.95823 11.7965 9.29748 12 9.66679 12H13C14.6569 12 16 10.6569 16 9V7C16 5.96457 15.4754 5.05166 14.6776 4.51252L12.3944 6.7957C12.7619 7.06909 13 7.50674 13 8C13 8.82843 12.3284 9.5 11.5 9.5C11.0067 9.5 10.5691 9.26192 10.2957 8.8944L8.41403 10.7761Z" />
<path fill="context-fill" fill-opacity="context-fill-opacity" d="M10.3134 4H3C1.34315 4 0 5.34315 0 7V9C0 10.4436 1.01962 11.649 2.37798 11.9354L4.85588 9.45753C4.7418 9.48529 4.62262 9.5 4.5 9.5C3.67157 9.5 3 8.82843 3 8C3 7.17157 3.67157 6.5 4.5 6.5C5.32843 6.5 6 7.17157 6 8C6 8.12262 5.98529 8.2418 5.95753 8.35588L10.3134 4Z" />
<rect x="-0.268188" y="14.5815" width="21.1697" height="2" rx="1" transform="rotate(-45 -0.268188 14.5815)" fill="#EF3F56"/>
</g>
<defs>
<clipPath id="clip0">
<rect width="16" height="16" fill="white"/>
</clipPath>
</defs>
</svg>
