<svg width="16" height="16" viewBox="0 0 16 16" xmlns="http://www.w3.org/2000/svg">
<path fill="context-fill" fill-opacity="context-fill-opacity" fill-rule="evenodd" clip-rule="evenodd" d="M3 4C1.34315 4 0 5.34315 0 7V9C0 10.6569 1.34315 12 3 12H6.33341C6.70271 12 7.04195 11.7965 7.21575 11.4706L7.77953 10.4136C7.87365 10.2371 8.12659 10.2371 8.2207 10.4136L8.78444 11.4706C8.95823 11.7965 9.29748 12 9.66679 12H13C14.6569 12 16 10.6569 16 9V7C16 5.34315 14.6569 4 13 4H3ZM13 8C13 8.82843 12.3284 9.5 11.5 9.5C10.6716 9.5 10 8.82843 10 8C10 7.17157 10.6716 6.5 11.5 6.5C12.3284 6.5 13 7.17157 13 8ZM4.5 9.5C5.32843 9.5 6 8.82843 6 8C6 7.17157 5.32843 6.5 4.5 6.5C3.67157 6.5 3 7.17157 3 8C3 8.82843 3.67157 9.5 4.5 9.5Z" />
</svg>
