<svg xmlns="http://www.w3.org/2000/svg" width="1280" height="720" viewBox="0 0 1280 720">
  <defs>
    <style>
      .cls-1 {
        fill: #3d3d3d;
      }

      .cls-2 {
        fill: none;
        stroke: #fff;
        stroke-width: 5px;
        stroke-dasharray: 25 25;
      }

      .cls-3 {
        fill: #fff;
        fill-rule: evenodd;
      }
    </style>
  </defs>
  <rect class="cls-1" width="1280" height="720"/>
  <rect class="cls-2" x="39" y="37" width="1202" height="648"/>
  <path class="cls-3" d="M530,290l71,4a44.821,44.821,0,0,1,44-40c10.466-.344,18.691,2.815,22,5a32.518,32.518,0,0,1,14,31c-1.307,9.169-6.524,15.162-12,21-6.029,6.427-12.048,12.471-18,18a172.435,172.435,0,0,0-16,14c-4.554,4.508-7.244,8.706-12,13a41.866,41.866,0,0,0-14,21,57.55,57.55,0,0,0-2,8v33h68V399c8.375-16.118,18.588-28.921,31-38,4.69-3.431,12.013-8.666,18-15a106.155,106.155,0,0,0,11-14c5.605-8.374,9.782-16.528,12-23a87.549,87.549,0,0,0,4-37c-1.719-17.593-7.871-32.993-17-45-7.979-10.494-23.591-23.881-50-32-10.257-3.153-25.016-5.4-42-5-21.138.5-37.652,4.677-50,10-13.319,5.742-23.534,12.843-30,19-7.822,7.448-16.238,18.678-23,35a115.536,115.536,0,0,0-7,24Z"/>
  <path class="cls-3" d="M641,445a43.344,43.344,0,0,1,42,41c1.09,23.72-18.078,44.449-42,45-24.694.569-45.121-20.579-44-45A43.385,43.385,0,0,1,641,445Z"/>
</svg>
