<svg width="251" height="56" viewBox="0 0 251 56" fill="none" xmlns="http://www.w3.org/2000/svg">
<path d="M13.6839 43C22.9908 43 28.5092 37.2429 28.5092 27.6974C28.5092 18.1818 22.9908 12.4545 13.8928 12.4545H3.3331V43H13.6839ZM8.86648 38.2124V17.2422H13.5795C19.7841 17.2422 23.0206 20.7024 23.0206 27.6974C23.0206 34.7223 19.7841 38.2124 13.4155 38.2124H8.86648ZM43.521 43.4474C50.2326 43.4474 54.4982 38.7195 54.4982 31.6349C54.4982 24.5355 50.2326 19.7926 43.521 19.7926C36.8093 19.7926 32.5437 24.5355 32.5437 31.6349C32.5437 38.7195 36.8093 43.4474 43.521 43.4474ZM43.5508 39.1222C39.837 39.1222 38.0174 35.8111 38.0174 31.62C38.0174 27.429 39.837 24.0732 43.5508 24.0732C47.2049 24.0732 49.0245 27.429 49.0245 31.62C49.0245 35.8111 47.2049 39.1222 43.5508 39.1222ZM70.5204 20.0909H66.0012V14.6023H60.6021V20.0909H57.3507V24.267H60.6021V37.0043C60.5723 41.3146 63.7044 43.4325 67.7612 43.3132C69.2974 43.2685 70.3564 42.9702 70.938 42.7763L70.0282 38.5554C69.7299 38.63 69.1184 38.7642 68.4473 38.7642C67.09 38.7642 66.0012 38.2869 66.0012 36.1094V24.267H70.5204V20.0909ZM85.6925 43H98.0568C105.052 43 108.482 39.4354 108.482 34.6776C108.482 30.054 105.201 27.3395 101.95 27.1754V26.8771C104.933 26.1761 107.289 24.0881 107.289 20.3743C107.289 15.8253 104.008 12.4545 97.3857 12.4545H85.6925V43ZM91.2259 38.3764V29.4276H97.326C100.741 29.4276 102.859 31.5156 102.859 34.245C102.859 36.6761 101.189 38.3764 97.1768 38.3764H91.2259ZM91.2259 25.4453V17.0185H96.8189C100.07 17.0185 101.756 18.7337 101.756 21.0902C101.756 23.7749 99.5781 25.4453 96.6996 25.4453H91.2259ZM113.057 43H118.456V29.532C118.456 26.6236 120.649 24.5653 123.617 24.5653C124.527 24.5653 125.66 24.7294 126.123 24.8786V19.9119C125.631 19.8224 124.78 19.7628 124.184 19.7628C121.559 19.7628 119.366 21.2543 118.531 23.9091H118.292V20.0909H113.057V43ZM138.759 43.4474C145.471 43.4474 149.737 38.7195 149.737 31.6349C149.737 24.5355 145.471 19.7926 138.759 19.7926C132.048 19.7926 127.782 24.5355 127.782 31.6349C127.782 38.7195 132.048 43.4474 138.759 43.4474ZM138.789 39.1222C135.075 39.1222 133.256 35.8111 133.256 31.62C133.256 27.429 135.075 24.0732 138.789 24.0732C142.443 24.0732 144.263 27.429 144.263 31.62C144.263 35.8111 142.443 39.1222 138.789 39.1222ZM158.432 43H164.07L168.365 27.5185H168.678L172.974 43H178.597L185.085 20.0909H179.566L175.599 36.1094H175.375L171.259 20.0909H165.815L161.698 36.1989H161.489L157.462 20.0909H151.959L158.432 43ZM206.961 26.1463C206.215 22.2685 203.113 19.7926 197.743 19.7926C192.225 19.7926 188.466 22.5071 188.481 26.7429C188.466 30.0838 190.525 32.2912 194.925 33.201L198.832 34.0213C200.935 34.4837 201.92 35.3338 201.92 36.6314C201.92 38.1974 200.219 39.3757 197.654 39.3757C195.178 39.3757 193.567 38.3018 193.105 36.2436L187.84 36.7507C188.511 40.9567 192.046 43.4474 197.669 43.4474C203.396 43.4474 207.438 40.4794 207.453 36.1392C207.438 32.8729 205.335 30.8743 201.01 29.9347L197.102 29.0994C194.775 28.5774 193.851 27.772 193.866 26.4446C193.851 24.8935 195.566 23.8196 197.818 23.8196C200.309 23.8196 201.621 25.1768 202.039 26.6832L206.961 26.1463ZM222.047 43.4474C227.387 43.4474 231.056 40.8374 232.01 36.8551L226.969 36.2884C226.238 38.2273 224.448 39.2415 222.122 39.2415C218.632 39.2415 216.32 36.9446 216.275 33.022H232.234V31.3665C232.234 23.3274 227.401 19.7926 221.764 19.7926C215.201 19.7926 210.921 24.6101 210.921 31.6797C210.921 38.8686 215.142 43.4474 222.047 43.4474ZM216.29 29.3828C216.454 26.4595 218.617 23.9986 221.838 23.9986C224.941 23.9986 227.029 26.2656 227.058 29.3828H216.29ZM236.801 43H242.201V29.532C242.201 26.6236 244.393 24.5653 247.361 24.5653C248.271 24.5653 249.404 24.7294 249.867 24.8786V19.9119C249.375 19.8224 248.525 19.7628 247.928 19.7628C245.303 19.7628 243.11 21.2543 242.275 23.9091H242.037V20.0909H236.801V43Z" fill="white"/>
</svg>
