<svg width="354" height="80" viewBox="0 0 354 80" fill="none" xmlns="http://www.w3.org/2000/svg">
<circle cx="40" cy="40" r="40" fill="white"/>
<circle cx="40" cy="40" r="13" fill="black"/>
<path d="M114.351 55.5455C123.658 55.5455 129.176 49.7884 129.176 40.2429C129.176 30.7273 123.658 25 114.56 25H104V55.5455H114.351ZM109.533 50.7579V29.7877H114.246C120.451 29.7877 123.688 33.2479 123.688 40.2429C123.688 47.2678 120.451 50.7579 114.082 50.7579H109.533ZM144.188 55.9929C150.9 55.9929 155.165 51.265 155.165 44.1804C155.165 37.081 150.9 32.3381 144.188 32.3381C137.476 32.3381 133.211 37.081 133.211 44.1804C133.211 51.265 137.476 55.9929 144.188 55.9929ZM144.218 51.6677C140.504 51.6677 138.684 48.3566 138.684 44.1655C138.684 39.9745 140.504 36.6187 144.218 36.6187C147.872 36.6187 149.691 39.9745 149.691 44.1655C149.691 48.3566 147.872 51.6677 144.218 51.6677ZM171.187 32.6364H166.668V27.1478H161.269V32.6364H158.018V36.8125H161.269V49.5498C161.239 53.8601 164.371 55.978 168.428 55.8587C169.964 55.814 171.023 55.5157 171.605 55.3218L170.695 51.1009C170.397 51.1755 169.785 51.3097 169.114 51.3097C167.757 51.3097 166.668 50.8324 166.668 48.6549V36.8125H171.187V32.6364ZM186.359 55.5455H198.724C205.719 55.5455 209.149 51.9809 209.149 47.2231C209.149 42.5995 205.868 39.885 202.617 39.7209V39.4226C205.6 38.7216 207.956 36.6336 207.956 32.9198C207.956 28.3708 204.675 25 198.053 25H186.359V55.5455ZM191.893 50.9219V41.9731H197.993C201.408 41.9731 203.526 44.0611 203.526 46.7905C203.526 49.2216 201.856 50.9219 197.844 50.9219H191.893ZM191.893 37.9908V29.564H197.486C200.737 29.564 202.423 31.2792 202.423 33.6357C202.423 36.3204 200.245 37.9908 197.367 37.9908H191.893ZM213.724 55.5455H219.123V42.0775C219.123 39.1691 221.316 37.1108 224.284 37.1108C225.194 37.1108 226.327 37.2749 226.79 37.4241V32.4574C226.298 32.3679 225.447 32.3083 224.851 32.3083C222.226 32.3083 220.033 33.7998 219.198 36.4546H218.959V32.6364H213.724V55.5455ZM239.426 55.9929C246.138 55.9929 250.404 51.265 250.404 44.1804C250.404 37.081 246.138 32.3381 239.426 32.3381C232.715 32.3381 228.449 37.081 228.449 44.1804C228.449 51.265 232.715 55.9929 239.426 55.9929ZM239.456 51.6677C235.742 51.6677 233.923 48.3566 233.923 44.1655C233.923 39.9745 235.742 36.6187 239.456 36.6187C243.11 36.6187 244.93 39.9745 244.93 44.1655C244.93 48.3566 243.11 51.6677 239.456 51.6677ZM259.099 55.5455H264.737L269.032 40.064H269.345L273.641 55.5455H279.264L285.752 32.6364H280.233L276.266 48.6549H276.042L271.926 32.6364H266.482L262.365 48.7444H262.156L258.129 32.6364H252.626L259.099 55.5455ZM307.628 38.6918C306.882 34.814 303.78 32.3381 298.41 32.3381C292.892 32.3381 289.133 35.0526 289.148 39.2884C289.133 42.6293 291.192 44.8367 295.592 45.7465L299.499 46.5668C301.602 47.0292 302.587 47.8793 302.587 49.1769C302.587 50.7429 300.886 51.9212 298.321 51.9212C295.845 51.9212 294.234 50.8473 293.772 48.7891L288.507 49.2962C289.178 53.5022 292.713 55.9929 298.336 55.9929C304.063 55.9929 308.105 53.0249 308.12 48.6847C308.105 45.4184 306.002 43.4198 301.677 42.4802L297.769 41.6449C295.442 41.1229 294.518 40.3175 294.533 38.9901C294.518 37.439 296.233 36.3651 298.485 36.3651C300.976 36.3651 302.288 37.7223 302.706 39.2287L307.628 38.6918ZM322.714 55.9929C328.054 55.9929 331.723 53.3829 332.677 49.4006L327.636 48.8339C326.905 50.7728 325.115 51.787 322.789 51.787C319.299 51.787 316.987 49.4901 316.942 45.5675H332.901V43.912C332.901 35.8729 328.068 32.3381 322.431 32.3381C315.868 32.3381 311.588 37.1556 311.588 44.2252C311.588 51.4141 315.809 55.9929 322.714 55.9929ZM316.957 41.9283C317.121 39.005 319.284 36.5441 322.505 36.5441C325.608 36.5441 327.696 38.8111 327.725 41.9283H316.957ZM337.468 55.5455H342.868V42.0775C342.868 39.1691 345.06 37.1108 348.028 37.1108C348.938 37.1108 350.071 37.2749 350.534 37.4241V32.4574C350.042 32.3679 349.192 32.3083 348.595 32.3083C345.97 32.3083 343.777 33.7998 342.942 36.4546H342.704V32.6364H337.468V55.5455Z" fill="black"/>
</svg>
