<svg width="32" height="32" viewBox="0 0 32 32" fill="none" xmlns="http://www.w3.org/2000/svg">
<g filter="url(#filter0_d)">
<circle cx="16" cy="16" r="12" fill="white"/>
<circle cx="16" cy="16" r="11.5" stroke="#F8F8F8"/>
</g>
<path d="M18.2074 15.9999C18.2074 17.219 17.2191 18.2073 16 18.2073C14.7809 18.2073 13.7926 17.219 13.7926 15.9999C13.7926 14.7808 14.7809 13.7925 16 13.7925C17.2191 13.7925 18.2074 14.7808 18.2074 15.9999Z" fill="#434343"/>
<path fill-rule="evenodd" clip-rule="evenodd" d="M15.9999 6.91748C16.5874 6.91748 17.1508 7.15087 17.5662 7.5663L19.0378 9.03789C19.3611 9.36115 19.3611 9.88526 19.0378 10.2085C18.7146 10.5318 18.1905 10.5318 17.8672 10.2085L16.3956 8.73693C16.2906 8.63197 16.1483 8.57301 15.9999 8.57301C15.8514 8.57301 15.7091 8.63197 15.6041 8.73693L14.1325 10.2085C13.8093 10.5318 13.2851 10.5318 12.9619 10.2085C12.6386 9.88526 12.6386 9.36115 12.9619 9.03789L14.4335 7.5663C14.8489 7.15087 15.4124 6.91748 15.9999 6.91748ZM21.7914 12.9621C22.1147 12.6389 22.6388 12.6389 22.9621 12.9621L24.4337 14.4337C24.8491 14.8492 25.0825 15.4126 25.0825 16.0001C25.0825 16.5876 24.8491 17.151 24.4337 17.5665L22.9621 19.0381C22.6388 19.3613 22.1147 19.3613 21.7914 19.0381C21.4682 18.7148 21.4682 18.1907 21.7914 17.8674L23.263 16.3958C23.368 16.2909 23.427 16.1485 23.427 16.0001C23.427 15.8517 23.368 15.7093 23.263 15.6044L21.7914 14.1328C21.4682 13.8095 21.4682 13.2854 21.7914 12.9621ZM10.2083 12.9621C10.5315 13.2854 10.5315 13.8095 10.2083 14.1328L8.73669 15.6044C8.63173 15.7093 8.57276 15.8517 8.57276 16.0001C8.57276 16.1485 8.63173 16.2909 8.73669 16.3958L10.2083 17.8674C10.5315 18.1907 10.5315 18.7148 10.2083 19.0381C9.88502 19.3613 9.36091 19.3613 9.03764 19.0381L7.56605 17.5665C7.15062 17.151 6.91724 16.5876 6.91724 16.0001C6.91724 15.4126 7.15062 14.8492 7.56605 14.4337L9.03764 12.9621C9.3609 12.6389 9.88502 12.6389 10.2083 12.9621ZM19.0378 21.7917C19.3611 22.1149 19.3611 22.6391 19.0378 22.9623L17.5662 24.4339C17.1508 24.8493 16.5874 25.0827 15.9999 25.0827C15.4123 25.0827 14.8489 24.8493 14.4335 24.4339L12.9619 22.9623C12.6386 22.6391 12.6386 22.1149 12.9619 21.7917C13.2851 21.4684 13.8093 21.4684 14.1325 21.7917L15.6041 23.2633C15.7091 23.3682 15.8514 23.4272 15.9999 23.4272C16.1483 23.4272 16.2906 23.3682 16.3956 23.2633L17.8672 21.7917C18.1905 21.4684 18.7146 21.4684 19.0378 21.7917Z" fill="#434343"/>
<defs>
<filter id="filter0_d" x="0" y="0" width="32" height="32" filterUnits="userSpaceOnUse" color-interpolation-filters="sRGB">
<feFlood flood-opacity="0" result="BackgroundImageFix"/>
<feColorMatrix in="SourceAlpha" type="matrix" values="0 0 0 0 0 0 0 0 0 0 0 0 0 0 0 0 0 0 127 0"/>
<feOffset/>
<feGaussianBlur stdDeviation="2"/>
<feColorMatrix type="matrix" values="0 0 0 0 0 0 0 0 0 0 0 0 0 0 0 0 0 0 0.25 0"/>
<feBlend mode="normal" in2="BackgroundImageFix" result="effect1_dropShadow"/>
<feBlend mode="normal" in="SourceGraphic" in2="effect1_dropShadow" result="shape"/>
</filter>
</defs>
</svg>
