<svg width="32" height="32" viewBox="0 0 32 32" fill="none" xmlns="http://www.w3.org/2000/svg">
<g filter="url(#filter0_d)">
<circle cx="16" cy="16" r="12" fill="white"/>
<circle cx="16" cy="16" r="11.5" stroke="#F8F8F8"/>
</g>
<path d="M18.2073 15.9999C18.2073 17.219 17.219 18.2073 15.9999 18.2073C14.7808 18.2073 13.7925 17.219 13.7925 15.9999C13.7925 14.7808 14.7808 13.7925 15.9999 13.7925C17.219 13.7925 18.2073 14.7808 18.2073 15.9999Z" fill="#434343"/>
<path fill-rule="evenodd" clip-rule="evenodd" d="M15.9998 6.91748C16.5873 6.91748 17.1507 7.15087 17.5662 7.5663L19.0377 9.03789C19.361 9.36115 19.361 9.88526 19.0377 10.2085C18.7145 10.5318 18.1904 10.5318 17.8671 10.2085L16.3955 8.73693C16.2906 8.63197 16.1482 8.57301 15.9998 8.57301C15.8513 8.57301 15.709 8.63197 15.604 8.73693L14.1324 10.2085C13.8092 10.5318 13.2851 10.5318 12.9618 10.2085C12.6385 9.88526 12.6385 9.36115 12.9618 9.03789L14.4334 7.5663C14.8488 7.15087 15.4123 6.91748 15.9998 6.91748ZM19.0377 21.7917C19.361 22.1149 19.361 22.6391 19.0377 22.9623L17.5662 24.4339C17.1507 24.8493 16.5873 25.0827 15.9998 25.0827C15.4123 25.0827 14.8488 24.8493 14.4334 24.4339L12.9618 22.9623C12.6385 22.6391 12.6385 22.1149 12.9618 21.7917C13.2851 21.4684 13.8092 21.4684 14.1324 21.7917L15.604 23.2633C15.709 23.3682 15.8513 23.4272 15.9998 23.4272C16.1482 23.4272 16.2906 23.3682 16.3955 23.2633L17.8671 21.7917C18.1904 21.4684 18.7145 21.4684 19.0377 21.7917Z" fill="#434343"/>
<defs>
<filter id="filter0_d" x="0" y="0" width="32" height="32" filterUnits="userSpaceOnUse" color-interpolation-filters="sRGB">
<feFlood flood-opacity="0" result="BackgroundImageFix"/>
<feColorMatrix in="SourceAlpha" type="matrix" values="0 0 0 0 0 0 0 0 0 0 0 0 0 0 0 0 0 0 127 0"/>
<feOffset/>
<feGaussianBlur stdDeviation="2"/>
<feColorMatrix type="matrix" values="0 0 0 0 0 0 0 0 0 0 0 0 0 0 0 0 0 0 0.25 0"/>
<feBlend mode="normal" in2="BackgroundImageFix" result="effect1_dropShadow"/>
<feBlend mode="normal" in="SourceGraphic" in2="effect1_dropShadow" result="shape"/>
</filter>
</defs>
</svg>
