<svg width="16" height="16" viewBox="0 0 16 16" xmlns="http://www.w3.org/2000/svg">
<path fill="context-fill" fill-opacity="context-fill-opacity" fill-rule="evenodd" clip-rule="evenodd" d="M1.25 4.00016C1.25 3.58595 1.58579 3.25016 2 3.25016H14C14.4142 3.25016 14.75 3.58595 14.75 4.00016C14.75 4.41438 14.4142 4.75016 14 4.75016H2C1.58579 4.75016 1.25 4.41438 1.25 4.00016Z" />
<path fill="context-fill" fill-opacity="context-fill-opacity" fill-rule="evenodd" clip-rule="evenodd" d="M6.66667 2.0835C6.51196 2.0835 6.36358 2.14495 6.25419 2.25435C6.14479 2.36375 6.08333 2.51212 6.08333 2.66683V3.25016H9.91667V2.66683C9.91667 2.51212 9.85521 2.36375 9.74581 2.25435C9.63642 2.14495 9.48804 2.0835 9.33333 2.0835H6.66667ZM11.4167 3.25016V2.66683C11.4167 2.11429 11.1972 1.58439 10.8065 1.19369C10.4158 0.802989 9.88587 0.583496 9.33333 0.583496H6.66667C6.11413 0.583496 5.58423 0.802989 5.19353 1.19369C4.80283 1.58439 4.58333 2.11429 4.58333 2.66683V3.25016H3.33333C2.91912 3.25016 2.58333 3.58595 2.58333 4.00016V13.3335C2.58333 13.886 2.80283 14.4159 3.19353 14.8066C3.58423 15.1973 4.11413 15.4168 4.66667 15.4168H11.3333C11.8859 15.4168 12.4158 15.1973 12.8065 14.8066C13.1972 14.4159 13.4167 13.886 13.4167 13.3335V4.00016C13.4167 3.58595 13.0809 3.25016 12.6667 3.25016H11.4167ZM4.08333 4.75016V13.3335C4.08333 13.4882 4.14479 13.6366 4.25419 13.746C4.36358 13.8554 4.51196 13.9168 4.66667 13.9168H11.3333C11.488 13.9168 11.6364 13.8554 11.7458 13.746C11.8552 13.6366 11.9167 13.4882 11.9167 13.3335V4.75016H4.08333Z" />
<path fill="context-fill" fill-opacity="context-fill-opacity" fill-rule="evenodd" clip-rule="evenodd" d="M6.66667 6.5835C7.08088 6.5835 7.41667 6.91928 7.41667 7.3335V11.3335C7.41667 11.7477 7.08088 12.0835 6.66667 12.0835C6.25245 12.0835 5.91667 11.7477 5.91667 11.3335V7.3335C5.91667 6.91928 6.25245 6.5835 6.66667 6.5835Z" />
<path fill="context-fill" fill-opacity="context-fill-opacity" fill-rule="evenodd" clip-rule="evenodd" d="M9.33333 6.5835C9.74755 6.5835 10.0833 6.91928 10.0833 7.3335V11.3335C10.0833 11.7477 9.74755 12.0835 9.33333 12.0835C8.91912 12.0835 8.58333 11.7477 8.58333 11.3335V7.3335C8.58333 6.91928 8.91912 6.5835 9.33333 6.5835Z" />
</svg>
