<svg width="16" height="16" viewBox="0 0 16 16" xmlns="http://www.w3.org/2000/svg">
<path fill="context-fill" fill-opacity="context-fill-opacity" fill-rule="evenodd" clip-rule="evenodd" d="M1.92714 0.943075C2.30906 0.554207 2.82964 0.333496 3.37504 0.333496H8.18754C8.36643 0.333496 8.53782 0.405393 8.66317 0.533024L13.4757 5.43302C13.5981 5.55769 13.6667 5.72543 13.6667 5.90016V13.6002C13.6667 14.1444 13.4545 14.6688 13.0729 15.0573C12.691 15.4461 12.1704 15.6668 11.625 15.6668H3.37504C2.82964 15.6668 2.30906 15.4461 1.92714 15.0573C1.54561 14.6688 1.33337 14.1444 1.33337 13.6002V2.40016C1.33337 1.85589 1.54561 1.33153 1.92714 0.943075ZM3.37504 1.66683C3.19109 1.66683 3.0122 1.74112 2.8784 1.87735C2.7442 2.01399 2.66671 2.20183 2.66671 2.40016V13.6002C2.66671 13.7985 2.7442 13.9863 2.8784 14.123C3.0122 14.2592 3.1911 14.3335 3.37504 14.3335H11.625C11.809 14.3335 11.9879 14.2592 12.1217 14.123C12.2559 13.9863 12.3334 13.7985 12.3334 13.6002V6.56683H8.18754C7.81935 6.56683 7.52087 6.26835 7.52087 5.90016V1.66683H3.37504ZM8.85421 2.63037L11.4109 5.2335H8.85421V2.63037Z" />
</svg>
