<svg width="16" height="16" viewBox="0 0 16 16" xmlns="http://www.w3.org/2000/svg">
<path fill="context-fill" fill-opacity="context-fill-opacity" d="M13.8933 3.07357C13.5528 2.73291 13.1485 2.46267 12.7036 2.2783C12.2586 2.09392 11.7817 1.99902 11.3 1.99902C10.8183 1.99902 10.3414 2.09392 9.89643 2.2783C9.45146 2.46267 9.04717 2.73291 8.70667 3.07357L8 3.78024L7.29333 3.07357C6.60554 2.38578 5.67269 1.99938 4.7 1.99938C3.72731 1.99938 2.79446 2.38578 2.10666 3.07357C1.41887 3.76137 1.03247 4.69422 1.03247 5.66691C1.03247 6.6396 1.41887 7.57245 2.10666 8.26024L8 14.1536L13.8933 8.26024C14.234 7.91974 14.5042 7.51545 14.6886 7.07048C14.873 6.6255 14.9679 6.14857 14.9679 5.66691C14.9679 5.18525 14.873 4.70831 14.6886 4.26334C14.5042 3.81836 14.234 3.41408 13.8933 3.07357Z" />
</svg>
