<svg width="16" height="16" viewBox="0 0 16 16" xmlns="http://www.w3.org/2000/svg">
<path fill="context-fill" fill-opacity="context-fill-opacity" fill-rule="evenodd" clip-rule="evenodd" d="M2 8C2 11.3137 4.68629 14 8 14C11.3137 14 14 11.3137 14 8C14 4.68629 11.3137 2 8 2C4.68629 2 2 4.68629 2 8ZM8 0C3.58172 0 0 3.58172 0 8C0 12.4183 3.58172 16 8 16C12.4183 16 16 12.4183 16 8C16 3.58172 12.4183 0 8 0Z" />
<path fill="context-fill" fill-opacity="context-fill-opacity" fill-rule="evenodd" clip-rule="evenodd" d="M8.05573 5.5144C7.82297 5.47447 7.58359 5.51821 7.37999 5.63787C7.17639 5.75753 7.0217 5.94538 6.94333 6.16816C6.76006 6.68915 6.18915 6.96292 5.66816 6.77965C5.14717 6.59638 4.87339 6.02546 5.05667 5.50447C5.29177 4.83614 5.75582 4.27258 6.36662 3.91361C6.97742 3.55463 7.69556 3.42341 8.39384 3.54319C9.09212 3.66296 9.72548 4.026 10.1817 4.568C10.6379 5.10986 10.8876 5.79564 10.8867 6.50392C10.8862 7.70091 10.0016 8.46153 9.44137 8.83503C9.13073 9.04212 8.82722 9.19317 8.6053 9.2918C8.49293 9.34174 8.39789 9.37983 8.3286 9.40622C8.29387 9.41945 8.26538 9.42983 8.24414 9.43739L8.21777 9.44662L8.20885 9.44967L8.2055 9.4508L8.2041 9.45126C8.2041 9.45126 8.2029 9.45167 7.89403 8.52507L8.20289 9.45167C7.67895 9.62631 7.11263 9.34316 6.93798 8.81921C6.7637 8.29636 7.04532 7.73131 7.56716 7.5554L7.57412 7.55296C7.58218 7.55009 7.59665 7.54485 7.61661 7.53725C7.6567 7.52198 7.71791 7.49756 7.79303 7.46417C7.94611 7.39613 8.1426 7.29718 8.33197 7.17093C8.77157 6.87787 8.88667 6.63878 8.88667 6.50298L8.88667 6.50149C8.88702 6.26534 8.80378 6.03667 8.65169 5.856C8.49961 5.67534 8.28849 5.55432 8.05573 5.5144Z" />
<path fill="context-fill" fill-opacity="context-fill-opacity" fill-rule="evenodd" clip-rule="evenodd" d="M6.93994 11.5C6.93994 10.9477 7.38766 10.5 7.93994 10.5H7.94661C8.49889 10.5 8.94661 10.9477 8.94661 11.5C8.94661 12.0523 8.49889 12.5 7.94661 12.5H7.93994C7.38766 12.5 6.93994 12.0523 6.93994 11.5Z" />
</svg>
