<svg xmlns="http://www.w3.org/2000/svg" width="16" height="16" viewBox="0 0 16 16" >
<path fill="context-fill" fill-opacity="context-fill-opacity" fill-rule="evenodd" d="M8 14C11.3137 14 14 11.3137 14 8C14 4.68629 11.3137 2 8 2C4.68629 2 2 4.68629 2 8C2 11.3137 4.68629 14 8 14ZM8 16C12.4183 16 16 12.4183 16 8C16 3.58172 12.4183 0 8 0C3.58172 0 0 3.58172 0 8C0 12.4183 3.58172 16 8 16Z" />
<path fill="context-fill" fill-opacity="context-fill-opacity" fill-rule="evenodd" d="M9 5C9 5.55228 8.55228 6 8 6C7.44772 6 7 5.55228 7 5C7 4.44772 7.44772 4 8 4C8.55228 4 9 4.44772 9 5Z"/>
<path fill="context-fill" fill-opacity="context-fill-opacity" fill-rule="evenodd" d="M7 8C7 7.44772 7.44772 7 8 7C8.55228 7 9 7.44772 9 8V11C9 11.5523 8.55228 12 8 12C7.44772 12 7 11.5523 7 11V8Z"/>
</svg>