<svg width="16" height="16" viewBox="0 0 16 16" xmlns="http://www.w3.org/2000/svg">
<path fill="context-fill" fill-opacity="context-fill-opacity" fill-rule="evenodd" clip-rule="evenodd" d="M8.00004 6.66683C7.26366 6.66683 6.66671 7.26378 6.66671 8.00016C6.66671 8.73654 7.26366 9.3335 8.00004 9.3335C8.73642 9.3335 9.33337 8.73654 9.33337 8.00016C9.33337 7.26378 8.73642 6.66683 8.00004 6.66683ZM5.33337 8.00016C5.33337 6.5274 6.52728 5.3335 8.00004 5.3335C9.4728 5.3335 10.6667 6.5274 10.6667 8.00016C10.6667 9.47292 9.4728 10.6668 8.00004 10.6668C6.52728 10.6668 5.33337 9.47292 5.33337 8.00016Z" />
<path fill="context-fill" fill-opacity="context-fill-opacity" fill-rule="evenodd" clip-rule="evenodd" d="M8 0C7.46957 0 6.96086 0.210714 6.58579 0.585786C6.21071 0.960859 6 1.46957 6 2V2.11169C5.99947 2.19585 5.97444 2.27803 5.92797 2.34821C5.89666 2.39549 5.85653 2.43593 5.81005 2.46748C5.76462 2.47699 5.72018 2.49125 5.67749 2.51009C5.59828 2.54505 5.51041 2.55548 5.42521 2.54003C5.34095 2.52475 5.26313 2.48486 5.20155 2.42541L5.165 2.38886C4.97925 2.20291 4.75868 2.05539 4.51588 1.95474C4.27308 1.85409 4.01283 1.80228 3.75 1.80228C3.48717 1.80228 3.22692 1.85409 2.98412 1.95474C2.74144 2.05534 2.52095 2.20277 2.33526 2.3886C2.14943 2.57429 2.00201 2.79477 1.90141 3.03745C1.80076 3.28025 1.74895 3.5405 1.74895 3.80333C1.74895 4.06616 1.80076 4.32642 1.90141 4.56921C2.00205 4.81201 2.14957 5.03259 2.33552 5.21833L2.37207 5.25488C2.43152 5.31646 2.47142 5.39429 2.4867 5.47855C2.50215 5.56374 2.49172 5.65161 2.45676 5.73082C2.45109 5.74367 2.44582 5.7567 2.44098 5.76988C2.41096 5.85149 2.35709 5.92218 2.28637 5.97276C2.21727 6.02218 2.13522 6.05017 2.05042 6.05333H2C1.46957 6.05333 0.960859 6.26405 0.585786 6.63912C0.210714 7.01419 0 7.5229 0 8.05333C0 8.58377 0.210714 9.09247 0.585786 9.46755C0.960859 9.84262 1.46957 10.0533 2 10.0533H2.11176C2.19589 10.0539 2.27805 10.0789 2.34821 10.1254C2.41867 10.172 2.47391 10.2383 2.50721 10.316L2.51009 10.3225C2.54505 10.4017 2.55548 10.4896 2.54003 10.5748C2.52475 10.6591 2.48485 10.7369 2.42539 10.7985L2.3886 10.8353C2.20277 11.0209 2.05534 11.2414 1.95474 11.4841C1.85409 11.7269 1.80228 11.9872 1.80228 12.25C1.80228 12.5128 1.85409 12.7731 1.95474 13.0159C2.05535 13.2586 2.20281 13.4791 2.38868 13.6648C2.57435 13.8506 2.79481 13.998 3.03745 14.0986C3.28025 14.1992 3.5405 14.251 3.80333 14.251C4.06616 14.251 4.32642 14.1992 4.56921 14.0986C4.8119 13.998 5.03264 13.8503 5.21833 13.6645L5.2549 13.6279C5.31648 13.5685 5.39429 13.5286 5.47855 13.5133C5.56374 13.4979 5.65161 13.5083 5.73082 13.5432C5.74367 13.5489 5.7567 13.5542 5.76988 13.559C5.85149 13.589 5.92218 13.6429 5.97276 13.7136C6.02218 13.7827 6.05017 13.8648 6.05333 13.9496V14C6.05333 14.5304 6.26405 15.0391 6.63912 15.4142C7.01419 15.7893 7.5229 16 8.05333 16C8.58377 16 9.09247 15.7893 9.46755 15.4142C9.84262 15.0391 10.0533 14.5304 10.0533 14V13.8882C10.0539 13.8041 10.0789 13.7219 10.1254 13.6518C10.172 13.5813 10.2383 13.5261 10.316 13.4928L10.3225 13.4899C10.4017 13.4549 10.4896 13.4445 10.5748 13.46C10.6591 13.4752 10.7369 13.5151 10.7985 13.5746L10.8353 13.6114C11.0209 13.7972 11.2414 13.9447 11.4841 14.0453C11.7269 14.1459 11.9872 14.1977 12.25 14.1977C12.5128 14.1977 12.7731 14.1459 13.0159 14.0453C13.2587 13.9446 13.4787 13.7976 13.6645 13.6117C13.8504 13.4259 13.9979 13.2053 14.0986 12.9625C14.1992 12.7198 14.251 12.4595 14.251 12.1967C14.251 11.9338 14.1992 11.6736 14.0986 11.4308C13.998 11.1881 13.8503 10.9674 13.6645 10.7817L13.6279 10.7451C13.5685 10.6835 13.5286 10.6057 13.5133 10.5215C13.4979 10.4363 13.5083 10.3484 13.5433 10.2692L13.5461 10.2626C13.5794 10.1849 13.6347 10.1187 13.7051 10.072C13.7753 10.0256 13.8574 10.0005 13.9416 10H14C14.5304 10 15.0391 9.78929 15.4142 9.41421C15.7893 9.03914 16 8.53043 16 8C16 7.46957 15.7893 6.96086 15.4142 6.58579C15.0391 6.21071 14.5304 6 14 6H13.8883C13.8042 5.99947 13.722 5.97444 13.6518 5.92797C13.6045 5.89665 13.5641 5.85653 13.5325 5.81005C13.523 5.76462 13.5087 5.72018 13.4899 5.67749C13.4549 5.59828 13.4445 5.51041 13.46 5.42521C13.4752 5.34095 13.5151 5.26312 13.5746 5.20154L13.6111 5.165C13.7971 4.97925 13.9446 4.75868 14.0453 4.51588C14.1459 4.27308 14.1977 4.01283 14.1977 3.75C14.1977 3.48717 14.1459 3.22692 14.0453 2.98412C13.9446 2.74132 13.7976 2.52127 13.6117 2.33552C13.4259 2.14957 13.2053 2.00205 12.9625 1.90141C12.7198 1.80076 12.4595 1.74895 12.1967 1.74895C11.9338 1.74895 11.6736 1.80076 11.4308 1.90141C11.1881 2.00201 10.9674 2.14969 10.7817 2.33552L10.7451 2.37205C10.6836 2.43151 10.6057 2.47142 10.5215 2.4867C10.4363 2.50215 10.3484 2.49168 10.2692 2.45672L10.2626 2.45391C10.1849 2.42062 10.1187 2.36534 10.072 2.29488C10.0256 2.22472 10.0005 2.14256 10 2.05843V2C10 1.46957 9.78929 0.960859 9.41421 0.585786C9.03914 0.210714 8.53043 0 8 0ZM8 1.33333C7.82319 1.33333 7.65362 1.40357 7.5286 1.5286C7.40357 1.65362 7.33333 1.82319 7.33333 2V2.11599C7.33196 2.46053 7.22986 2.79715 7.03963 3.08441C6.84939 3.37167 6.5793 3.59703 6.26262 3.73276C6.20625 3.75692 6.14695 3.77313 6.08641 3.78104C5.79865 3.88181 5.48888 3.90665 5.18733 3.85197C4.84 3.789 4.5195 3.62341 4.26716 3.37658L4.2619 3.37143L4.22193 3.3314C4.16001 3.26942 4.08623 3.21999 4.00529 3.18644C3.92436 3.15289 3.83761 3.13562 3.75 3.13562C3.66239 3.13562 3.57564 3.15289 3.49471 3.18644C3.41377 3.21999 3.34025 3.26916 3.27833 3.33114C3.21635 3.39306 3.16665 3.46711 3.1331 3.54804C3.09955 3.62897 3.08228 3.71572 3.08228 3.80333C3.08228 3.89094 3.09955 3.97769 3.1331 4.05863C3.16665 4.13956 3.21582 4.21308 3.27781 4.275L3.32327 4.32046C3.57011 4.5728 3.73566 4.89334 3.79864 5.24067C3.86036 5.58109 3.82075 5.93198 3.68497 6.24985C3.56126 6.57422 3.34465 6.85511 3.06203 7.05725C2.7737 7.26348 2.42999 7.37819 2.07559 7.38648L2.06 7.38667H2C1.82319 7.38667 1.65362 7.4569 1.5286 7.58193C1.40357 7.70695 1.33333 7.87652 1.33333 8.05333C1.33333 8.23014 1.40357 8.39971 1.5286 8.52474C1.65362 8.64976 1.82319 8.72 2 8.72H2.11599C2.46053 8.72138 2.79715 8.82347 3.08441 9.01371C3.37068 9.20329 3.59548 9.47217 3.73136 9.78745C3.87272 10.1095 3.91474 10.4665 3.85197 10.8127C3.789 11.16 3.62341 11.4805 3.37658 11.7328L3.37143 11.7381L3.3314 11.7781C3.26942 11.84 3.21999 11.9138 3.18644 11.9947C3.15289 12.0756 3.13562 12.1624 3.13562 12.25C3.13562 12.3376 3.15289 12.4244 3.18644 12.5053C3.21999 12.5862 3.26916 12.6598 3.33114 12.7217C3.39306 12.7837 3.46711 12.8333 3.54804 12.8669C3.62897 12.9004 3.71572 12.9177 3.80333 12.9177C3.89094 12.9177 3.97769 12.9004 4.05863 12.8669C4.13956 12.8333 4.21309 12.7842 4.275 12.7222L4.32046 12.6767C4.57281 12.4299 4.89334 12.2643 5.24067 12.2014C5.58109 12.1396 5.93198 12.1792 6.24985 12.315C6.57422 12.4387 6.85511 12.6553 7.05725 12.938C7.26348 13.2263 7.37819 13.57 7.38648 13.9244L7.38667 13.94V14C7.38667 14.1768 7.4569 14.3464 7.58193 14.4714C7.70695 14.5964 7.87652 14.6667 8.05333 14.6667C8.23014 14.6667 8.39971 14.5964 8.52474 14.4714C8.64976 14.3464 8.72 14.1768 8.72 14V13.8867L8.72001 13.884C8.72138 13.5395 8.82347 13.2029 9.01371 12.9156C9.20329 12.6293 9.47217 12.4045 9.78745 12.2686C10.1095 12.1273 10.4665 12.0853 10.8127 12.148C11.16 12.211 11.4805 12.3766 11.7328 12.6234L11.7381 12.6286L11.7781 12.6686C11.84 12.7306 11.9138 12.78 11.9947 12.8136C12.0756 12.8471 12.1624 12.8644 12.25 12.8644C12.3376 12.8644 12.4244 12.8471 12.5053 12.8136C12.5862 12.78 12.6598 12.7308 12.7217 12.6689C12.7837 12.6069 12.8333 12.5329 12.8669 12.452C12.9004 12.371 12.9177 12.2843 12.9177 12.1967C12.9177 12.1091 12.9004 12.0223 12.8669 11.9414C12.8333 11.8604 12.7842 11.7869 12.7222 11.725L12.6767 11.6795C12.4299 11.4272 12.2643 11.1067 12.2014 10.7593C12.1386 10.4132 12.1806 10.0562 12.322 9.73412C12.4578 9.41884 12.6827 9.14996 12.9689 8.96038C13.2562 8.77014 13.5928 8.66805 13.9373 8.66667L13.94 8.66666L14 8.66667C14.1768 8.66667 14.3464 8.59643 14.4714 8.4714C14.5964 8.34638 14.6667 8.17681 14.6667 8C14.6667 7.82319 14.5964 7.65362 14.4714 7.5286C14.3464 7.40357 14.1768 7.33333 14 7.33333H13.8867L13.884 7.33333C13.5395 7.33195 13.2029 7.22986 12.9156 7.03963C12.6283 6.84939 12.403 6.5793 12.2672 6.26262C12.2431 6.20625 12.2269 6.14695 12.219 6.0864C12.1182 5.79865 12.0934 5.48888 12.148 5.18733C12.211 4.84 12.3766 4.5195 12.6234 4.26716L12.6286 4.2619L12.6686 4.22193C12.7306 4.16001 12.78 4.08622 12.8136 4.00529C12.8471 3.92436 12.8644 3.83761 12.8644 3.75C12.8644 3.66239 12.8471 3.57564 12.8136 3.49471C12.78 3.41378 12.7308 3.34025 12.6689 3.27833C12.6069 3.21635 12.5329 3.16665 12.452 3.1331C12.371 3.09955 12.2843 3.08228 12.1967 3.08228C12.1091 3.08228 12.0223 3.09955 11.9414 3.1331C11.8604 3.16665 11.7869 3.21583 11.725 3.27781L11.6795 3.32327C11.4272 3.57011 11.1067 3.73566 10.7593 3.79864C10.4132 3.8614 10.0562 3.81939 9.73412 3.67802C9.41884 3.54215 9.14996 3.31735 8.96038 3.03108C8.77014 2.74382 8.66805 2.4072 8.66667 2.06266L8.66667 2.06V2C8.66667 1.82319 8.59643 1.65362 8.4714 1.5286C8.34638 1.40357 8.17681 1.33333 8 1.33333Z" />
</svg>
