<svg viewBox="0 0 16 16" xmlns="http://www.w3.org/2000/svg">
<path fill="context-fill" d="M8 7C7.44772 7 7 7.44772 7 8C7 8.55228 7.44772 9 8 9C8.55228 9 9 8.55228 9 8C9 7.44772 8.55228 7 8 7ZM5 8C5 6.34315 6.34315 5 8 5C9.65685 5 11 6.34315 11 8C11 9.65685 9.65685 11 8 11C6.34315 11 5 9.65685 5 8Z" />
<path fill="context-fill" d="M8 2C7.92767 2 7.8583 2.02873 7.80715 2.07988C7.75601 2.13103 7.72727 2.2004 7.72727 2.27273V2.3849C7.72568 2.78469 7.60721 3.1753 7.38646 3.50863C7.16571 3.84196 6.85231 4.10346 6.48484 4.26096C6.41263 4.2919 6.33722 4.31416 6.26018 4.32739C5.93577 4.43476 5.58858 4.45966 5.25031 4.39832C4.84727 4.32524 4.47537 4.13311 4.18255 3.84668L4.17467 3.83897L4.13653 3.80074C4.1112 3.77539 4.08073 3.75488 4.04762 3.74115C4.01451 3.72743 3.97902 3.72036 3.94318 3.72036C3.90734 3.72036 3.87185 3.72743 3.83874 3.74115C3.80563 3.75488 3.77556 3.77499 3.75023 3.80035L3.74944 3.80114C3.72408 3.82647 3.70397 3.85654 3.69024 3.88965C3.67652 3.92276 3.66945 3.95825 3.66945 3.99409C3.66945 4.02993 3.67652 4.06542 3.69024 4.09853C3.70397 4.13164 3.72408 4.16172 3.74944 4.18705L3.79581 4.23342C4.08224 4.52623 4.27434 4.89818 4.34741 5.30122C4.41861 5.69388 4.37362 6.09855 4.21831 6.46566C4.07434 6.83923 3.82403 7.16271 3.49803 7.39588C3.16345 7.63518 2.76462 7.76829 2.35338 7.77791L2.33 7.77818H2.27273C2.2004 7.77818 2.13103 7.80691 2.07988 7.85806C2.02873 7.90921 2 7.97858 2 8.05091C2 8.12324 2.02873 8.19261 2.07988 8.24376C2.13103 8.2949 2.2004 8.32364 2.27273 8.32364H2.3849C2.78469 8.32523 3.1753 8.4437 3.50863 8.66445C3.84046 8.88421 4.10111 9.19578 4.25883 9.56112C4.42249 9.93458 4.47108 10.3484 4.39832 10.7497C4.32524 11.1527 4.13311 11.5246 3.84668 11.8174L3.83896 11.8253L3.80074 11.8635C3.77538 11.8888 3.75488 11.9193 3.74115 11.9524C3.72743 11.9855 3.72036 12.021 3.72036 12.0568C3.72036 12.0927 3.72743 12.1281 3.74115 12.1613C3.75488 12.1944 3.77499 12.2244 3.80035 12.2498L3.80114 12.2506C3.82646 12.2759 3.85654 12.296 3.88965 12.3098C3.92276 12.3235 3.95825 12.3305 3.99409 12.3305C4.02993 12.3305 4.06542 12.3235 4.09853 12.3098C4.13164 12.296 4.16172 12.2759 4.18705 12.2506L4.23342 12.2042C4.52623 11.9178 4.89818 11.7257 5.30122 11.6526C5.69388 11.5814 6.09856 11.6264 6.46568 11.7817C6.83924 11.9257 7.16271 12.176 7.39588 12.502C7.63518 12.8365 7.76829 13.2354 7.77791 13.6466L7.77818 13.67V13.7273C7.77818 13.7996 7.80691 13.869 7.85806 13.9201C7.90921 13.9713 7.97858 14 8.05091 14C8.12324 14 8.19261 13.9713 8.24376 13.9201C8.2949 13.869 8.32364 13.7996 8.32364 13.7273V13.6151C8.32523 13.2153 8.4437 12.8247 8.66445 12.4914C8.8842 12.1595 9.19578 11.8989 9.56112 11.7412C9.93458 11.5775 10.3484 11.5289 10.7497 11.6017C11.1527 11.6748 11.5246 11.8669 11.8174 12.1533L11.8253 12.161L11.8635 12.1993C11.8888 12.2246 11.9193 12.2451 11.9524 12.2588C11.9855 12.2726 12.021 12.2796 12.0568 12.2796C12.0927 12.2796 12.1281 12.2726 12.1613 12.2588C12.1944 12.2451 12.2244 12.225 12.2498 12.1996L12.2506 12.1989C12.2759 12.1735 12.296 12.1435 12.3098 12.1103C12.3235 12.0772 12.3305 12.0417 12.3305 12.0059C12.3305 11.9701 12.3235 11.9346 12.3098 11.9015C12.296 11.8684 12.2759 11.8383 12.2506 11.813L12.2042 11.7666C11.9178 11.4738 11.7257 11.1018 11.6526 10.6988C11.5798 10.2975 11.6284 9.88367 11.7921 9.51021C11.9498 9.14487 12.2105 8.8333 12.5423 8.61354C12.8756 8.39279 13.2662 8.27433 13.666 8.27274L13.67 8.27272L13.7273 8.27273C13.7996 8.27273 13.869 8.24399 13.9201 8.19285C13.9713 8.1417 14 8.07233 14 8C14 7.92767 13.9713 7.8583 13.9201 7.80715C13.869 7.75601 13.7996 7.72727 13.7273 7.72727H13.6151C13.2153 7.72568 12.8247 7.60721 12.4914 7.38646C12.158 7.16571 11.8965 6.85231 11.739 6.48484C11.7081 6.41263 11.6858 6.33722 11.6726 6.26018C11.5652 5.93577 11.5403 5.58858 11.6017 5.25031C11.6748 4.84727 11.8669 4.47537 12.1533 4.18255L12.161 4.17467L12.1993 4.13653C12.2246 4.1112 12.2451 4.08073 12.2588 4.04762C12.2726 4.01451 12.2796 3.97902 12.2796 3.94318C12.2796 3.90734 12.2726 3.87185 12.2588 3.83874C12.2451 3.80564 12.225 3.77556 12.1996 3.75023L12.1989 3.74944C12.1735 3.72408 12.1435 3.70397 12.1103 3.69024C12.0772 3.67652 12.0417 3.66945 12.0059 3.66945C11.9701 3.66945 11.9346 3.67652 11.9015 3.69024C11.8684 3.70397 11.8383 3.72409 11.813 3.74944L11.7666 3.79582C11.4738 4.08224 11.1018 4.27434 10.6988 4.34741C10.2975 4.42017 9.88367 4.37158 9.51021 4.20792C9.14487 4.0502 8.8333 3.78955 8.61354 3.45772C8.39279 3.12439 8.27433 2.73379 8.27274 2.33399L8.27272 2.33L8.27273 2.27273C8.27273 2.2004 8.24399 2.13103 8.19285 2.07988C8.1417 2.02873 8.07233 2 8 2ZM6.39294 0.665666C6.81916 0.239448 7.39723 0 8 0C8.60277 0 9.18084 0.239448 9.60706 0.665666C10.0333 1.09189 10.2727 1.66996 10.2727 2.27273V2.32671C10.2729 2.33622 10.2758 2.34548 10.281 2.35342C10.2864 2.36155 10.2941 2.36793 10.303 2.37177L10.3129 2.37599C10.322 2.38003 10.3321 2.38128 10.342 2.3795C10.3511 2.37784 10.3597 2.37364 10.3666 2.36741L10.398 2.33601C10.609 2.1247 10.8597 1.95707 11.1356 1.8427C11.4115 1.72832 11.7072 1.66945 12.0059 1.66945C12.3046 1.66945 12.6003 1.72832 12.8762 1.8427C13.152 1.95702 13.4026 2.12455 13.6136 2.33572C13.8246 2.54669 13.9921 2.79717 14.1064 3.07286C14.2208 3.34877 14.2796 3.64451 14.2796 3.94318C14.2796 4.24185 14.2208 4.5376 14.1064 4.8135C13.992 5.08941 13.8244 5.34006 13.6131 5.55114L13.5817 5.58253C13.5755 5.58943 13.5713 5.59794 13.5696 5.60713C13.5678 5.61696 13.569 5.6271 13.573 5.63623C13.5858 5.66519 13.5972 5.69468 13.6071 5.7246C13.612 5.72627 13.6172 5.72718 13.6224 5.72727H13.7273C14.33 5.72727 14.9081 5.96672 15.3343 6.39294C15.7606 6.81916 16 7.39723 16 8C16 8.60277 15.7606 9.18084 15.3343 9.60706C14.9081 10.0333 14.33 10.2727 13.7273 10.2727H13.6733C13.6638 10.2729 13.6545 10.2758 13.6466 10.281C13.6384 10.2864 13.6321 10.2941 13.6282 10.303L13.624 10.3129C13.62 10.322 13.6187 10.3321 13.6205 10.342C13.6222 10.3511 13.6264 10.3597 13.6326 10.3666L13.664 10.398C13.6641 10.3981 13.6639 10.3978 13.664 10.398C13.8751 10.609 14.043 10.8599 14.1573 11.1356C14.2717 11.4115 14.3305 11.7072 14.3305 12.0059C14.3305 12.3046 14.2717 12.6003 14.1573 12.8762C14.043 13.152 13.8755 13.4025 13.6644 13.6135C13.4534 13.8246 13.2029 13.9921 12.9271 14.1064C12.6512 14.2208 12.3555 14.2796 12.0568 14.2796C11.7581 14.2796 11.4624 14.2208 11.1865 14.1064C10.9106 13.992 10.6599 13.8244 10.4489 13.6131L10.4175 13.5817C10.4106 13.5755 10.4021 13.5713 10.3929 13.5696C10.383 13.5678 10.3729 13.569 10.3638 13.573L10.354 13.5774C10.345 13.5812 10.3373 13.5875 10.3319 13.5957C10.3267 13.6036 10.3238 13.6129 10.3236 13.6224V13.7273C10.3236 14.33 10.0842 14.9081 9.65797 15.3343C9.23175 15.7606 8.65368 16 8.05091 16C7.44814 16 6.87007 15.7606 6.44385 15.3343C6.01763 14.9081 5.77818 14.33 5.77818 13.7273V13.6892C5.77726 13.6807 5.77416 13.6725 5.76914 13.6655C5.7633 13.6573 5.75514 13.6511 5.74573 13.6476C5.72596 13.6404 5.70642 13.6325 5.68714 13.624C5.67801 13.6199 5.66787 13.6187 5.65803 13.6205C5.64885 13.6222 5.64034 13.6264 5.63343 13.6326L5.60205 13.664C5.39097 13.8753 5.14031 14.0429 4.86441 14.1573C4.58851 14.2717 4.29276 14.3305 3.99409 14.3305C3.69542 14.3305 3.39968 14.2717 3.12377 14.1573C2.84808 14.043 2.5976 13.8756 2.38662 13.6645C2.17545 13.4535 2.00792 13.2029 1.89361 12.9271C1.77923 12.6512 1.72036 12.3555 1.72036 12.0568C1.72036 11.7581 1.77923 11.4624 1.89361 11.1865C2.00798 10.9106 2.17561 10.6599 2.38692 10.4489L2.41832 10.4175C2.42455 10.4106 2.42875 10.4021 2.43041 10.3929C2.43219 10.383 2.43099 10.3729 2.42696 10.3638L2.42263 10.354C2.41878 10.345 2.41246 10.3373 2.40433 10.3319C2.39639 10.3267 2.38713 10.3238 2.37762 10.3236H2.27273C1.66996 10.3236 1.09189 10.0842 0.665666 9.65797C0.239448 9.23175 0 8.65367 0 8.05091C0 7.44814 0.239448 6.87007 0.665666 6.44385C1.09188 6.01763 1.66996 5.77818 2.27273 5.77818H2.3108C2.31933 5.77726 2.32751 5.77416 2.33453 5.76914C2.34269 5.7633 2.34891 5.75514 2.35237 5.74573C2.35965 5.72596 2.36754 5.70642 2.37605 5.68714C2.38008 5.678 2.38128 5.66787 2.3795 5.65803C2.37784 5.64886 2.37364 5.64034 2.3674 5.63343L2.33601 5.60205C2.33588 5.60191 2.33615 5.60218 2.33601 5.60205C2.12489 5.39105 1.957 5.14014 1.8427 4.86441C1.72832 4.58851 1.66945 4.29276 1.66945 3.99409C1.66945 3.69542 1.72832 3.39968 1.8427 3.12377C1.957 2.84804 2.1245 2.59752 2.33562 2.38653C2.54661 2.1754 2.79713 2.00791 3.07286 1.89361C3.34877 1.77923 3.64451 1.72036 3.94318 1.72036C4.24185 1.72036 4.5376 1.77923 4.8135 1.89361C5.08923 2.00791 5.33975 2.1754 5.55074 2.38653L5.58253 2.41831C5.58943 2.42455 5.59795 2.42875 5.60713 2.43041C5.61696 2.43219 5.62709 2.43099 5.63623 2.42696C5.66519 2.41418 5.69468 2.4028 5.7246 2.39286C5.72627 2.38798 5.72718 2.38285 5.72727 2.37764V2.27273C5.72727 1.66996 5.96672 1.09188 6.39294 0.665666Z" />
</svg>
