<svg width="16" height="16" viewBox="0 0 16 16" xmlns="http://www.w3.org/2000/svg">
<path fill="context-fill" fill-opacity="context-fill-opacity" fill-rule="evenodd" clip-rule="evenodd" d="M3.33337 4.66683C3.15656 4.66683 2.98699 4.73707 2.86197 4.86209C2.73695 4.98712 2.66671 5.15668 2.66671 5.3335V12.6668C2.66671 12.8436 2.73695 13.0132 2.86197 13.1382C2.98699 13.2633 3.15656 13.3335 3.33337 13.3335H10.6667C10.8435 13.3335 11.0131 13.2633 11.1381 13.1382C11.2631 13.0132 11.3334 12.8436 11.3334 12.6668V8.66683C11.3334 8.29864 11.6319 8.00016 12 8.00016C12.3682 8.00016 12.6667 8.29864 12.6667 8.66683V12.6668C12.6667 13.1973 12.456 13.706 12.0809 14.081C11.7058 14.4561 11.1971 14.6668 10.6667 14.6668H3.33337C2.80294 14.6668 2.29423 14.4561 1.91916 14.081C1.54409 13.706 1.33337 13.1973 1.33337 12.6668V5.3335C1.33337 4.80306 1.54409 4.29436 1.91916 3.91928C2.29423 3.54421 2.80294 3.3335 3.33337 3.3335H7.33337C7.70156 3.3335 8.00004 3.63197 8.00004 4.00016C8.00004 4.36835 7.70156 4.66683 7.33337 4.66683H3.33337Z" />
<path fill="context-fill" fill-opacity="context-fill-opacity" fill-rule="evenodd" clip-rule="evenodd" d="M9.33337 2.00016C9.33337 1.63197 9.63185 1.3335 10 1.3335H14C14.3682 1.3335 14.6667 1.63197 14.6667 2.00016V6.00016C14.6667 6.36835 14.3682 6.66683 14 6.66683C13.6319 6.66683 13.3334 6.36835 13.3334 6.00016V2.66683H10C9.63185 2.66683 9.33337 2.36835 9.33337 2.00016Z" />
<path fill="context-fill" fill-opacity="context-fill-opacity" fill-rule="evenodd" clip-rule="evenodd" d="M14.4714 1.52876C14.7318 1.78911 14.7318 2.21122 14.4714 2.47157L7.13807 9.8049C6.87772 10.0653 6.45561 10.0653 6.19526 9.8049C5.93491 9.54455 5.93491 9.12244 6.19526 8.86209L13.5286 1.52876C13.7889 1.26841 14.2111 1.26841 14.4714 1.52876Z" />
</svg>
