<svg width="96" height="96" viewBox="0 0 96 96" fill="none" xmlns="http://www.w3.org/2000/svg">
<path d="M40.9623 12.2546L6.10306 74.7423C5.38434 76.0788 5.00406 77.5941 5.00003 79.1373C4.99601 80.6806 5.36839 82.1981 6.08012 83.5389C6.79186 84.8797 7.81814 85.997 9.05687 86.7796C10.2956 87.5623 11.7036 87.983 13.1408 88H82.8592C84.2964 87.983 85.7044 87.5623 86.9431 86.7796C88.1819 85.997 89.2081 84.8797 89.9199 83.5389C90.6316 82.1981 91.004 80.6806 91 79.1373C90.9959 77.5941 90.6156 76.0788 89.8969 74.7423L55.0377 12.2546C54.304 10.9558 53.2709 9.88198 52.0382 9.13675C50.8055 8.39151 49.4147 8 48 8C46.5853 8 45.1945 8.39151 43.9618 9.13675C42.729 9.88198 41.696 10.9558 40.9623 12.2546V12.2546Z" fill="#FFD910"/>
<path d="M43 32.0556C43 29.2634 45.2634 27 48.0556 27V27C50.8477 27 53.1111 29.2634 53.1111 32.0556V52.2778C53.1111 55.0699 50.8477 57.3333 48.0556 57.3333V57.3333C45.2634 57.3333 43 55.0699 43 52.2778V32.0556Z" fill="#171717"/>
<path d="M43 72.4999C43 69.7078 45.2634 67.4443 48.0556 67.4443V67.4443C50.8477 67.4443 53.1111 69.7078 53.1111 72.4999V72.4999C53.1111 75.292 50.8477 77.5554 48.0556 77.5554V77.5554C45.2634 77.5554 43 75.292 43 72.4999V72.4999Z" fill="#171717"/>
</svg>
