<svg xmlns="http://www.w3.org/2000/svg" width="16" height="16" viewBox="0 0 16 16">
<path fill="context-fill" fill-opacity="context-fill-opacity" fill-rule="evenodd" clip-rule="evenodd" d="M12.9735 5C12.9318 4.82291 12.8423 4.65902 12.7127 4.52731L10.5187 2.29848C10.3767 2.15429 10.1956 2.05767 10 2.01899V5H12.9735ZM8 5V2H4C3.44772 2 3 2.44772 3 3V13C3 13.5523 3.44772 14 4 14H12C12.5523 14 13 13.5523 13 13V7H10C8.89543 7 8 6.10457 8 5ZM1 3V13C1 14.6569 2.34315 16 4 16H12C13.6569 16 15 14.6569 15 13V5.22883C15 4.44136 14.6904 3.68546 14.138 3.12427L11.944 0.895447C11.38 0.32259 10.6098 0 9.806 0H4C2.34315 0 1 1.34315 1 3Z" />
</svg>