<svg width="16" height="16" viewBox="0 0 16 16" xmlns="http://www.w3.org/2000/svg">
    <path fill="context-fill" fill-opacity="context-fill-opacity"
        d="M6 0C4.89543 0 4 0.895431 4 2V3H2C0.895431 3 0 3.89543 0 5V6H1C2.10457 6 3 6.89543 3 8C3 9.10457 2.10457 10 1 10H0V13C0 14.1046 0.895431 15 2 15H4V14C4 12.8954 4.89543 12 6 12C7.10457 12 8 12.8954 8 14V15H10C11.1046 15 12 14.1046 12 13V10H13C14.1046 10 15 9.10457 15 8C15 6.89543 14.1046 6 13 6H12V5C12 3.89543 11.1046 3 10 3H8V2C8 0.895431 7.10457 0 6 0Z" />
</svg>