<svg width="16" height="16" viewBox="0 0 16 16" xmlns="http://www.w3.org/2000/svg">
    <g clip-path="url(#clip0)">
        <path fill="context-fill" fill-opacity="context-fill-opacity"
            d="M10.8799 3.02319C10.2077 2.94076 9.51169 3.07808 8.91912 3.43515C8.67537 2.60563 7.90841 2 7 2C5.89543 2 5 2.89543 5 4V4.75C5 4.88807 5.11193 5 5.25 5H7.61777L3.32555 13.5889C2.92352 14.3934 2.91318 15.2543 3.18856 16H3C1.34315 16 0 14.6569 0 13V8C0 6.42731 1.21016 5.13726 2.75008 5.01026C2.88768 4.99891 3 4.88807 3 4.75V4C3 1.79086 4.79086 0 7 0C8.87218 0 10.444 1.28621 10.8799 3.02319Z" />
        <path
            d="M4.72361 14.5528L9.10557 5.78887C9.4741 5.05182 10.5259 5.05182 10.8944 5.78887L15.2764 14.5528C15.6088 15.2177 15.1253 16 14.382 16H5.61804C4.87465 16 4.39116 15.2177 4.72361 14.5528Z"
            fill="#FFD600" />
        <path fill="context-fill" fill-opacity="context-fill-opacity"
            d="M10 8C9.44772 8 9 8.44771 9 9V11C9 11.5523 9.44772 12 10 12C10.5523 12 11 11.5523 11 11V9C11 8.44771 10.5523 8 10 8Z" />
        <path fill="context-fill" fill-opacity="context-fill-opacity"
            d="M10 15C10.5523 15 11 14.5523 11 14C11 13.4477 10.5523 13 10 13C9.44772 13 9 13.4477 9 14C9 14.5523 9.44772 15 10 15Z" />
    </g>
    <defs>
        <clipPath id="clip0">
            <rect width="16" height="16" fill="white" transform="matrix(-1 0 0 1 16 0)" />
        </clipPath>
    </defs>
</svg>