<svg width="16" height="16" viewBox="0 0 16 16" xmlns="http://www.w3.org/2000/svg">
<path fill="context-fill" fill-rule="evenodd" clip-rule="evenodd" d="M8 0C8.55228 0 9 0.447715 9 1V3C9 3.55228 8.55228 4 8 4C7.44772 4 7 3.55228 7 3V1C7 0.447715 7.44772 0 8 0Z"/>
<path fill="context-fill" fill-rule="evenodd" clip-rule="evenodd" d="M12 8C12 8.55228 12.4477 9 13 9H15C15.5523 9 16 8.55228 16 8C16 7.44772 15.5523 7 15 7H13C12.4477 7 12 7.44772 12 8Z" fill-opacity="0.34"/>
<path fill="context-fill" fill-rule="evenodd" clip-rule="evenodd" d="M8 12C7.44772 12 7 12.4477 7 13V15C7 15.5523 7.44772 16 8 16C8.55228 16 9 15.5523 9 15V13C9 12.4477 8.55228 12 8 12Z" fill-opacity="0.56"/>
<path fill="context-fill" fill-rule="evenodd" clip-rule="evenodd" d="M0 8C0 7.44772 0.447715 7 1 7H3C3.55228 7 4 7.44772 4 8C4 8.55228 3.55228 9 3 9H1C0.447715 9 0 8.55228 0 8Z" fill-opacity="0.78"/>
<path fill="context-fill" fill-rule="evenodd" clip-rule="evenodd" d="M10.8284 5.17155C11.2189 5.56208 11.8521 5.56208 12.2426 5.17155L13.6568 3.75734C14.0473 3.36681 14.0473 2.73365 13.6568 2.34313C13.2663 1.9526 12.6331 1.9526 12.2426 2.34313L10.8284 3.75734C10.4379 4.14786 10.4379 4.78103 10.8284 5.17155Z" fill-opacity="0.23"/>
<path fill="context-fill" fill-rule="evenodd" clip-rule="evenodd" d="M10.8284 10.8284C10.4379 11.2189 10.4379 11.8521 10.8284 12.2426L12.2426 13.6568C12.6331 14.0474 13.2663 14.0474 13.6568 13.6568C14.0473 13.2663 14.0473 12.6332 13.6568 12.2426L12.2426 10.8284C11.8521 10.4379 11.2189 10.4379 10.8284 10.8284Z" fill-opacity="0.45"/>
<path fill="context-fill" fill-rule="evenodd" clip-rule="evenodd" d="M2.34303 13.6568C1.95251 13.2663 1.95251 12.6332 2.34303 12.2426L3.75725 10.8284C4.14777 10.4379 4.78094 10.4379 5.17146 10.8284C5.56199 11.2189 5.56199 11.8521 5.17146 12.2426L3.75725 13.6568C3.36672 14.0474 2.73356 14.0474 2.34303 13.6568Z" fill-opacity="0.67"/>
<path fill="context-fill" fill-rule="evenodd" clip-rule="evenodd" d="M2.34303 2.34313C2.73356 1.9526 3.36672 1.9526 3.75725 2.34313L5.17146 3.75734C5.56199 4.14786 5.56199 4.78103 5.17146 5.17155C4.78094 5.56208 4.14777 5.56208 3.75725 5.17155L2.34303 3.75734C1.95251 3.36681 1.95251 2.73365 2.34303 2.34313Z" fill-opacity="0.89"/>
</svg>