<svg width="16" height="16" viewBox="0 0 16 16" xmlns="http://www.w3.org/2000/svg">
    <style>
        @keyframes spin {
            0% {
                transform-origin: 8px 8px;
                transform: rotate(0turn);
            }

            100% {
                transform: rotate(360deg);
            }
        }

        svg {
            animation: 0.6s spin infinite linear;
        }
    </style>
    <path fill-rule="evenodd" clip-rule="evenodd" d="M7.05343 13.9249C7.03705 13.9214 7.02058 13.9183 7.00402 13.9156C6.172 13.7755 5.37502 13.4607 4.66725 12.9878C3.68075 12.3287 2.91187 11.3918 2.45783 10.2956C2.0038 9.19951 1.885 7.99335 2.11647 6.8297C2.34793 5.66604 2.91926 4.59716 3.75821 3.75821C4.59716 2.91926 5.66604 2.34793 6.8297 2.11647C7.99335 1.885 9.19951 2.0038 10.2956 2.45783C11.3918 2.91187 12.3287 3.68075 12.9878 4.66725C13.4607 5.37502 13.7755 6.172 13.9156 7.00402C13.9183 7.02058 13.9214 7.03705 13.9249 7.05343C13.9303 7.07928 13.9365 7.10488 13.9434 7.13021C13.9544 7.17018 13.9672 7.20946 13.9819 7.24788C14.1454 7.67723 14.5319 8 14.9994 8C15.552 8 16.0065 7.55029 15.9375 7.00199C15.783 5.77338 15.3448 4.59259 14.6518 3.55544C13.7727 2.23985 12.5233 1.21447 11.0615 0.608967C9.59966 0.00346625 7.99113 -0.15496 6.43928 0.153721C4.88743 0.462403 3.46197 1.22433 2.34315 2.34315C1.22433 3.46197 0.462403 4.88743 0.153721 6.43928C-0.15496 7.99113 0.00346631 9.59966 0.608967 11.0615C1.21447 12.5233 2.23985 13.7727 3.55544 14.6518C4.59259 15.3448 5.77338 15.783 7.00199 15.9375C7.55029 16.0065 8 15.552 8 14.9994C8 14.5319 7.67723 14.1454 7.24788 13.9819C7.20946 13.9672 7.17018 13.9544 7.13021 13.9434C7.10488 13.9365 7.07928 13.9303 7.05343 13.9249Z" fill="context-fill" fill-opacity="context-fill-opacity"/>
</svg>