<svg width="16" height="16" viewBox="0 0 16 16" xmlns="http://www.w3.org/2000/svg">
<g clip-path="url(#clip0)">
<path fill="context-fill" fill-opacity="context-fill-opacity" fill-rule="evenodd" clip-rule="evenodd" d="M8.00002 0C8.39521 0 8.75333 0.232734 8.91383 0.593862L10.7036 4.62092L15.1961 5.51942C15.5461 5.58941 15.8322 5.84059 15.9469 6.17853C16.0617 6.51646 15.9876 6.88993 15.7526 7.1585L12.578 10.7867L13.3877 14.8023C13.4619 15.1704 13.3237 15.549 13.0299 15.7826C12.7361 16.0163 12.3361 16.0658 11.9942 15.9106L8.02724 14.1105L4.56848 15.8893C4.24024 16.0581 3.8457 16.0324 3.54216 15.8224C3.23862 15.6123 3.07545 15.2522 3.1177 14.8855L3.5843 10.8361L0.259459 7.17199C0.0174705 6.90531 -0.0624448 6.52911 0.0502359 6.18709C0.162917 5.84507 0.450789 5.59004 0.803903 5.51942L5.2964 4.62092L7.08621 0.593862C7.24671 0.232734 7.60483 0 8.00002 0Z" />
</g>
<defs>
<clipPath id="clip0">
<rect width="16" height="16" fill="white"/>
</clipPath>
</defs>
</svg>
