<svg width="16" height="16" viewBox="0 0 16 16" xmlns="http://www.w3.org/2000/svg">
<path fill="context-fill" fill-opacity="context-fill-opacity" fill-rule="evenodd" clip-rule="evenodd" d="M9.68439 6.04589L8.00001 2.67712L6.31562 6.04589L2.54251 6.73191L5.30326 9.49265L4.63181 13.5213L8.00001 11.5004L11.3682 13.5213L10.6968 9.49265L13.4575 6.73191L9.68439 6.04589ZM3.69676 10.0075L2.97421 14.3428C2.83399 15.1841 3.74373 15.8035 4.4751 15.3647L8.00001 13.2497L11.5249 15.3647C12.2563 15.8035 13.166 15.1841 13.0258 14.3428L12.3033 10.0075L15.1929 7.11779C15.7633 6.54739 15.4584 5.57111 14.6647 5.42681L10.6906 4.70425L8.89444 1.11187C8.52591 0.374819 7.4741 0.37482 7.10558 1.11187L5.30939 4.70425L1.33529 5.42681C0.541638 5.57111 0.236674 6.54739 0.807069 7.11779L3.69676 10.0075Z" />
</svg>
