<svg width="16" height="16" viewBox="0 0 16 16" xmlns="http://www.w3.org/2000/svg">
<path fill="context-fill" fill-opacity="context-fill-opacity" fill-rule="evenodd" clip-rule="evenodd" d="M7.10557 1.11187C7.4741 0.374822 8.5259 0.374818 8.89443 1.11187L10.0656 3.45424L12.6647 3.92681C13.4584 4.07111 13.7633 5.04739 13.1929 5.61779L11.3032 7.50748L11.7758 10.3428C11.916 11.1841 11.0063 11.8035 10.2749 11.3647L8 9.99971L5.7251 11.3647C4.99373 11.8035 4.08399 11.1841 4.22421 10.3428L4.69675 7.50748L2.80706 5.61779C2.23667 5.04739 2.54163 4.07111 3.33528 3.92681L5.93438 3.45424L7.10557 1.11187ZM8 2.67712L7.16422 4.34867C7.02346 4.6302 6.75836 4.82902 6.44868 4.88533L4.5425 5.23191L5.93936 6.62876C6.16772 6.85712 6.27174 7.18171 6.21865 7.50027L5.8818 9.52134L7.4855 8.55912C7.80219 8.36911 8.19781 8.36911 8.5145 8.55912L10.1182 9.52134L9.78135 7.50027C9.72826 7.18171 9.83228 6.85712 10.0606 6.62876L11.4575 5.23191L9.55132 4.88533C9.24164 4.82902 8.97654 4.6302 8.83578 4.34867L8 2.67712Z" />
<path fill="context-fill" fill-opacity="context-fill-opacity" fill-rule="evenodd" clip-rule="evenodd" d="M1 10.2501C1.41421 10.2501 1.75 10.5859 1.75 11.0001V14.2501H14.25V11.0001C14.25 10.5859 14.5858 10.2501 15 10.2501C15.4142 10.2501 15.75 10.5859 15.75 11.0001V15.0001C15.75 15.4143 15.4142 15.7501 15 15.7501H1C0.585786 15.7501 0.25 15.4143 0.25 15.0001V11.0001C0.25 10.5859 0.585786 10.2501 1 10.2501Z" />
</svg>
