<svg width="16" height="16" viewBox="0 0 16 16" xmlns="http://www.w3.org/2000/svg">
<g clip-path="url(#clip0)">
<path fill="context-fill" fill-opacity="context-fill-opacity" fill-rule="evenodd" clip-rule="evenodd" d="M8.00002 0C8.39521 0 8.75333 0.232734 8.91383 0.593862L10.7036 4.62092L15.1961 5.51942C15.5461 5.58941 15.8322 5.84059 15.9469 6.17853C16.0617 6.51646 15.9876 6.88993 15.7526 7.1585L12.578 10.7867L13.3877 14.8023C13.4619 15.1704 13.3237 15.549 13.0299 15.7826C12.7361 16.0163 12.3361 16.0658 11.9942 15.9106L8.02724 14.1105L4.56848 15.8893C4.24024 16.0581 3.8457 16.0324 3.54216 15.8224C3.23862 15.6123 3.07545 15.2522 3.1177 14.8855L3.5843 10.8361L0.259459 7.17199C0.0174705 6.90531 -0.0624448 6.52911 0.0502359 6.18709C0.162917 5.84507 0.450789 5.59004 0.803903 5.51942L5.2964 4.62092L7.08621 0.593862C7.24671 0.232734 7.60483 0 8.00002 0ZM8.00002 3.46221L6.91383 5.90614C6.782 6.20275 6.51442 6.41692 6.19614 6.48058L2.92617 7.13457L5.37021 9.82801C5.5639 10.0415 5.65607 10.3281 5.62308 10.6145L5.31889 13.2544L7.54267 12.1107C7.81437 11.971 8.13503 11.9631 8.41325 12.0894L11.0408 13.2817L10.5197 10.6977C10.4582 10.3924 10.5424 10.0759 10.7474 9.8415L13.1097 7.14175L9.8039 6.48058C9.48562 6.41692 9.21803 6.20275 9.08621 5.90614L8.00002 3.46221Z" />
</g>
<defs>
<clipPath id="clip0">
<rect width="16" height="16" fill="white"/>
</clipPath>
</defs>
</svg>
