<svg width="16" height="16" viewBox="0 0 16 16" xmlns="http://www.w3.org/2000/svg">
<path fill="context-fill" fill-opacity="context-fill-opacity" d="M4.12962 10L4.60973 8.56534H6.79723L7.28018 10H8.40518L6.35405 4.18182H5.05291L3.00462 10H4.12962ZM4.89382 7.71875L5.68075 5.375H5.72621L6.51314 7.71875H4.89382Z" />
<path fill="context-fill" fill-opacity="context-fill-opacity" d="M10.3817 10.0881C11.0664 10.0881 11.4755 9.76705 11.663 9.40057H11.6971V10H12.6857V7.07955C12.6857 5.92614 11.7454 5.57955 10.913 5.57955C9.99538 5.57955 9.29084 5.98864 9.06357 6.78409L10.0238 6.92045C10.1261 6.62216 10.4158 6.36648 10.9187 6.36648C11.396 6.36648 11.6573 6.6108 11.6573 7.03977V7.05682C11.6573 7.35227 11.3477 7.36648 10.5778 7.44886C9.73118 7.53977 8.92152 7.79261 8.92152 8.77557C8.92152 9.63352 9.54936 10.0881 10.3817 10.0881ZM10.6488 9.33239C10.2198 9.33239 9.913 9.13636 9.913 8.75852C9.913 8.36364 10.2567 8.19886 10.717 8.13352C10.9869 8.09659 11.5266 8.02841 11.6602 7.92045V8.43466C11.6602 8.92045 11.2681 9.33239 10.6488 9.33239Z" />
<path fill="context-fill" fill-opacity="context-fill-opacity" fill-rule="evenodd" clip-rule="evenodd" d="M2 0C0.895431 0 0 0.895431 0 2V14C0 15.1046 0.895431 16 2 16H14C15.1046 16 16 15.1046 16 14V2C16 0.895431 15.1046 0 14 0H2ZM4 2C2.89543 2 2 2.89543 2 4V11C2 12.1046 2.89543 13 4 13H12C13.1046 13 14 12.1046 14 11V4C14 2.89543 13.1046 2 12 2H4Z" />
</svg>
