<svg width="16" height="16" viewBox="0 0 16 16" xmlns="http://www.w3.org/2000/svg">
<path fill="context-fill" fill-opacity="context-fill-opacity" fill-rule="evenodd" clip-rule="evenodd" d="M6.58579 1.58579C6.21071 1.21071 5.70201 1 5.17157 1H2C0.89543 1 0 1.89543 0 3V13C0 14.1046 0.895431 15 2 15H14C15.1046 15 16 14.1046 16 13V5C16 3.89543 15.1046 3 14 3H8.82843C8.29799 3 7.78929 2.78929 7.41421 2.41421L6.58579 1.58579ZM2 3V13H14V5H8.82843C7.76756 5 6.75015 4.57857 6 3.82843L5.17157 3L2 3Z" />
</svg>
