<svg width="16" height="16" viewBox="0 0 16 16" xmlns="http://www.w3.org/2000/svg">
<g clip-path="url(#clip0)">
<path fill="context-fill" fill-opacity="context-fill-opacity" d="M11.0123 2.73825C9.92314 2.11555 8.67207 1.87845 7.44616 2.05875C6.21996 2.23908 5.0776 2.8285 4.19342 3.74581C3.80813 4.14559 3.43084 4.5975 3.11434 5.00001H4.32877C4.59399 5.00001 4.84834 5.10536 5.03587 5.2929C5.2234 5.48044 5.32876 5.7348 5.32876 6.00002C5.32876 6.26523 5.2234 6.51959 5.03587 6.70712C4.84834 6.89466 4.59399 7.00002 4.32877 7.00002H0.99998C0.734785 7.00002 0.48039 6.89466 0.292893 6.70712C0.105397 6.51959 0 6.26523 0 6.00002V1.00001C0 0.734791 0.105397 0.480436 0.292893 0.2929C0.48039 0.105363 0.734785 6.7097e-06 0.99998 6.7097e-06C1.26517 6.7097e-06 1.51957 0.105363 1.70707 0.2929C1.89466 0.480436 1.99996 0.734791 1.99996 1.00001V3.19977C2.23546 2.91928 2.49045 2.63073 2.75345 2.35785C3.93873 1.12808 5.4828 0.325982 7.15517 0.0800296C8.82783 -0.165967 10.5304 0.15898 12.0049 1.00196C13.4788 1.84455 14.6416 3.15682 15.3251 4.735C16.0085 6.31278 16.1781 8.07562 15.8102 9.75974C15.4422 11.4441 14.555 12.9651 13.275 14.0903C11.9944 15.2161 10.3904 15.8839 8.70361 15.9862C7.01671 16.0885 5.3467 15.6192 3.94573 14.6542C3.92283 14.6384 3.90043 14.6216 3.87883 14.6039L3.87783 14.603L3.87533 14.6009L3.86603 14.5933L3.83153 14.5649C3.80183 14.5403 3.75923 14.505 3.70653 14.4611C3.60143 14.3734 3.45583 14.2511 3.29394 14.1126C2.97764 13.8419 2.57325 13.4872 2.29316 13.2071C1.90266 12.8166 1.90266 12.1834 2.29316 11.7929C2.68365 11.4024 3.31684 11.4024 3.70733 11.7929C3.92723 12.0128 4.27922 12.3234 4.59431 12.5931C4.74811 12.7247 4.88701 12.8413 4.98731 12.925C5.0375 12.9668 5.0778 13.0003 5.1055 13.0231L5.1143 13.0304C6.14474 13.7293 7.36033 14.064 8.58252 13.9899C9.81835 13.9149 11.0022 13.4254 11.9546 12.5882C12.9076 11.7504 13.5775 10.609 13.8563 9.3329C14.1351 8.05655 14.0059 6.72119 13.4899 5.52987C12.9741 4.33898 12.1022 3.36134 11.0123 2.73825Z" />
<path fill="context-fill" fill-opacity="context-fill-opacity" fill-rule="evenodd" clip-rule="evenodd" d="M9 4.25C9.41421 4.25 9.75 4.58579 9.75 5V8.27273C9.75 8.43225 9.69914 8.58761 9.6048 8.71625L7.6048 11.4435C7.35985 11.7775 6.8905 11.8498 6.55648 11.6048C6.22245 11.3599 6.15025 10.8905 6.3952 10.5565L8.25 8.0272V5C8.25 4.58579 8.58579 4.25 9 4.25Z" />
</g>
<defs>
<clipPath id="clip0">
<rect width="16" height="16" fill="white"/>
</clipPath>
</defs>
</svg>
