<svg width="16" height="16" viewBox="0 0 16 16" xmlns="http://www.w3.org/2000/svg">
<path fill="context-fill" fill-opacity="context-fill-opacity" fill-rule="evenodd" clip-rule="evenodd" d="M10 2C9.44771 2 9 1.55228 9 1C9 0.447715 9.44771 0 10 0H15C15.5523 0 16 0.447715 16 1V6C16 6.55228 15.5523 7 15 7C14.4477 7 14 6.55228 14 6V3.41421L10.7071 6.70711C10.3166 7.09763 9.68342 7.09763 9.29289 6.70711C8.90237 6.31658 8.90237 5.68342 9.29289 5.29289L12.5858 2H10ZM1 9C1.55228 9 2 9.44771 2 10V12.5858L5.29289 9.29289C5.68342 8.90237 6.31658 8.90237 6.70711 9.29289C7.09763 9.68342 7.09763 10.3166 6.70711 10.7071L3.41421 14H6C6.55228 14 7 14.4477 7 15C7 15.5523 6.55228 16 6 16H1C0.447715 16 0 15.5523 0 15V10C0 9.44771 0.447715 9 1 9Z" />
</svg>
