<svg width="16" height="16" viewBox="0 0 16 16" xmlns="http://www.w3.org/2000/svg">
<path fill="context-fill" fill-opacity="context-fill-opacity" fill-rule="evenodd" clip-rule="evenodd" d="M8 14C11.3137 14 14 11.3137 14 8C14 4.68629 11.3137 2 8 2C4.68629 2 2 4.68629 2 8C2 11.3137 4.68629 14 8 14ZM8 16C12.4183 16 16 12.4183 16 8C16 3.58172 12.4183 0 8 0C3.58172 0 0 3.58172 0 8C0 12.4183 3.58172 16 8 16Z" />
<path fill="context-fill" fill-opacity="context-fill-opacity" fill-rule="evenodd" clip-rule="evenodd" d="M7.5 4.25C7.91421 4.25 8.25 4.58579 8.25 5V8.18135C8.25 8.26158 8.2885 8.33693 8.35351 8.38394L10.4395 9.89224C10.7751 10.1349 10.8505 10.6038 10.6078 10.9395C10.3651 11.2751 9.8962 11.3505 9.56054 11.1078L7.4746 9.59946C7.01951 9.2704 6.75 8.74294 6.75 8.18135V5C6.75 4.58579 7.08579 4.25 7.5 4.25Z" />
</svg>
