<svg width="16" height="16" viewBox="0 0 16 16" xmlns="http://www.w3.org/2000/svg">
<path fill="context-fill" fill-opacity="context-fill-opacity" d="M5 8C5 7.44772 5.44772 7 6 7H10C10.5523 7 11 7.44772 11 8V14H9V9H7V14H5V8Z" />
<path fill="context-fill" fill-opacity="context-fill-opacity" d="M3 6.56126V14H13V6.56127L8 2.56126L3 6.56126ZM1.3753 5.29977L7.37531 0.49977C7.74052 0.207596 8.25948 0.207596 8.6247 0.499771L14.6247 5.29977C14.8619 5.48954 15 5.77686 15 6.08064V15C15 15.5523 14.5523 16 14 16H2C1.44772 16 1 15.5523 1 15V6.08064C1 5.77686 1.13809 5.48954 1.3753 5.29977Z" />
</svg>
