<svg width="16" height="16" viewBox="0 0 16 16" xmlns="http://www.w3.org/2000/svg">
<g clip-path="url(#clip0)">
<path fill="context-fill" fill-opacity="context-fill-opacity" fill-rule="evenodd" clip-rule="evenodd" d="M12 4C12.5523 4 13 4.44772 13 5V12.5419L14.284 11.225C14.6695 10.8295 15.3027 10.8215 15.6981 11.2071C16.0935 11.5926 16.1015 12.2257 15.716 12.6212L12.716 15.6981C12.5278 15.8911 12.2696 16 12 16C11.7304 16 11.4722 15.8911 11.284 15.6981L8.284 12.6212C7.89845 12.2257 7.90646 11.5926 8.3019 11.2071C8.69734 10.8215 9.33045 10.8295 9.716 11.225L11 12.5419V5C11 4.44772 11.4477 4 12 4Z" />
<path fill="context-fill" fill-opacity="context-fill-opacity" fill-rule="evenodd" clip-rule="evenodd" d="M4 12C3.44772 12 3 11.5523 3 11V3.4581L1.716 4.77502C1.33045 5.17046 0.697336 5.17847 0.3019 4.79292C-0.0935355 4.40737 -0.10155 3.77426 0.284 3.37882L3.284 0.3019C3.47221 0.108862 3.7304 0 4 0C4.26961 0 4.52779 0.108862 4.716 0.3019L7.716 3.37882C8.10155 3.77426 8.09354 4.40737 7.6981 4.79292C7.30266 5.17847 6.66955 5.17046 6.284 4.77502L5 3.4581V11C5 11.5523 4.55229 12 4 12Z" />
</g>
<defs>
<clipPath id="clip0">
<rect width="16" height="16" fill="white"/>
</clipPath>
</defs>
</svg>
