<svg width="16" height="16" viewBox="0 0 16 16" xmlns="http://www.w3.org/2000/svg">
<path fill="context-fill" fill-opacity="context-fill-opacity" fill-rule="evenodd" clip-rule="evenodd" d="M8 1.25C8.41421 1.25 8.75 1.58579 8.75 2V6.68934L9.46967 5.96967C9.76256 5.67678 10.2374 5.67678 10.5303 5.96967C10.8232 6.26256 10.8232 6.73744 10.5303 7.03033L8.53033 9.03033C8.38968 9.17098 8.19891 9.25 8 9.25C7.80109 9.25 7.61032 9.17098 7.46967 9.03033L5.46967 7.03033C5.17678 6.73744 5.17678 6.26256 5.46967 5.96967C5.76256 5.67678 6.23744 5.67678 6.53033 5.96967L7.25 6.68934V2C7.25 1.58579 7.58579 1.25 8 1.25Z" />
<path fill="context-fill" fill-opacity="context-fill-opacity" fill-rule="evenodd" clip-rule="evenodd" d="M11 4C11 4.55228 11.4477 5 12 5H13C13.5523 5 14 5.44772 14 6V13C14 13.5523 13.5523 14 13 14H3C2.44772 14 2 13.5523 2 13V6C2 5.44772 2.44772 5 3 5H4C4.55228 5 5 4.55228 5 4C5 3.44772 4.55228 3 4 3H3C1.34315 3 0 4.34315 0 6V13C0 14.6569 1.34315 16 3 16H13C14.6569 16 16 14.6569 16 13V6C16 4.34315 14.6569 3 13 3H12C11.4477 3 11 3.44772 11 4Z" />
</svg>
