<svg width="16" height="16" viewBox="0 0 16 16" xmlns="http://www.w3.org/2000/svg">
<g clip-path="url(#clip0)">
<path fill="context-fill" fill-opacity="context-fill-opacity" fill-rule="evenodd" clip-rule="evenodd" d="M8.6161 1.27025C9.43357 0.450334 10.5364 -0.0102286 11.689 0.000172428C12.8416 0.0105731 13.9362 0.490916 14.7394 1.32503C15.5414 2.15792 15.9901 3.27699 15.9998 4.43936C16.0096 5.60171 15.5797 6.72834 14.7921 7.57515L14.7802 7.58776L12.7709 9.67439C12.3319 10.1304 11.8013 10.4855 11.2136 10.7131C10.6258 10.9409 9.99628 11.0351 9.36842 10.9884C8.7406 10.9417 8.13152 10.7554 7.58262 10.4439C7.03386 10.1326 6.55906 9.70408 6.18858 9.18973C5.86579 8.74159 5.9674 8.11664 6.41554 7.79385C6.86367 7.47106 7.48863 7.57267 7.81142 8.02081C8.01625 8.30517 8.27544 8.53754 8.56957 8.70442C8.86356 8.87122 9.18655 8.96931 9.51676 8.99387C9.84693 9.01843 10.179 8.96908 10.4911 8.84818C10.8033 8.72723 11.0899 8.53682 11.33 8.28738L13.333 6.20726C13.7622 5.74274 14.0054 5.1148 13.9999 4.45609C13.9944 3.79465 13.7386 3.1691 13.2987 2.7123C12.8601 2.25674 12.2747 2.00554 11.671 2.00009C11.0694 1.99466 10.4824 2.23352 10.0371 2.67769L8.89048 3.86149C8.50624 4.2582 7.87315 4.2683 7.47645 3.88406C7.07974 3.49982 7.06964 2.86673 7.45388 2.47003L8.60596 1.28057L8.6161 1.27025ZM4.78642 5.28686C5.37424 5.05915 6.00372 4.96494 6.63158 5.01164C7.2594 5.05833 7.86848 5.24463 8.41738 5.55606C8.96613 5.8674 9.44094 6.29592 9.81142 6.81027C10.1342 7.25841 10.0326 7.88336 9.58446 8.20615C9.13632 8.52894 8.51137 8.42733 8.18858 7.97919C7.98375 7.69483 7.72456 7.46246 7.43043 7.29558C7.13644 7.12878 6.81345 7.03069 6.48324 7.00613C6.15307 6.98158 5.82097 7.03092 5.50888 7.15182C5.19665 7.27277 4.91014 7.46318 4.67003 7.71262L2.66698 9.79274C2.23779 10.2573 1.99458 10.8852 2.00009 11.5439C2.00563 12.2054 2.26138 12.8309 2.70125 13.2877C3.13994 13.7433 3.72532 13.9945 4.32901 13.9999C4.93013 14.0053 5.51682 13.7668 5.96197 13.3233L7.1008 12.1406C7.48388 11.7428 8.11693 11.7308 8.51476 12.1139C8.91258 12.497 8.92453 13.1301 8.54145 13.5279L7.39606 14.7173L7.3839 14.7297C6.56643 15.5497 5.46355 16.0102 4.31096 15.9998C3.15841 15.9894 2.06381 15.5091 1.2606 14.675C0.458572 13.8421 0.00988798 12.723 0.000161511 11.5606C-0.00956472 10.3983 0.420297 9.27166 1.20787 8.42485L1.2198 8.41225L3.22913 6.32561C3.22917 6.32556 3.22909 6.32565 3.22913 6.32561C3.66803 5.86969 4.19879 5.5145 4.78642 5.28686Z" />
</g>
<defs>
<clipPath id="clip0">
<rect width="16" height="16" fill="white"/>
</clipPath>
</defs>
</svg>
