<svg width="16" height="16" viewBox="0 0 16 16" xmlns="http://www.w3.org/2000/svg">
<path fill="context-fill" fill-opacity="context-fill-opacity" fill-rule="evenodd" clip-rule="evenodd" d="M0 4C0 2.34315 1.34315 1 3 1H13C14.6569 1 16 2.34315 16 4V12C16 13.6569 14.6569 15 13 15H3C1.34315 15 0 13.6569 0 12V4ZM12.4008 3H3.52546L7.78564 6.69808L12.4008 3ZM2 4.32423V12C2 12.5523 2.44772 13 3 13H13C13.5523 13 14 12.5523 14 12V4.28147L8.38532 8.78042C8.00833 9.08249 7.4693 9.07188 7.10449 8.75521L2 4.32423Z" />
</svg>
