<svg width="12" height="12" viewBox="0 0 12 12" xmlns="http://www.w3.org/2000/svg">
<g clip-path="url(#clip0)">
<path fill="context-fill" fill-opacity="context-fill-opacity" fill-rule="evenodd" clip-rule="evenodd" d="M6.27637 5.72141C5.90709 5.35075 5.90799 4.75069 6.27839 4.38114L8.75216 1.91306L8.33619 1.8945C7.81368 1.87118 7.409 1.42839 7.4323 0.9055C7.45561 0.382614 7.89808 -0.0223633 8.42059 0.000958827H11.0923C11.5833 0.022873 11.9788 0.508617 11.9992 1V3.59294C12.0209 4.11589 11.6149 4.55746 11.0923 4.5792C10.5697 4.60094 10.1285 4.19463 10.1067 3.67167L10.0894 3.25535L7.61567 5.72343C7.24527 6.09298 6.64565 6.09207 6.27637 5.72141Z" />
<path fill="context-fill" fill-opacity="context-fill-opacity" d="M5 1C5 1.55228 4.55228 2 4 2H3C2.44772 2 2 2.44772 2 3V9C2 9.55228 2.44772 10 3 10H9C9.55228 10 10 9.55228 10 9V8C10 7.44772 10.4477 7 11 7C11.5523 7 12 7.44772 12 8V9C12 10.6569 10.6569 12 9 12H3C1.34315 12 0 10.6569 0 9V3C0 1.34315 1.34315 2.34758e-10 3 2.34758e-10H4C4.55228 2.34758e-10 5 0.447715 5 1Z" />
</g>
<defs>
<clipPath id="clip0">
<rect width="12" height="12" fill="white"/>
</clipPath>
</defs>
</svg>
