<svg width="16" height="16" viewBox="0 0 16 16" xmlns="http://www.w3.org/2000/svg">
<path fill="context-fill" fill-opacity="context-fill-opacity" fill-rule="evenodd" clip-rule="evenodd" d="M8.07996 15.7495C7.66574 15.7495 7.32996 15.4137 7.32996 14.9995V10.3102L6.61029 11.0298C6.31739 11.3227 5.84252 11.3227 5.54963 11.0298C5.25673 10.7369 5.25673 10.2621 5.54963 9.96918L7.54963 7.96918C7.69028 7.82853 7.88104 7.74951 8.07996 7.74951C8.27887 7.74951 8.46963 7.82853 8.61029 7.96918L10.6103 9.96918C10.9032 10.2621 10.9032 10.7369 10.6103 11.0298C10.3174 11.3227 9.84252 11.3227 9.54963 11.0298L8.82996 10.3102V14.9995C8.82996 15.4137 8.49417 15.7495 8.07996 15.7495Z" />
<path fill="context-fill" fill-opacity="context-fill-opacity" fill-rule="evenodd" clip-rule="evenodd" d="M5 13C5 12.4477 4.55228 12 4 12H3C2.44772 12 2 11.5523 2 11V4C2 3.44771 2.44771 3 3 3H13C13.5523 3 14 3.44772 14 4V11C14 11.5523 13.5523 12 13 12H12C11.4477 12 11 12.4477 11 13C11 13.5523 11.4477 14 12 14H13C14.6569 14 16 12.6569 16 11V4C16 2.34315 14.6569 1 13 1H3C1.34315 1 0 2.34315 0 4V11C0 12.6569 1.34315 14 3 14H4C4.55228 14 5 13.5523 5 13Z" />
</svg>
