<svg width="16" height="16" viewBox="0 0 16 16" xmlns="http://www.w3.org/2000/svg">
<path fill="context-fill" fill-opacity="context-fill-opacity" fill-rule="evenodd" clip-rule="evenodd" d="M13.886 1.46421C13.9956 1.25438 14.0288 1.00928 13.9745 0.774812C13.9389 0.619984 13.8673 0.478892 13.7691 0.360792C13.7052 0.283744 13.6314 0.218289 13.5507 0.165154C13.3928 0.0607716 13.2035 0 13 0H3.00099C2.7834 0 2.58106 0.0694928 2.41692 0.187494C2.34981 0.235581 2.28806 0.292476 2.23355 0.357662C2.1274 0.484191 2.052 0.63739 2.01885 0.805754C2.00046 0.898521 1.99561 0.992499 2.00356 1.08493C2.01564 1.2286 2.0581 1.36364 2.12449 1.48358C2.20417 1.62821 2.32059 1.7548 2.46955 1.84788C2.48362 1.85669 2.49791 1.86517 2.51243 1.87329C4.03919 2.74829 4.47892 3.69226 4.43858 4.57976C4.39309 5.58058 3.7317 6.85086 2.30508 8.28091C2.11697 8.46274 2 8.71771 2 9C2 9.12808 2.02408 9.25053 2.06795 9.36308C2.1167 9.48848 2.1917 9.60603 2.29294 9.70728C2.49292 9.90726 2.75653 10.0048 3.0186 10H7V15C7 15.5523 7.44772 16 8 16C8.55228 16 9 15.5523 9 15V10H12.9826C13.2579 10.0047 13.5339 9.89633 13.7352 9.67796C13.8355 9.56923 13.907 9.44425 13.9503 9.31233C13.9825 9.21406 14 9.10907 14 9C14 8.82585 13.9555 8.66209 13.8772 8.51949C13.8499 8.46976 13.8182 8.42191 13.7819 8.37656C13.7469 8.33272 13.7083 8.29188 13.6665 8.25451C12.1436 6.84703 11.5599 5.59794 11.56 4.62527C11.5601 3.7107 12.0822 2.7405 13.5168 1.85626C13.5271 1.85004 13.5373 1.84363 13.5473 1.83705C13.6951 1.74049 13.8093 1.61098 13.886 1.46421ZM10.419 2H5.65068C6.20767 2.79274 6.48114 3.68899 6.43652 4.67058C6.3851 5.80182 5.91171 6.92426 5.15922 8H10.769C9.99504 6.91031 9.55983 5.77347 9.55998 4.62501C9.56011 3.66013 9.86556 2.7799 10.419 2Z" />
</svg>
