<svg width="16" height="16" viewBox="0 0 16 16" xmlns="http://www.w3.org/2000/svg">
<path fill="context-fill" fill-opacity="context-fill-opacity" fill-rule="evenodd" clip-rule="evenodd" d="M3 1V5H2C0.895431 5 0 5.89543 0 7V11C0 11.5523 0.447715 12 1 12H3V15C3 15.5523 3.44772 16 4 16H12C12.5523 16 13 15.5523 13 15V12H15C15.5523 12 16 11.5523 16 11V7C16 5.89543 15.1046 5 14 5H13V1C13 0.447715 12.5523 0 12 0H4C3.44772 0 3 0.447715 3 1ZM4.5 1.5V5H11.5V1.5H4.5ZM11.5 9.5H4.5V14.5H11.5V9.5Z" />
</svg>
