<svg width="24" height="24" viewBox="0 0 24 24" fill="none" xmlns="http://www.w3.org/2000/svg">
<path d="M12 24C5.4 24 0 18.6 0 12C0 5.4 5.4 0 12 0C18.6 0 24 5.4 24 12C24 18.6 18.6 24 12 24Z" fill="#8400FF"/>
<path fill-rule="evenodd" clip-rule="evenodd" d="M5.00231 15.9141C5.03708 15.4648 5.45601 15.1268 5.938 15.1592C9.97925 15.4311 13.6176 15.4456 18.0646 15.1591C18.5467 15.128 18.9646 15.4672 18.9979 15.9166C19.0312 16.366 18.6674 16.7556 18.1853 16.7866C13.6574 17.0783 9.93665 17.0639 5.81206 16.7864C5.33007 16.754 4.96753 16.3635 5.00231 15.9141Z" fill="white"/>
<path d="M7.93199 7.77653C8.06013 7.17894 8.78589 6.83165 9.41936 7.08238C12.7684 8.40795 11.246 8.48059 14.6697 7.13655C15.2798 6.89706 15.9837 7.20936 16.1459 7.77661L17.2165 13.1425C17.3906 13.7515 16.8638 14.3414 16.1459 14.3414H7.85387C7.16292 14.3414 6.64193 13.7925 6.76927 13.1987L7.93199 7.77653Z" fill="white"/>
</svg>
