<svg width="16" height="16" viewBox="0 0 16 16" xmlns="http://www.w3.org/2000/svg">
<path fill="context-fill" fill-opacity="context-fill-opacity" fill-rule="evenodd" clip-rule="evenodd" d="M8 0C8.55228 0 9 0.447715 9 1V7C9 7.55228 8.55228 8 8 8C7.44772 8 7 7.55228 7 7V1C7 0.447715 7.44772 0 8 0Z" />
<path fill="context-fill" fill-opacity="context-fill-opacity" d="M5 2.18089C5 1.41633 4.22471 0.903731 3.58733 1.326C1.42554 2.75819 0 5.21262 0 8C0 12.4183 3.58172 16 8 16C12.4183 16 16 12.4183 16 8C16 5.21262 14.5745 2.75819 12.4127 1.326C11.7753 0.903731 11 1.41633 11 2.18089C11 2.56572 11.2098 2.91529 11.5212 3.14136C13.0233 4.23184 14 6.00186 14 8C14 11.3137 11.3137 14 8 14C4.68629 14 2 11.3137 2 8C2 6.00186 2.97674 4.23184 4.47881 3.14136C4.79022 2.91529 5 2.56571 5 2.18089Z" />
</svg>
