<svg width="16" height="16" viewBox="0 0 16 16" xmlns="http://www.w3.org/2000/svg">
    <path fill="context-fill" fill-opacity="context-fill-opacity" d="M4.98776 2.73825C6.07697 2.11555 7.32807 1.87845 8.554 2.05875C9.78022 2.23908 10.9226 2.8285 11.8068 3.74581C12.1921 4.14559 12.5694 4.5975 12.8859 5.00001H12.3141H10.0003C9.73507 5.00001 9.48072 5.10536 9.29318 5.2929C9.10565 5.48044 9.00029 5.73479 9.00029 6.00001C9.00029 6.26522 9.10565 6.51958 9.29318 6.70711C9.48072 6.89465 9.73507 7.00001 10.0003 7.00001H15.0003C15.2655 7.00001 15.5199 6.89465 15.7074 6.70711C15.8949 6.51958 16.0003 6.26522 16.0003 6.00001V1.00001C16.0003 0.73479 15.8949 0.480436 15.7074 0.2929C15.5199 0.105363 15.2655 6.64622e-06 15.0003 6.64622e-06C14.7351 6.64622e-06 14.4807 0.105363 14.2932 0.2929C14.1056 0.480436 14.0003 0.73479 14.0003 1.00001V3.19977C13.7648 2.91928 13.5098 2.63073 13.2468 2.35785C12.0615 1.12808 10.5174 0.325982 8.845 0.0800295C7.1723 -0.165967 5.46966 0.15898 3.99513 1.00196C2.52129 1.84455 1.35839 3.15682 0.674865 4.735C-0.00848563 6.31277 -0.178071 8.07561 0.189825 9.75973C0.557771 11.4441 1.44502 12.9651 2.72504 14.0903C4.00566 15.2161 5.60973 15.8839 7.29653 15.9862C8.98346 16.0885 10.6535 15.6192 12.0545 14.6542C12.0774 14.6384 12.0998 14.6216 12.1214 14.6039L11.4872 13.8307L12.1214 14.6038L12.1215 14.6038L12.1217 14.6036L12.1224 14.603L12.1249 14.6009L12.1342 14.5933L12.1687 14.5649C12.1984 14.5403 12.241 14.505 12.2937 14.4611C12.3988 14.3734 12.5444 14.2511 12.7063 14.1126C13.0226 13.8419 13.427 13.4872 13.7071 13.2071C14.0976 12.8166 14.0976 12.1834 13.7071 11.7929C13.3166 11.4024 12.6834 11.4024 12.2929 11.7929C12.073 12.0128 11.721 12.3234 11.4059 12.5931C11.2521 12.7247 11.1132 12.8413 11.0129 12.925C10.9627 12.9668 10.9224 13.0003 10.8947 13.0231L10.8859 13.0304C9.85545 13.7293 8.63983 14.064 7.41762 13.9899C6.18177 13.9149 4.99793 13.4254 4.04551 12.5882C3.09248 11.7504 2.42252 10.609 2.14375 9.33289C1.86493 8.05654 1.99416 6.72118 2.51012 5.52987C3.02592 4.33898 3.89786 3.36134 4.98776 2.73825Z" />
</svg>
