<svg width="16" height="16" viewBox="0 0 16 16" xmlns="http://www.w3.org/2000/svg">
<g clip-path="url(#clip0)">
<path fill="context-fill" fill-opacity="context-fill-opacity" fill-rule="evenodd" clip-rule="evenodd" d="M2 6V11C2 11.5523 2.44772 12 3 12H8.77267L8.21967 11.3967C7.92678 11.0772 7.92678 10.5592 8.21967 10.2396C8.51256 9.92012 8.98744 9.92012 9.28033 10.2396L11.2803 12.4215C11.421 12.5749 11.5 12.783 11.5 13C11.5 13.217 11.421 13.4251 11.2803 13.5785L9.28033 15.7604C8.98744 16.0799 8.51256 16.0799 8.21967 15.7604C7.92678 15.4408 7.92678 14.9228 8.21967 14.6033L8.77267 14H3C1.34315 14 0 12.6569 0 11V3C0 1.34315 1.34315 0 3 0H13C14.6569 0 16 1.34315 16 3V7C16 7.55228 15.5523 8 15 8C14.4477 8 14 7.55228 14 7V6H2ZM13 2H3C2.44772 2 2 2.44772 2 3V4H14V3C14 2.44772 13.5523 2 13 2Z" />
</g>
<defs>
<clipPath id="clip0">
<rect width="16" height="16" fill="white"/>
</clipPath>
</defs>
</svg>
