<svg width="16" height="16" viewBox="0 0 16 16" xmlns="http://www.w3.org/2000/svg">
<g clip-path="url(#clip0)">
<path fill="context-fill" fill-opacity="context-fill-opacity" fill-rule="evenodd" clip-rule="evenodd" d="M3 0C1.34315 0 0 1.34315 0 3V13C0 14.6569 1.34315 16 3 16H13C14.6569 16 16 14.6569 16 13L16.0001 4L12.0001 0H3ZM12 2.82837L14 4.82837V13C14 13.5523 13.5523 14 13 14H12V9C12 8.44771 11.5523 8 11 8H5C4.44772 8 4 8.44771 4 9V14H3C2.44772 14 2 13.5523 2 13V3C2 2.44772 2.44772 2 3 2H4V5C4 5.55228 4.44772 6 5 6H11C11.5523 6 12 5.55228 12 5V2.82837ZM10 14V10H6V14H10ZM6 2H10V4H6V2Z" />
</g>
<defs>
<clipPath id="clip0">
<rect width="16" height="16" fill="white"/>
</clipPath>
</defs>
</svg>
