<svg width="16" height="16" viewBox="0 0 16 16" xmlns="http://www.w3.org/2000/svg">
<path fill="context-fill" fill-opacity="context-fill-opacity" fill-rule="evenodd" clip-rule="evenodd" d="M6 2H12C12.5523 2 13 2.44772 13 3V13C13 13.5523 12.5523 14 12 14H6C5.44772 14 5 13.5523 5 13C5 12.4477 4.55228 12 4 12C3.44772 12 3 12.4477 3 13C3 14.6569 4.34315 16 6 16H12C13.6569 16 15 14.6569 15 13V3C15 1.34315 13.6569 0 12 0H6C4.34315 0 3 1.34315 3 3C3 3.55228 3.44772 4 4 4C4.55228 4 5 3.55228 5 3C5 2.44772 5.44772 2 6 2ZM9 13C9.55228 13 10 12.5523 10 12C10 11.4477 9.55228 11 9 11C8.44772 11 8 11.4477 8 12C8 12.5523 8.44772 13 9 13Z" />
<path fill="context-fill" fill-opacity="context-fill-opacity" fill-rule="evenodd" clip-rule="evenodd" d="M0 8C0 7.54813 0.335786 7.18182 0.75 7.18182H5.43934L4.71967 6.39672C4.42678 6.0772 4.42678 5.55916 4.71967 5.23964C5.01256 4.92012 5.48744 4.92012 5.78033 5.23964L7.78033 7.42146C7.92098 7.5749 8 7.783 8 8C8 8.217 7.92098 8.4251 7.78033 8.57854L5.78033 10.7604C5.48744 11.0799 5.01256 11.0799 4.71967 10.7604C4.42678 10.4408 4.42678 9.9228 4.71967 9.60328L5.43934 8.81818H0.75C0.335786 8.81818 0 8.45187 0 8Z" />
</svg>
