<svg width="16" height="16" viewBox="0 0 16 16" xmlns="http://www.w3.org/2000/svg">
<path fill="context-fill" fill-opacity="context-fill-opacity" fill-rule="evenodd" clip-rule="evenodd" d="M7.99202 2.85708C6.17837 2.84261 4.23216 3.91742 2.87247 6.34507C2.6026 6.82692 1.9932 6.99876 1.51134 6.72888C1.02949 6.45901 0.857646 5.84961 1.12753 5.36775C2.76784 2.43906 5.32163 0.835706 8.00798 0.857146C10.2527 0.875062 12.4003 2.02576 14 4.15242V2.00007C14 1.44779 14.4477 1.00007 15 1.00007C15.5523 1.00007 16 1.44779 16 2.00007V7.00007C16 7.55236 15.5523 8.00007 15 8.00007H11C10.4477 8.00007 10 7.55236 10 7.00007C10 6.44779 10.4477 6.00007 11 6.00007H12.8434C11.4995 3.83553 9.68511 2.8706 7.99202 2.85708ZM0 9.00007C0 8.44779 0.447715 8.00007 1 8.00007H5C5.55228 8.00007 6 8.44779 6 9.00007C6 9.55236 5.55228 10.0001 5 10.0001H3.15658C4.50081 12.1652 6.31302 13.1251 8 13.1251C9.8066 13.1251 11.7568 12.0242 13.1221 9.52122C13.3866 9.03637 13.994 8.85771 14.4789 9.12218C14.9637 9.38664 15.1424 9.99408 14.8779 10.4789C13.2432 13.4759 10.6934 15.1251 8 15.1251C5.74981 15.1251 3.59987 13.974 2 11.8476V14.0001C2 14.5524 1.55228 15.0001 1 15.0001C0.447715 15.0001 0 14.5524 0 14.0001V9.00007Z" />
</svg>
