<svg width="16" height="16" viewBox="0 0 16 16" xmlns="http://www.w3.org/2000/svg">
<g clip-path="url(#clip0)">
<path fill="context-fill" fill-opacity="context-fill-opacity" fill-rule="evenodd" clip-rule="evenodd" d="M13.9745 0.774812C14.0288 1.00928 13.9956 1.25438 13.886 1.46421C13.8093 1.61098 13.6951 1.74049 13.5473 1.83705C13.5373 1.84363 13.5271 1.85004 13.5168 1.85626C12.0822 2.7405 11.5601 3.7107 11.56 4.62527C11.56 4.70378 11.5638 4.78408 11.5715 4.86612L9.96834 6.57621C9.70203 5.93403 9.55989 5.28142 9.55998 4.62501C9.56011 3.66013 9.86556 2.7799 10.419 2H5.65068C6.20767 2.79274 6.48114 3.68899 6.43652 4.67058C6.3851 5.80182 5.91171 6.92426 5.15922 8H8.63354L6.75854 10H3.0186C2.75653 10.0048 2.49292 9.90726 2.29294 9.70728C2.1917 9.60603 2.1167 9.48848 2.06795 9.36308C2.02408 9.25053 2 9.12808 2 9C2 8.71771 2.11697 8.46274 2.30508 8.28091C3.7317 6.85086 4.39309 5.58058 4.43858 4.57976C4.47892 3.69226 4.03919 2.74829 2.51243 1.87329C2.49791 1.86517 2.48362 1.85669 2.46955 1.84788C2.32059 1.7548 2.20417 1.62821 2.12449 1.48358C2.0581 1.36364 2.01564 1.2286 2.00356 1.08493C1.99561 0.992499 2.00046 0.898521 2.01885 0.805754C2.052 0.63739 2.1274 0.484191 2.23355 0.357662C2.28806 0.292476 2.34981 0.235581 2.41692 0.187494C2.58106 0.0694928 2.7834 0 3.00099 0H13C13.2035 0 13.3928 0.0607716 13.5507 0.165154C13.6314 0.218289 13.7052 0.283744 13.7691 0.360792C13.8673 0.478892 13.9389 0.619984 13.9745 0.774812ZM7 12.6667V15C7 15.5523 7.44772 16 8 16C8.55228 16 9 15.5523 9 15V10.5333L7 12.6667ZM9.5 10H12.9826C13.2579 10.0047 13.5339 9.89633 13.7352 9.67796C13.8355 9.56923 13.907 9.44425 13.9503 9.31233C13.9825 9.21406 14 9.10907 14 9C14 8.82585 13.9555 8.66209 13.8772 8.51949C13.8499 8.46976 13.8182 8.42191 13.7819 8.37656C13.7469 8.33272 13.7083 8.29188 13.6665 8.25451C13.1491 7.77631 12.7401 7.31639 12.4256 6.87939L9.5 10Z" />
<path d="M0.292922 15.293C-0.0976021 14.9025 -0.0976021 14.2694 0.292922 13.8788L13.8787 0.293045C14.2692 -0.0974794 14.9024 -0.0974797 15.2929 0.293045C15.6834 0.683569 15.6834 1.31673 15.2929 1.70726L1.70714 15.293C1.31661 15.6836 0.683446 15.6836 0.292922 15.293Z" fill="#EF3F56"/>
</g>
<defs>
<clipPath id="clip0">
<rect width="16" height="16" fill="white"/>
</clipPath>
</defs>
</svg>
