<svg width="16" height="16" viewBox="0 0 16 16" xmlns="http://www.w3.org/2000/svg">
<g clip-path="url(#clip0)">
<path fill="context-fill" fill-opacity="context-fill-opacity" d="M3.94654 1.72844L3.48753 0.35139C3.33135 -0.11713 2.66865 -0.11713 2.51247 0.35139L2.05346 1.72844C2.00231 1.88189 1.88189 2.00231 1.72844 2.05346L0.35139 2.51247C-0.11713 2.66865 -0.11713 3.33135 0.35139 3.48753L1.72844 3.94654C1.88189 3.99769 2.00231 4.11811 2.05346 4.27156L2.51247 5.64861C2.66865 6.11713 3.33135 6.11713 3.48753 5.64861L3.94654 4.27156C3.99769 4.11811 4.11811 3.99769 4.27156 3.94654L5.64861 3.48753C6.11713 3.33135 6.11713 2.66865 5.64861 2.51247L4.27156 2.05346C4.11811 2.00231 3.99769 1.88189 3.94654 1.72844Z" />
<path fill="context-fill" fill-opacity="context-fill-opacity" d="M3.94654 11.7284L3.48753 10.3514C3.33135 9.88287 2.66865 9.88287 2.51247 10.3514L2.05346 11.7284C2.00231 11.8819 1.88189 12.0023 1.72844 12.0535L0.35139 12.5125C-0.11713 12.6686 -0.11713 13.3314 0.35139 13.4875L1.72844 13.9465C1.88189 13.9977 2.00231 14.1181 2.05346 14.2716L2.51247 15.6486C2.66865 16.1171 3.33135 16.1171 3.48753 15.6486L3.94654 14.2716C3.99769 14.1181 4.11811 13.9977 4.27156 13.9465L5.64861 13.4875C6.11713 13.3314 6.11713 12.6686 5.64861 12.5125L4.27156 12.0535C4.11811 12.0023 3.99769 11.8819 3.94654 11.7284Z" />
<path fill="context-fill" fill-opacity="context-fill-opacity" d="M11.8931 5.03302L10.9751 1.81991C10.6627 0.726697 9.33729 0.726697 9.02495 1.81991L8.10691 5.03302C8.00461 5.39108 7.76378 5.67205 7.45688 5.7914L4.70278 6.86244C3.76574 7.22684 3.76574 8.77316 4.70278 9.13756L7.45688 10.2086C7.76378 10.328 8.00461 10.6089 8.10691 10.967L9.02495 14.1801C9.33729 15.2733 10.6627 15.2733 10.9751 14.1801L11.8931 10.967C11.9954 10.6089 12.2362 10.328 12.5431 10.2086L15.2972 9.13756C16.2343 8.77316 16.2343 7.22684 15.2972 6.86244L12.5431 5.7914C12.2362 5.67205 11.9954 5.39108 11.8931 5.03302Z" />
</g>
<defs>
<clipPath id="clip0">
<rect width="16" height="16" fill="white"/>
</clipPath>
</defs>
</svg>
