<?xml version="1.0" encoding="utf-8"?>
<svg width="48px" height="48px" viewBox="0 0 48 48" version="1.1" xmlns:xlink="http://www.w3.org/1999/xlink" xmlns="http://www.w3.org/2000/svg">
  <desc>Created with Lunacy</desc>
  <g id="amazon">
    <path d="M31.9062 1.70655C33.363 1.57188 35.6363 1.36175 36.0657 1.96291C36.5657 2.66291 35.4657 5.46291 34.9657 6.66291C34.7657 6.96291 35.1657 7.16291 35.4657 6.86291C37.6657 5.06291 38.1657 1.16291 37.7657 0.562912C37.3657 -0.0370903 33.4657 -0.53709 31.1657 1.16291C30.7657 1.46291 30.8657 1.76291 31.2657 1.76291C31.4492 1.74879 31.6667 1.72869 31.9062 1.70655ZM18.9657 9.06291C24.0657 9.06291 30.3657 7.16291 34.5657 4.06291C35.2657 3.56291 34.6657 2.76291 33.9657 2.96291C29.2657 4.96291 23.4657 5.96291 18.8657 5.96291C12.0657 5.96291 5.96569 4.16291 0.565686 1.06291C0.165686 0.862907 -0.234314 1.26291 0.165686 1.66291C5.16568 6.16291 11.6657 9.06291 18.9657 9.06291Z" transform="translate(5.034317 34.93707)" id="Shape" fill="#FFB300" fill-rule="evenodd" stroke="none" />
    <path d="M22.8 19.9C22.8 22.4 23.8 23.5 24.8 24.8C25.2 25.3 25.3 25.9 24.8 26.3C23.7 27.2 21.8 28.9 20.8 29.8C20.5 30.1 20 30.1 19.6 29.9C17.9 28.4 17.5 27.6 16.6 26.2C13.7 29.1 11.5 30 7.8 30C3.4 30 0 27.3 0 21.8C0 17.5 2.3 14.6 5.6 13.2C8.4 12 11.8 12 15 12L15 9C15 6.6 12.9 6 11.8 6C9.8 6 8.1 7 7.7 9.1C7.6 9.6 7.3 10.1 6.8 10.1L1.7 9.5C1.3 9.4 0.799999 9.1 0.9 8.4C2.1 2.2 6.9 0 12.4 0C15 0 18.3 0.7 20.3 2.6C22.8 5 22.8 8.1 22.8 11.6L22.8 19.9ZM9.89999 24C14.8 24 14.9 19.1 14.9 17.1L14.9 16C11.1 16 6.89999 16.5 6.89999 21C6.89999 21 6.89999 24 9.89999 24Z" transform="translate(12.10001 5)" id="Shape" fill="#000000" fill-rule="evenodd" stroke="none" />
  </g>
</svg>