<?xml version="1.0" encoding="utf-8"?>
<svg width="48px" height="48px" viewBox="0 0 48 48" version="1.1" xmlns:xlink="http://www.w3.org/1999/xlink" xmlns="http://www.w3.org/2000/svg">
  <desc>Created with Lunacy</desc>
  <g id="google">
    <path d="M39.611 16.083L38 16.083L38 16L20 16L20 24L31.303 24C29.654 28.657 25.223 32 20 32C13.373 32 8 26.627 8 20C8 13.373 13.373 8 20 8C23.059 8 25.842 9.154 27.961 11.039L33.618 5.382C30.046 2.053 25.268 0 20 0C8.955 0 0 8.955 0 20C0 31.045 8.955 40 20 40C31.045 40 40 31.045 40 20C40 18.659 39.862 17.35 39.611 16.083L39.611 16.083Z" transform="translate(4 4)" id="Shape" fill="#F0B501" stroke="none" />
    <path d="M0 10.691L6.571 15.51C8.349 11.108 12.655 8 17.694 8C20.753 8 23.536 9.154 25.655 11.039L31.312 5.382C27.74 2.053 22.962 0 17.694 0C10.012 0 3.35 4.337 0 10.691L0 10.691Z" transform="translate(6.30603 4)" id="Shape" fill="#E43E2B" stroke="none" />
    <path d="M17.805 15.946C22.971 15.946 27.665 13.969 31.214 10.754L25.024 5.516C23.016 7.037 20.52 7.946 17.805 7.946C12.603 7.946 8.186 4.629 6.522 0L0 5.025C3.31 11.502 10.032 15.946 17.805 15.946L17.805 15.946Z" transform="translate(6.195007 28.05402)" id="Shape" fill="#2BA24C" stroke="none" />
    <path d="M19.761 0.00219727L18 0L0 0L0 8.00008L11.303 8.00008C10.511 10.2371 9.07202 12.1661 7.21601 13.5711C7.21701 13.5701 7.21801 13.5701 7.21901 13.5691L13.409 18.8072C12.971 19.2052 20.0342 14.0002 20.0342 4.00006C20.0342 2.65905 19.761 0.00219727 19.761 0.00219727Z" transform="translate(24 20)" id="Shape" fill="#3B7DED" stroke="none" />
  </g>
</svg>