<?xml version="1.0" encoding="utf-8"?>
<svg width="37px" height="29px" viewBox="0 0 37 29" version="1.1" xmlns:xlink="http://www.w3.org/1999/xlink" xmlns="http://www.w3.org/2000/svg">
  <desc>Created with Lunacy</desc>
  <g id="twitter">
    <path d="M36.003 3.429C34.68 4.015 33.257 4.406 31.756 4.591C33.282 3.685 34.456 2.24 35.007 0.532999C33.579 1.37 31.997 1.985 30.314 2.309C28.97 0.884 27.053 0 24.929 0C20.849 0 17.542 3.278 17.542 7.32C17.542 7.892 17.609 8.449 17.735 8.99C11.597 8.682 6.153 5.764 2.511 1.336C1.871 2.418 1.511 3.685 1.511 5.022C1.511 7.563 2.812 9.8 4.796 11.118C3.585 11.081 2.445 10.744 1.447 10.204C1.447 10.226 1.447 10.259 1.447 10.29C1.447 13.841 3.994 16.798 7.37 17.471C6.753 17.64 6.101 17.734 5.429 17.734C4.952 17.734 4.487 17.68 4.037 17.599C4.977 20.501 7.704 22.622 10.935 22.685C8.407 24.645 5.223 25.819 1.761 25.819C1.163 25.819 0.578 25.785 0 25.715C3.271 27.786 7.155 29 11.324 29C24.909 29 32.341 17.844 32.341 8.166C32.341 7.849 32.331 7.533 32.316 7.221C33.766 6.197 35.016 4.905 36.003 3.429" id="Shape" fill="#03A9F4" stroke="none" />
  </g>
</svg>