<?xml version="1.0" encoding="utf-8"?>
<svg width="53px" height="37px" viewBox="0 0 53 37" version="1.1" xmlns:xlink="http://www.w3.org/1999/xlink" xmlns="http://www.w3.org/2000/svg">
  <desc>Created with Lunacy</desc>
  <g id="youtube">
    <path d="M50.9288 5.69702C50.3294 3.46939 48.5731 1.71347 46.3458 1.11362C42.2766 0 25.9996 0 25.9996 0C25.9996 0 9.72302 0 5.65378 1.07117C3.46939 1.67062 1.67023 3.46979 1.07077 5.69702C0 9.76587 0 18.2043 0 18.2043C0 18.2043 0 26.6852 1.07077 30.7115C1.67062 32.9388 3.42654 34.6951 5.65417 35.295C9.76587 36.4086 26 36.4086 26 36.4086C26 36.4086 42.2766 36.4086 46.3458 35.3374C48.5735 34.7379 50.3294 32.9816 50.9292 30.7544C52 26.6852 52 18.2471 52 18.2471C52 18.2471 52.0428 9.76587 50.9288 5.69702L50.9288 5.69702Z" id="Shape" fill="#EE0000" stroke="none" />
    <path d="M0 15.5914L13.5352 7.79572L0 0L0 15.5914Z" transform="translate(20.81714 10.40857)" id="Shape" fill="#EEEEEE" stroke="none" />
  </g>
</svg>