<svg xmlns="http://www.w3.org/2000/svg" width="24" height="24" viewBox="0 0 24 24">
<style type="text/css">
	.st0{fill:none;}
</style>
<path class="st0" d="M0,0h24v24H0V0z"/>
<g>
	<path d="M12.8,1V9h7C19.8,4.9,16.7,1.5,12.8,1z"/>
	<path d="M10.8,1c-4,0.5-7,3.9-7,7.9h7V1z"/>
	<path d="M14.4,21.6v-4.9c0-0.7,0.6-1.2,1.2-1.2v-1.8c0-1.2,0.7-2.3,1.8-2.8H3.8v4c0,4.4,3.6,8,8,8c1,0,2-0.2,2.9-0.6   C14.5,22.2,14.4,21.9,14.4,21.6z"/>
</g>
<path d="M21.6,16v-1.5c0-1.4-1.1-2.5-2.5-2.5s-2.5,1.1-2.5,2.5V16c-0.5,0-1,0.5-1,1v4c0,0.5,0.4,1,1,1h5c0.5,0,1-0.5,1-1v-4  C22.6,16.4,22.2,16,21.6,16z M20.6,16h-3v-1.5c0-0.8,0.7-1.5,1.5-1.5s1.5,0.7,1.5,1.5V16z"/>
</svg>