<svg width="20" height="20" viewBox="0 0 20 20" fill="none" xmlns="http://www.w3.org/2000/svg">
<path d="M10 20C15.5228 20 20 15.5228 20 10C20 4.47715 15.5228 0 10 0C4.47715 0 0 4.47715 0 10C0 15.5228 4.47715 20 10 20Z" fill="#FFCC4D"/>
<path d="M10 11.6667C7.98725 11.6667 6.65169 11.4323 5.00003 11.1111C4.6228 11.0384 3.88892 11.1111 3.88892 12.2223C3.88892 14.4445 6.44169 17.2223 10 17.2223C13.5578 17.2223 16.1111 14.4445 16.1111 12.2223C16.1111 11.1111 15.3772 11.0378 15 11.1111C13.3484 11.4323 12.0128 11.6667 10 11.6667Z" fill="#664500"/>
<path d="M5 12.2222C5 12.2222 6.66667 12.7777 10 12.7777C13.3333 12.7777 15 12.2222 15 12.2222C15 12.2222 13.8889 14.4444 10 14.4444C6.11111 14.4444 5 12.2222 5 12.2222Z" fill="white"/>
<path d="M6.66672 9.44455C7.43378 9.44455 8.05561 8.574 8.05561 7.50011C8.05561 6.42622 7.43378 5.55566 6.66672 5.55566C5.89966 5.55566 5.27783 6.42622 5.27783 7.50011C5.27783 8.574 5.89966 9.44455 6.66672 9.44455Z" fill="#664500"/>
<path d="M13.3332 9.44455C14.1003 9.44455 14.7221 8.574 14.7221 7.50011C14.7221 6.42622 14.1003 5.55566 13.3332 5.55566C12.5662 5.55566 11.9443 6.42622 11.9443 7.50011C11.9443 8.574 12.5662 9.44455 13.3332 9.44455Z" fill="#664500"/>
</svg>
