<svg width="20" height="20" viewBox="0 0 20 20" fill="none" xmlns="http://www.w3.org/2000/svg">
<path d="M20 10C20 15.5228 15.5228 20 10 20C4.47778 20 0 15.5228 0 10C0 4.47778 4.47778 0 10 0C15.5228 0 20 4.47778 20 10Z" fill="#FFCC4D"/>
<path d="M6.38889 11.1111C7.15595 11.1111 7.77778 10.2405 7.77778 9.16661C7.77778 8.09273 7.15595 7.22217 6.38889 7.22217C5.62183 7.22217 5 8.09273 5 9.16661C5 10.2405 5.62183 11.1111 6.38889 11.1111Z" fill="#664500"/>
<path d="M13.6111 11.1111C14.3781 11.1111 14.9999 10.2405 14.9999 9.16661C14.9999 8.09273 14.3781 7.22217 13.6111 7.22217C12.844 7.22217 12.2222 8.09273 12.2222 9.16661C12.2222 10.2405 12.844 11.1111 13.6111 11.1111Z" fill="#664500"/>
<path d="M13.0473 15.4884C13.0412 15.464 12.4112 13.0557 10 13.0557C7.58893 13.0557 6.95893 15.464 6.95282 15.4884C6.92337 15.6068 6.97726 15.7279 7.08171 15.7907C7.18615 15.8529 7.32226 15.8384 7.41282 15.7573C7.41782 15.7534 7.9756 15.2779 10 15.2779C11.9945 15.2779 12.565 15.739 12.5867 15.7573C12.6395 15.8079 12.7084 15.8334 12.7778 15.8334C12.8245 15.8334 12.8717 15.8218 12.9145 15.7979C13.0234 15.7362 13.0778 15.6096 13.0473 15.4884Z" fill="#664500"/>
<path d="M5.55556 16.6666C5.55556 18.2011 4.31222 19.4444 2.77778 19.4444C1.24333 19.4444 0 18.2011 0 16.6666C0 15.1322 2.22222 11.1111 2.77778 11.1111C3.33333 11.1111 5.55556 15.1322 5.55556 16.6666Z" fill="#5DADEC"/>
<path d="M16.6667 7.22239C13.5812 7.22239 12.3323 4.79627 12.2806 4.69294C12.1434 4.4185 12.2545 4.08461 12.5289 3.94739C12.8023 3.81016 13.1356 3.92072 13.2734 4.1935C13.3151 4.27461 14.2851 6.11127 16.6667 6.11127C16.9739 6.11127 17.2223 6.36016 17.2223 6.66683C17.2223 6.97405 16.9739 7.22239 16.6667 7.22239ZM3.33339 7.22239C3.02672 7.22239 2.77783 6.9735 2.77783 6.66683C2.77783 6.36016 3.02672 6.11127 3.33339 6.11127C6.15728 6.11127 6.6645 4.37794 6.68505 4.30405C6.76561 4.01072 7.06839 3.83294 7.36228 3.91016C7.65672 3.98739 7.83505 4.28405 7.76117 4.57961C7.73394 4.68739 7.05783 7.22239 3.33339 7.22239Z" fill="#664500"/>
</svg>
