<svg width="18" height="18" viewBox="0 0 18 18" fill="none" xmlns="http://www.w3.org/2000/svg">
<path d="M9 16.5C13.1421 16.5 16.5 13.1421 16.5 9C16.5 4.85786 13.1421 1.5 9 1.5C4.85786 1.5 1.5 4.85786 1.5 9C1.5 13.1421 4.85786 16.5 9 16.5Z" stroke="black" stroke-width="1.5" stroke-linecap="round" stroke-linejoin="round"/>
<path d="M6.8175 6.75C6.99383 6.24875 7.34187 5.82608 7.79997 5.55685C8.25807 5.28762 8.79668 5.1892 9.32039 5.27903C9.8441 5.36886 10.3191 5.64114 10.6613 6.04765C11.0035 6.45415 11.1908 6.96864 11.19 7.5C11.19 9 8.94 9.75 8.94 9.75" stroke="black" stroke-width="1.5" stroke-linecap="round" stroke-linejoin="round"/>
<path d="M9 12.75H9.0075" stroke="black" stroke-width="1.5" stroke-linecap="round" stroke-linejoin="round"/>
</svg>
