<svg width="18" height="18" viewBox="0 0 18 18" fill="none" xmlns="http://www.w3.org/2000/svg">
<path d="M11.625 5.625L14.25 3M15.75 1.5L14.25 3L15.75 1.5ZM8.54251 8.7075C8.92976 9.0896 9.23761 9.54453 9.44832 10.0461C9.65904 10.5477 9.76846 11.0859 9.77028 11.63C9.7721 12.174 9.66629 12.713 9.45894 13.216C9.2516 13.7189 8.9468 14.1759 8.56212 14.5606C8.17743 14.9453 7.72045 15.2501 7.21749 15.4574C6.71452 15.6648 6.17551 15.7706 5.63148 15.7688C5.08746 15.7669 4.54917 15.6575 4.0476 15.4468C3.54604 15.2361 3.09111 14.9283 2.70901 14.541C1.95761 13.763 1.54183 12.721 1.55123 11.6395C1.56063 10.5579 1.99445 9.52331 2.75926 8.7585C3.52406 7.99369 4.55867 7.55987 5.64023 7.55047C6.72179 7.54107 7.76377 7.95685 8.54176 8.70825L8.54251 8.7075ZM8.54251 8.7075L11.625 5.625L8.54251 8.7075ZM11.625 5.625L13.875 7.875L16.5 5.25L14.25 3L11.625 5.625Z" stroke="black" stroke-width="1.5" stroke-linecap="round" stroke-linejoin="round"/>
</svg>
