<svg width="18" height="18" viewBox="0 0 18 18" fill="none" xmlns="http://www.w3.org/2000/svg">
<path d="M4.5 6.75V1.5H13.5V6.75" stroke="black" stroke-width="1.5" stroke-linecap="round" stroke-linejoin="round"/>
<path d="M4.5 13.5H3C2.60218 13.5 2.22064 13.342 1.93934 13.0607C1.65804 12.7794 1.5 12.3978 1.5 12V8.25C1.5 7.85218 1.65804 7.47064 1.93934 7.18934C2.22064 6.90804 2.60218 6.75 3 6.75H15C15.3978 6.75 15.7794 6.90804 16.0607 7.18934C16.342 7.47064 16.5 7.85218 16.5 8.25V12C16.5 12.3978 16.342 12.7794 16.0607 13.0607C15.7794 13.342 15.3978 13.5 15 13.5H13.5" stroke="black" stroke-width="1.5" stroke-linecap="round" stroke-linejoin="round"/>
<path d="M4.5 10.5H13.5V16.5H4.5V10.5Z" stroke="black" stroke-width="1.5" stroke-linecap="round" stroke-linejoin="round"/>
</svg>
