<svg width="32" height="32" viewBox="0 0 32 32" fill="none" xmlns="http://www.w3.org/2000/svg">
<path d="M2 2H30V15H2V2Z" fill="#ECECEC"/>
<path d="M29 1H3C1.89543 1 1 1.89543 1 3V29C1 30.1046 1.89543 31 3 31H29C30.1046 31 31 30.1046 31 29V3C31 1.89543 30.1046 1 29 1Z" stroke="#D5D5D5" stroke-width="2"/>
<path d="M2 15H30V30H2V15Z" fill="white"/>
<path fill-rule="evenodd" clip-rule="evenodd" d="M9.80936 19.1281C9.98021 19.299 9.98021 19.576 9.80936 19.7469L7.49372 22.0625H12.5625C12.8041 22.0625 13 22.2584 13 22.5C13 22.7416 12.8041 22.9375 12.5625 22.9375H7.49372L9.80936 25.2531C9.98021 25.424 9.98021 25.701 9.80936 25.8719C9.6385 26.0427 9.3615 26.0427 9.19064 25.8719L6.12814 22.8094C5.95729 22.6385 5.95729 22.3615 6.12814 22.1906L9.19064 19.1281C9.3615 18.9573 9.6385 18.9573 9.80936 19.1281Z" fill="#3C3C3C"/>
<path d="M20.2407 23.25C20.6498 23.25 20.9815 22.9142 20.9815 22.5C20.9815 22.0858 20.6498 21.75 20.2407 21.75C19.8316 21.75 19.5 22.0858 19.5 22.5C19.5 22.9142 19.8316 23.25 20.2407 23.25Z" fill="#3C3C3C"/>
<path d="M22.463 23.25C22.8721 23.25 23.2037 22.9142 23.2037 22.5C23.2037 22.0858 22.8721 21.75 22.463 21.75C22.0539 21.75 21.7222 22.0858 21.7222 22.5C21.7222 22.9142 22.0539 23.25 22.463 23.25Z" fill="#3C3C3C"/>
<path d="M24.7593 23.25C25.1684 23.25 25.5 22.9142 25.5 22.5C25.5 22.0858 25.1684 21.75 24.7593 21.75C24.3502 21.75 24.0185 22.0858 24.0185 22.5C24.0185 22.9142 24.3502 23.25 24.7593 23.25Z" fill="#3C3C3C"/>
<path d="M16 4C16 2.89543 16.8954 2 18 2H29C29.5523 2 30 2.44772 30 3V15H16V4Z" fill="white"/>
<path d="M21.3393 7.98963C21.3393 7.71278 21.5592 7.48834 21.8304 7.48834H23.7947C24.0659 7.48834 24.2857 7.71278 24.2857 7.98963V10.9974H23.3036V8.49093H22.3214V10.9974H21.3393V7.98963Z" fill="#3C3C3C"/>
<path fill-rule="evenodd" clip-rule="evenodd" d="M20.3571 7.26842V10.9974H25.2679V7.26842L22.8125 5.26325L20.3571 7.26842ZM19.5593 6.63605L22.5057 4.22984C22.6851 4.08338 22.9399 4.08338 23.1193 4.22984L26.0657 6.63605C26.1822 6.73118 26.25 6.87521 26.25 7.02749V11.4987C26.25 11.7756 26.0301 12 25.7589 12H19.8661C19.5949 12 19.375 11.7756 19.375 11.4987V7.02749C19.375 6.87521 19.4428 6.73118 19.5593 6.63605Z" fill="#3C3C3C"/>
</svg>
